{"glyphs":{"0":{"ha":338,"x_min":-4,"x_max":331,"o":"m 328 325 q 324 253 331 289 q 307 192 318 217 q 303 175 304 183 q 300 158 303 167 q 290 138 294 147 q 282 117 286 128 q 281 83 279 106 q 274 46 282 61 q 258 27 267 36 q 244 8 250 18 q 231 -11 238 -3 q 210 -22 224 -19 q 181 -17 194 -25 q 158 -6 168 -10 q 140 -1 149 -1 q 125 6 132 0 q 90 53 104 22 q 65 119 75 83 q 47 193 54 156 q 33 261 39 231 q 18 313 28 283 q 1 369 8 343 q -3 406 -4 385 q 1 440 -1 426 q 4 513 8 475 q 8 590 0 550 q 11 637 13 610 q 13 686 10 664 q 15 701 14 693 q 18 715 17 708 q 13 735 17 725 q 11 756 10 746 q 19 778 15 767 q 26 800 22 789 q 28 817 28 808 q 32 833 29 825 q 62 909 44 874 q 107 972 79 944 q 120 978 113 976 q 133 985 128 981 q 153 979 143 982 q 175 969 164 976 q 190 942 181 965 q 210 890 200 918 q 230 835 221 861 q 243 797 239 808 q 256 767 250 782 q 268 738 261 753 q 294 649 282 696 q 314 551 306 601 q 326 452 322 501 q 324 358 329 403 l 328 325 l 328 325 m 56 635 l 58 635 q 58 638 57 639 q 56 640 58 638 l 56 635 m 43 400 q 44 404 44 401 l 43 404 l 43 400 l 43 400 m 279 367 q 277 403 283 386 q 274 436 271 421 q 274 517 278 472 q 260 606 269 561 q 237 692 250 650 q 210 767 224 735 q 196 811 203 783 q 179 865 189 839 q 157 912 169 892 q 126 936 144 932 q 113 922 121 928 q 99 910 104 917 q 74 853 83 886 q 60 790 65 821 q 65 708 63 749 q 69 626 67 667 q 55 525 54 571 q 63 429 56 479 q 69 392 65 410 q 75 358 72 375 q 78 325 78 342 q 78 292 78 308 q 83 261 79 276 q 97 232 86 246 q 113 222 103 224 q 131 217 124 221 q 135 208 132 211 q 142 200 139 204 q 149 171 147 185 q 156 147 151 157 q 169 128 160 136 q 199 118 179 121 q 235 167 222 132 q 256 235 249 203 q 253 251 254 243 q 251 267 253 258 q 265 316 254 290 q 279 367 275 342 z "},"1":{"ha":136,"x_min":-1,"x_max":117,"o":"m 111 1115 l 117 1115 l 117 1103 q 107 1053 111 1082 q 102 994 103 1024 q 103 938 101 965 q 110 892 104 910 q 108 857 114 875 q 107 819 101 839 q 112 799 110 808 q 117 779 114 790 q 112 760 114 769 q 107 740 110 750 q 107 712 103 724 q 108 686 111 700 q 98 638 103 663 q 94 586 93 614 q 104 435 99 514 q 100 286 110 356 q 102 255 101 271 q 104 222 103 239 q 108 195 107 208 q 111 168 108 182 q 113 117 114 144 q 108 67 111 90 q 111 41 110 54 q 115 15 113 28 q 113 -1 117 7 q 107 -17 108 -8 q 107 -51 104 -32 q 106 -85 110 -69 q 104 -112 103 -93 q 106 -152 106 -132 q 107 -190 107 -172 q 103 -212 107 -207 l 103 -210 q 95 -178 94 -199 q 93 -139 96 -157 q 88 -112 90 -126 q 82 -86 85 -97 q 82 -43 78 -65 q 89 -4 86 -21 q 91 12 90 1 q 92 33 92 22 q 91 55 92 44 q 90 71 90 65 q 80 181 85 132 q 69 290 75 231 q 70 317 69 304 q 72 344 71 331 q 65 483 69 414 q 58 622 61 551 l 63 643 q 62 689 60 665 q 66 736 64 713 q 68 783 68 760 q 63 825 68 806 q 63 843 63 835 q 61 861 63 851 q 59 858 60 860 q 56 856 58 857 q 38 833 42 847 q 31 804 33 819 q 28 775 29 789 q 18 751 26 761 q 15 754 18 751 q 15 778 15 763 q 15 806 14 794 q 7 830 11 818 q -1 853 3 842 q 29 883 14 864 q 51 921 44 903 l 51 944 q 66 961 57 954 q 79 979 75 968 q 99 1046 90 1010 q 111 1115 108 1082 z "},"2":{"ha":240,"x_min":-36,"x_max":294,"o":"m 111 950 q 149 939 139 946 q 179 919 158 932 q 193 918 186 917 q 207 914 200 919 q 228 876 224 900 q 231 825 233 851 q 223 773 229 799 q 211 732 217 747 q 184 658 197 697 q 154 581 171 619 q 130 540 146 558 q 107 500 114 522 q 101 449 99 474 q 99 401 104 425 q 90 324 92 363 q 78 249 88 285 q 67 210 74 235 q 54 157 60 185 q 45 102 49 129 q 46 58 42 75 q 69 58 60 54 q 93 63 79 61 q 113 44 99 49 q 142 36 126 39 q 173 30 157 33 q 200 17 189 26 q 207 1 203 10 q 214 -14 211 -7 q 235 -32 225 -24 q 257 -50 246 -40 q 280 -95 272 -69 q 294 -144 288 -121 q 292 -146 292 -146 l 292 -143 q 284 -133 286 -139 q 280 -119 282 -126 q 276 -106 278 -112 q 269 -94 274 -99 q 233 -50 253 -72 q 186 -15 213 -28 q 172 -14 179 -14 q 157 -12 164 -14 q 113 -2 138 -7 q 72 6 88 3 q 53 3 64 6 q 34 -3 43 0 q 17 -8 25 -6 q 4 -8 8 -11 q 2 -16 3 -15 q -4 -18 1 -17 l -4 -7 q 2 22 1 4 q 3 53 3 40 q 8 71 3 60 q 14 92 13 82 l 14 126 q 40 242 29 181 q 61 360 50 304 q 63 415 63 388 q 65 469 64 442 l 78 528 q 91 552 85 540 q 104 575 97 564 q 108 590 107 582 q 111 606 108 599 q 120 625 114 615 q 129 646 126 635 q 129 664 132 656 q 131 688 126 672 l 143 708 q 138 733 146 719 q 138 758 131 746 q 147 773 142 767 q 158 786 153 779 q 168 802 164 793 q 174 826 172 811 q 168 844 174 835 q 158 858 163 853 q 144 874 150 871 q 131 878 138 878 q 116 879 125 879 q 94 883 107 879 q 81 890 88 886 q 64 892 75 894 q 34 878 49 889 q 8 858 19 867 q -4 841 0 851 q -11 818 -8 831 q -16 792 -14 806 q -21 769 -18 779 q -20 740 -26 754 q -21 715 -14 726 q -24 719 -24 718 q -33 759 -31 736 q -35 806 -36 782 q -31 853 -35 831 q -22 894 -28 876 q 10 912 -1 899 q 42 933 22 925 q 76 942 58 938 q 111 950 93 946 z "},"3":{"ha":347,"x_min":-112,"x_max":351,"o":"m -72 967 q -45 951 -60 958 q -18 939 -31 944 q 4 940 -7 935 q 26 942 15 944 q 95 935 54 936 q 164 938 136 933 q 190 945 175 939 q 213 950 204 951 q 240 944 226 949 q 267 936 253 939 l 304 936 l 304 935 q 297 928 301 929 q 289 922 292 926 q 275 899 282 913 q 261 875 268 886 q 251 842 254 863 q 243 811 249 821 q 222 783 232 796 q 213 746 213 769 q 215 743 213 746 q 283 730 247 738 q 350 715 319 722 q 351 703 350 707 q 331 677 335 694 q 318 644 328 660 q 297 592 303 621 q 283 532 290 564 q 281 489 278 510 q 275 446 283 468 q 274 406 269 431 q 281 368 278 382 q 278 355 281 365 q 274 332 276 344 q 269 308 272 319 q 265 293 267 297 q 258 278 263 286 q 251 264 254 271 l 251 224 q 239 214 243 218 q 233 199 236 207 q 228 185 231 192 q 219 174 224 179 q 213 164 215 169 q 208 148 210 156 q 206 132 207 140 q 195 117 200 125 q 185 101 190 108 q 172 66 178 82 q 157 35 167 50 q 142 3 150 22 q 128 -26 133 -15 q 125 -40 125 -33 q 119 -51 125 -47 q 78 -98 97 -74 q 39 -146 60 -122 q 26 -157 33 -153 q 13 -168 18 -161 q 6 -187 10 -178 q -1 -207 1 -196 q -15 -218 -8 -212 q -28 -231 -21 -224 q -64 -298 -49 -262 q -110 -356 -79 -333 q -112 -353 -110 -356 q -87 -313 -101 -333 q -60 -275 -74 -293 q -49 -249 -51 -264 q -39 -224 -46 -235 q -31 -213 -35 -218 q -24 -204 -28 -208 q -15 -182 -19 -193 q -7 -160 -11 -171 q 40 -92 11 -124 q 93 -29 69 -61 q 97 -17 96 -22 q 101 -6 99 -12 q 124 34 113 14 q 146 74 136 54 q 149 92 147 83 q 153 110 150 101 q 183 176 165 143 q 214 239 200 208 l 214 276 q 222 291 218 283 q 228 306 225 299 l 228 332 q 232 349 231 340 q 236 367 233 358 l 228 433 q 224 479 225 457 q 219 526 222 501 q 222 556 218 538 q 229 592 225 574 q 235 628 233 611 q 236 656 238 646 q 218 662 226 658 q 200 668 210 665 q 166 663 183 665 q 132 658 149 661 q 117 665 125 660 q 100 667 110 669 q 72 654 85 663 q 43 642 58 646 q 85 687 56 668 q 132 729 114 706 q 153 765 143 744 q 169 804 164 785 q 172 824 172 815 q 178 840 172 832 q 190 846 185 843 q 200 853 194 849 q 194 864 197 858 q 185 872 192 869 l 160 872 q 142 880 149 875 q 125 888 135 885 q 87 894 108 894 q 50 897 65 894 q 28 896 39 896 q 6 894 17 896 q -6 905 -4 897 q -14 919 -7 913 q -46 940 -28 933 q -75 963 -64 947 q -74 965 -74 964 q -72 967 -74 965 z "},"4":{"ha":226,"x_min":-12,"x_max":217,"o":"m 150 1250 q 156 1231 154 1246 q 160 1199 158 1217 q 163 1163 163 1181 q 165 1133 164 1144 q 172 1038 169 1088 q 169 940 175 989 q 170 910 169 925 q 171 881 171 896 q 174 798 167 844 q 186 718 181 751 q 184 675 185 696 q 182 632 183 654 q 192 529 186 579 q 200 435 197 479 l 196 343 l 204 210 q 200 161 201 186 q 196 113 199 136 q 198 43 203 76 q 200 -32 193 10 q 209 -97 204 -60 q 208 -158 214 -133 q 212 -191 211 -175 q 215 -224 213 -207 q 214 -263 217 -243 q 214 -301 211 -283 q 217 -353 217 -322 q 214 -407 217 -383 q 213 -426 213 -415 q 213 -447 213 -436 q 212 -466 213 -457 q 207 -479 211 -475 q 206 -477 207 -478 q 206 -475 206 -476 q 207 -447 208 -464 q 203 -418 206 -429 l 203 -356 q 196 -318 200 -336 q 192 -282 192 -300 q 189 -256 190 -269 q 186 -229 188 -243 q 185 -186 189 -208 q 178 -143 181 -164 q 178 -122 178 -132 q 179 -100 178 -111 q 168 0 171 -49 q 154 93 165 49 q 154 111 151 103 q 160 126 157 119 q 166 140 164 133 q 167 157 168 147 q 153 207 161 185 q 143 253 146 229 q 148 271 146 263 q 153 288 150 279 l 140 388 q 117 408 133 403 q 90 425 101 414 q 76 426 86 425 q 54 427 65 426 q 33 427 43 428 q 21 424 24 426 q 7 410 14 417 q -11 400 0 403 q -12 401 -11 401 q -9 419 -12 411 q -1 432 -6 426 q 8 443 4 438 q 15 456 13 449 q 24 488 19 468 q 31 519 28 507 q 39 624 39 568 q 46 724 39 679 q 55 781 49 749 q 67 842 61 813 q 67 876 68 853 q 66 925 67 900 q 65 970 65 950 q 68 994 64 990 q 74 970 71 982 q 81 946 78 958 q 83 899 82 922 q 86 853 85 876 q 86 830 89 842 q 81 807 83 818 q 80 785 78 796 q 79 761 82 775 q 83 716 82 738 q 86 671 85 694 q 81 613 83 642 q 76 556 79 585 q 86 550 83 554 q 90 529 90 543 q 93 507 89 515 q 104 497 97 504 q 116 499 111 499 q 122 500 121 499 q 132 508 126 503 q 125 532 129 521 q 125 558 121 543 q 133 573 128 567 q 139 590 138 579 q 138 608 139 594 q 134 637 136 621 q 130 669 132 653 q 126 693 128 685 q 131 718 129 706 q 136 743 133 731 q 131 779 131 760 q 134 820 132 799 q 138 865 136 842 q 139 914 140 889 q 138 998 136 956 q 143 1082 140 1040 q 149 1165 146 1124 q 150 1250 151 1207 z "},"5":{"ha":307,"x_min":-15,"x_max":303,"o":"m 18 963 q 40 956 29 961 q 56 953 44 953 q 81 956 68 954 q 106 959 94 957 q 124 963 118 961 q 140 961 132 961 q 156 960 149 961 q 244 906 214 940 q 296 815 274 871 q 300 794 299 804 q 303 772 301 783 q 301 770 300 769 q 297 769 301 771 l 297 771 q 292 795 293 782 q 286 817 290 808 q 265 858 276 836 q 239 896 253 879 q 213 911 232 904 q 172 921 194 918 q 127 924 149 924 q 94 919 106 924 q 77 909 86 914 q 58 899 68 904 q 52 856 58 876 q 44 818 46 836 q 48 789 43 807 q 50 754 53 771 q 43 735 49 743 q 38 714 38 726 q 56 699 44 707 q 56 677 53 694 q 64 654 60 660 q 111 651 88 651 q 153 642 135 650 q 163 595 156 615 q 182 558 171 575 q 205 526 193 542 q 228 492 217 510 q 260 461 239 474 q 288 425 282 449 q 283 397 290 413 q 276 368 276 381 q 281 343 276 357 q 288 318 285 329 l 288 283 q 292 273 289 276 q 292 261 294 269 q 277 228 286 242 q 261 200 268 215 q 258 183 258 192 q 254 167 257 175 q 235 148 247 156 q 218 129 222 140 l 218 103 q 197 62 211 83 q 176 24 183 40 q 173 6 174 15 q 169 -11 172 -3 q 159 -31 164 -22 q 149 -51 154 -40 q 136 -96 139 -74 q 122 -142 133 -118 q 99 -176 114 -161 q 75 -210 85 -192 q 68 -233 68 -221 q 61 -257 68 -246 q 49 -274 60 -260 q 24 -307 38 -289 q -14 -353 8 -328 l -15 -353 q 11 -304 -7 -322 q 44 -262 29 -286 q 53 -233 49 -247 q 63 -206 58 -219 q 73 -190 68 -199 q 83 -175 78 -182 q 99 -131 97 -156 q 111 -83 101 -106 q 127 -47 118 -67 q 143 -12 136 -28 q 163 50 156 19 q 185 111 171 81 q 200 139 190 124 q 215 168 210 154 q 227 210 224 186 q 231 260 231 235 q 228 311 231 286 q 222 357 226 336 q 219 384 219 371 q 217 413 218 397 q 209 419 213 415 q 201 425 206 422 q 193 445 197 436 q 186 464 189 454 q 163 499 175 482 q 140 535 150 515 q 124 574 132 554 q 99 601 117 593 q 78 605 93 604 q 47 606 63 606 q 17 606 31 606 q 3 608 4 606 q -10 623 -7 613 q -12 646 -12 633 q -10 672 -11 658 q -10 697 -8 686 q -8 721 -8 708 q -7 746 -8 733 q -8 824 -4 788 q -1 897 -12 861 q -1 928 4 914 q 1 956 -6 943 q 10 959 6 958 q 18 963 14 960 z "},"6":{"ha":297,"x_min":4,"x_max":293,"o":"m 279 103 q 290 13 293 53 q 272 -71 286 -26 q 272 -83 269 -76 q 268 -92 274 -89 q 229 -99 249 -104 q 190 -92 210 -94 q 172 -90 181 -90 q 154 -90 164 -90 q 96 -46 119 -78 q 56 26 72 -14 q 28 111 39 67 q 7 193 17 156 l 7 242 q 6 293 4 261 q 11 349 7 325 q 13 399 13 374 q 13 451 13 425 q 19 511 15 482 q 25 571 22 540 q 26 592 25 582 q 26 614 26 603 q 23 633 24 624 q 19 653 22 643 q 40 720 28 686 q 61 789 53 754 q 69 837 68 814 q 79 879 71 860 l 83 925 q 102 1000 94 961 q 118 1076 110 1039 q 118 1088 118 1083 q 117 1100 118 1093 q 126 1144 121 1122 q 135 1189 131 1167 q 138 1173 140 1183 q 135 1156 135 1163 q 131 1088 132 1125 q 125 1022 129 1051 q 126 997 124 1013 q 128 971 128 982 q 116 904 121 938 q 106 838 111 871 l 106 789 q 86 721 96 753 q 68 654 76 689 q 67 631 65 642 q 70 609 68 619 q 74 589 72 599 q 75 569 76 579 q 72 560 74 564 q 68 550 71 556 q 61 501 64 532 q 60 440 58 471 q 67 385 61 410 q 85 351 74 360 q 97 352 92 351 q 110 353 103 353 q 128 343 119 350 q 143 331 136 336 q 197 286 176 310 q 233 235 218 263 q 258 174 247 207 q 279 103 268 142 m 243 -18 q 244 48 250 6 q 225 133 238 90 q 198 212 213 176 q 174 258 183 247 q 147 267 163 269 q 117 269 132 264 q 108 256 110 263 q 106 240 106 249 q 107 223 107 232 q 104 204 107 214 q 91 162 97 182 q 88 113 85 142 q 97 84 89 97 q 110 57 106 71 q 114 33 114 46 q 115 14 114 21 q 126 0 118 6 q 138 -12 133 -6 q 143 -32 140 -26 q 175 -56 151 -46 q 219 -64 199 -67 q 231 -41 226 -53 q 243 -18 236 -29 z "},"7":{"ha":360,"x_min":-64,"x_max":388,"o":"m 385 1007 l 388 1007 q 377 978 386 988 q 363 953 368 968 q 355 917 357 936 q 346 879 353 899 q 338 865 342 872 q 331 851 335 858 q 313 765 315 808 q 297 678 311 722 q 274 628 289 650 q 251 581 260 607 q 245 504 240 543 q 243 426 250 465 q 244 405 243 415 q 246 383 244 394 q 228 315 238 347 q 213 246 219 282 q 214 208 208 225 q 219 178 219 192 q 213 152 217 165 q 207 126 210 139 q 207 47 199 83 q 213 -26 215 10 q 204 -109 210 -67 q 194 -196 199 -151 q 190 -285 190 -240 q 199 -372 190 -329 q 207 -417 203 -394 q 214 -461 211 -439 q 228 -493 219 -472 q 246 -537 238 -514 q 260 -582 254 -560 q 265 -617 265 -604 l 261 -617 q 244 -566 254 -593 q 226 -517 235 -539 q 223 -499 224 -507 q 218 -485 222 -492 q 210 -473 214 -478 q 203 -462 207 -468 q 180 -387 188 -422 q 161 -314 172 -353 q 158 -270 156 -294 q 163 -224 160 -246 q 161 -191 161 -207 q 160 -158 161 -175 l 168 -125 q 166 -112 167 -118 q 165 -100 165 -107 q 168 -69 167 -85 q 172 -36 169 -53 q 175 38 175 -6 q 172 118 175 81 q 177 186 175 153 q 182 253 179 219 q 189 342 189 297 q 196 432 189 388 q 201 495 199 464 q 207 558 204 526 q 201 585 204 569 q 203 617 199 601 q 222 643 208 635 q 240 667 235 651 q 244 699 247 683 q 240 735 242 715 q 244 756 243 746 q 247 775 246 765 q 243 801 250 789 q 243 826 236 814 q 269 851 260 831 q 278 893 278 872 q 241 904 261 901 q 199 908 221 907 q 157 910 178 910 q 119 918 136 911 q 105 917 113 918 q 90 915 97 917 q 82 921 86 918 q 75 926 78 924 l 42 931 q 26 939 35 935 q 10 947 18 943 q -35 967 -10 956 q -64 1003 -60 979 q -53 994 -56 1000 q -44 983 -50 989 q -34 979 -43 983 q -13 970 -25 975 q 9 961 -1 965 q 22 956 19 957 q 55 958 40 951 q 93 964 69 965 q 183 964 133 960 q 267 975 232 968 q 310 974 286 978 q 353 979 335 971 q 368 993 360 986 q 385 1007 376 1000 z "},"8":{"ha":283,"x_min":-19,"x_max":294,"o":"m 275 238 q 274 83 294 157 q 270 67 271 75 q 268 50 269 58 q 260 32 265 40 q 251 13 254 24 q 251 -28 247 -12 q 246 -61 256 -43 l 229 -74 q 220 -86 224 -81 q 207 -94 217 -92 q 183 -93 201 -97 q 154 -90 165 -89 q 115 -51 140 -67 q 71 -17 90 -35 q 62 -3 67 -10 q 51 11 57 4 q 38 22 44 17 q 25 32 32 26 q 8 65 14 49 q -6 100 1 81 q -17 117 -8 106 q -16 146 -19 126 q -10 175 -12 165 q -12 197 -11 186 q -12 218 -12 207 q -8 247 -12 233 q -1 274 -4 260 q 19 385 11 331 q 43 496 28 439 q 69 565 53 531 q 99 633 85 600 q 68 685 83 658 q 44 739 53 711 q 44 763 44 750 q 42 786 43 775 q 40 840 38 810 q 49 901 42 871 q 70 955 57 931 q 100 990 83 979 q 151 966 128 982 q 182 924 174 950 q 183 901 185 913 q 186 878 181 889 q 199 834 193 858 q 207 789 204 810 q 197 788 204 788 q 194 773 197 778 q 189 761 192 768 q 187 739 188 750 q 185 717 186 728 q 176 696 181 706 q 167 675 171 686 q 165 658 164 667 q 165 643 167 650 q 161 635 164 640 q 161 624 158 629 q 180 602 165 610 q 199 581 194 594 q 208 517 208 549 q 219 456 208 485 q 221 431 224 444 q 225 407 218 418 q 249 356 236 382 q 268 301 261 329 q 272 268 274 283 q 275 238 271 253 m 93 899 q 73 843 78 874 q 72 782 68 813 q 85 723 75 751 q 111 676 96 694 l 113 676 q 119 702 115 689 q 128 728 124 715 q 130 750 129 739 q 132 772 131 761 q 136 797 135 785 q 140 821 138 808 q 138 833 139 828 q 133 846 136 839 q 135 866 132 856 q 140 886 139 876 q 138 904 142 896 q 117 918 133 913 q 106 908 111 913 q 93 899 100 904 m 200 85 q 209 128 204 103 q 217 181 214 154 q 219 235 219 208 q 214 283 219 263 q 201 323 207 303 q 188 364 194 343 q 185 398 186 381 q 183 433 185 415 q 178 476 179 453 q 173 521 176 499 q 164 563 169 543 q 146 593 158 582 q 136 566 139 582 q 126 539 133 550 l 89 489 q 88 478 89 483 q 88 467 88 474 q 76 431 81 449 q 67 393 72 414 q 66 381 67 386 q 65 368 65 375 q 50 341 60 353 q 35 313 40 329 q 33 295 33 304 q 31 278 32 286 q 21 231 24 251 q 21 182 18 210 q 18 149 22 161 q 21 115 14 136 q 44 65 29 88 q 76 24 58 43 q 114 -14 94 4 q 151 -50 133 -32 q 153 -49 153 -50 q 154 -49 153 -49 q 158 -42 158 -46 q 160 -35 157 -39 q 172 -14 164 -24 q 185 7 179 -4 q 194 44 192 24 q 200 85 196 65 z "},"9":{"ha":311,"x_min":-167,"x_max":311,"o":"m 311 576 q 307 540 308 558 q 303 504 306 522 q 305 475 304 489 q 307 447 306 461 q 301 423 303 436 q 294 394 299 410 q 277 312 285 358 q 265 225 269 265 q 265 183 263 204 q 269 143 267 163 q 272 103 271 124 q 268 61 272 82 q 261 40 265 50 q 254 18 257 29 l 250 -19 q 235 -53 244 -35 q 221 -89 226 -72 q 220 -106 221 -97 q 219 -125 219 -115 q 210 -140 214 -132 q 200 -157 206 -149 q 199 -169 197 -164 q 199 -181 201 -175 q 185 -201 192 -192 q 171 -219 178 -210 q 165 -234 165 -226 q 161 -250 164 -242 q 149 -275 156 -264 q 135 -300 142 -286 q 123 -315 128 -307 q 113 -329 118 -322 q 79 -411 96 -369 q 38 -489 63 -453 q -1 -534 24 -510 q -54 -581 -25 -558 q -112 -624 -83 -604 q -167 -656 -142 -644 l -167 -651 q -127 -631 -149 -649 q -85 -591 -106 -614 q -46 -545 -64 -568 q -17 -508 -28 -522 q -6 -496 -11 -501 q 6 -483 0 -490 q 19 -457 13 -469 q 32 -432 25 -444 q 43 -418 36 -425 q 53 -403 50 -411 q 63 -376 58 -387 q 74 -351 68 -364 q 78 -335 76 -343 q 81 -318 79 -326 q 100 -285 88 -303 q 122 -250 113 -267 q 131 -228 126 -239 q 139 -207 135 -218 q 154 -187 144 -197 q 163 -164 161 -176 q 171 -137 164 -151 q 179 -126 175 -132 q 188 -114 183 -121 q 189 -92 189 -103 q 190 -69 189 -81 q 207 -34 197 -51 q 222 3 217 -17 q 226 26 225 13 q 226 53 226 39 q 225 82 226 68 q 222 106 224 96 q 224 122 224 114 q 226 140 225 131 q 211 169 219 156 q 196 199 203 183 q 194 228 189 214 q 203 253 200 242 q 185 351 221 318 q 177 363 181 357 q 168 372 174 369 q 124 382 147 376 q 85 399 100 388 q 35 460 54 422 q 8 544 17 499 q -1 639 -1 589 q 8 736 0 689 q 33 824 17 783 q 71 894 49 865 q 89 908 78 904 q 111 919 100 913 q 165 885 143 913 q 206 832 188 857 l 235 794 q 246 765 240 779 q 257 735 251 750 q 265 726 261 731 q 274 717 269 721 q 282 676 278 696 q 290 635 286 656 l 311 576 l 311 576 m 96 817 q 93 818 93 818 q 96 817 94 817 m 221 463 q 235 476 225 471 q 240 496 244 482 q 231 510 238 503 q 221 526 224 518 q 219 541 218 535 q 223 553 221 547 q 226 567 225 560 q 224 582 226 574 q 208 623 217 601 q 193 660 199 644 q 181 706 186 682 q 169 751 176 731 q 147 786 161 772 q 106 801 132 800 q 96 799 101 799 q 88 796 90 799 q 78 765 83 776 q 67 753 72 758 q 56 743 61 749 l 51 706 q 44 672 47 692 q 46 638 40 653 q 39 604 43 626 q 40 563 35 582 l 65 500 q 77 470 69 488 q 97 438 85 453 q 123 415 108 424 q 156 410 138 406 q 182 416 172 413 q 198 426 192 419 q 209 440 204 432 q 221 463 214 449 z "}," ":{"ha":332,"x_min":0,"x_max":0,"o":""},"E":{"ha":393,"x_min":-43,"x_max":385,"o":"m -42 956 q -13 938 -32 949 q 15 922 6 926 q 54 920 35 921 q 93 918 74 919 q 167 905 125 911 q 244 901 210 899 q 301 899 271 904 q 356 907 332 894 q 357 904 357 906 q 356 891 358 897 q 356 878 353 885 q 360 868 358 872 q 365 858 363 864 q 360 838 358 847 q 356 824 361 829 q 363 813 360 818 q 369 803 367 808 q 378 755 379 781 q 379 708 376 729 q 376 710 376 710 q 367 760 372 732 q 350 806 361 789 q 331 820 340 813 q 314 835 322 828 q 308 849 308 843 q 299 858 307 854 q 288 857 293 860 q 278 853 283 854 q 265 855 271 854 q 251 857 258 856 q 219 856 236 860 q 190 849 201 851 q 174 851 182 850 q 156 853 165 851 q 140 843 143 849 q 135 831 136 838 q 135 815 135 824 q 129 796 135 806 q 122 788 126 792 q 119 776 118 785 q 126 763 121 769 q 135 751 131 757 q 185 746 154 746 q 238 747 217 746 q 271 753 254 749 q 307 750 288 757 q 347 720 331 742 q 375 679 363 699 q 374 678 374 678 q 349 704 360 688 q 319 726 338 721 q 259 724 292 732 q 200 714 226 715 q 181 714 193 714 q 155 714 168 714 q 131 713 142 714 q 115 710 119 713 q 115 688 111 697 q 121 669 118 678 l 117 653 q 120 644 119 649 q 122 635 121 639 q 122 624 122 633 q 122 605 122 615 q 119 584 121 594 q 118 571 118 574 q 115 533 117 553 q 110 496 114 513 q 113 480 113 488 q 115 464 114 472 q 99 348 104 411 q 113 222 93 285 q 166 219 139 219 q 218 213 193 219 q 249 215 233 210 q 283 214 264 219 q 324 191 307 207 q 353 153 342 175 q 373 106 365 131 q 385 57 381 81 q 381 60 383 57 q 374 86 376 72 q 367 113 372 100 q 303 170 347 154 q 213 179 258 186 q 194 180 204 178 q 175 183 185 182 q 156 185 165 185 q 139 182 146 186 q 119 184 128 185 q 101 186 111 183 q 87 192 94 189 q 72 197 79 194 q 64 190 68 193 q 54 183 60 186 q 53 185 54 185 q 63 213 56 206 q 76 235 69 221 q 69 302 65 271 q 71 369 72 333 q 67 385 69 375 q 68 401 65 396 q 72 408 69 404 q 75 415 74 411 q 71 433 74 422 q 71 478 69 453 q 75 522 72 504 q 74 535 75 529 q 74 547 74 540 q 81 588 79 564 q 82 635 83 611 q 77 683 81 660 q 69 724 74 706 l -1 732 l -1 739 q 8 743 4 740 q 15 747 13 746 q 30 749 24 750 q 42 747 36 749 q 53 746 47 746 q 65 750 58 746 l 68 750 q 65 799 68 774 q 63 844 61 824 q 69 867 64 860 q 71 889 74 875 q 42 899 61 892 q 3 917 22 907 q -29 937 -15 926 q -42 956 -43 947 z "},"F":{"ha":417,"x_min":-54,"x_max":431,"o":"m -53 940 q -42 933 -47 938 q -32 926 -37 929 q -29 933 -31 931 l -15 919 q 42 907 14 913 q 99 894 71 901 q 104 899 101 897 q 110 901 107 900 q 135 903 122 903 q 160 904 147 904 q 225 890 192 897 q 290 875 258 882 q 314 875 306 872 q 338 871 322 878 q 344 873 340 872 q 351 875 349 874 q 391 855 371 868 q 431 833 411 842 l 431 832 l 422 832 q 370 847 399 843 q 310 843 342 850 q 290 840 300 842 q 271 836 281 839 q 252 844 261 839 q 232 853 243 850 q 204 847 218 856 q 175 835 190 839 q 147 835 161 832 q 118 838 133 839 q 117 819 114 825 q 129 803 125 817 q 126 796 129 801 q 115 780 115 793 q 117 756 114 767 q 124 739 121 747 q 132 722 128 731 q 135 690 133 707 q 138 658 136 674 q 132 647 135 653 q 126 635 129 642 l 129 635 q 142 635 136 632 q 154 639 147 639 q 169 636 161 638 q 185 633 178 635 q 249 646 214 639 q 314 643 285 653 l 314 642 l 313 640 q 272 633 300 639 q 215 619 244 628 q 160 603 185 611 q 131 588 136 594 q 109 534 111 560 q 108 468 107 508 q 103 443 106 456 q 99 417 101 431 q 100 397 100 406 q 101 376 100 388 q 101 315 103 340 q 92 260 99 290 q 93 244 89 250 q 97 232 97 239 q 91 179 97 210 q 88 128 85 149 q 95 68 93 97 q 94 11 97 39 q 95 -19 92 -6 q 101 -47 99 -32 q 100 -87 104 -64 q 93 -119 96 -111 q 92 -156 90 -136 q 88 -186 94 -175 q 82 -71 86 -129 q 72 36 78 -12 q 74 51 74 43 q 75 67 74 58 q 74 112 72 89 q 79 151 75 135 q 78 160 79 153 q 74 176 76 167 q 71 192 72 185 q 69 201 69 200 q 72 210 71 206 q 75 219 74 215 q 76 303 72 260 q 71 389 79 347 q 71 418 67 407 q 72 449 75 429 q 68 492 69 468 q 71 535 67 515 q 74 568 74 546 q 69 596 75 590 q 41 611 56 606 q 10 621 26 617 q -4 622 3 622 q -17 624 -11 621 q 0 627 -8 628 q 15 624 8 626 q 28 621 22 622 q 40 622 35 619 q 48 626 44 624 q 58 629 51 628 q 58 658 56 639 q 63 690 60 678 q 63 738 65 710 q 56 785 60 765 q 56 797 54 790 q 60 807 58 804 q 60 828 63 814 q 56 849 57 843 q 41 872 53 860 q 18 888 29 883 q 11 888 15 888 q 3 889 7 889 q -1 897 0 893 q -4 904 -1 901 q -18 912 -10 908 q -35 919 -26 915 q -49 928 -43 924 q -53 940 -54 933 z "},"G":{"ha":322,"x_min":0,"x_max":306,"o":"m 257 1150 q 257 1139 260 1147 q 249 1121 254 1131 q 239 1103 244 1111 q 232 1092 233 1094 q 215 1060 225 1082 q 196 1013 206 1039 q 181 963 186 988 q 181 922 176 938 q 187 911 182 915 q 194 900 192 907 q 199 887 199 893 q 201 872 199 881 l 219 854 q 241 813 231 833 q 263 771 251 792 q 269 765 265 768 q 276 760 274 763 q 285 732 283 749 q 293 704 286 715 q 298 698 294 701 q 303 689 301 694 q 305 656 304 675 q 304 617 306 638 q 300 578 303 597 q 293 544 297 558 q 281 515 286 529 q 271 485 276 500 q 268 488 271 485 q 283 583 283 536 q 260 668 283 631 q 247 680 256 676 q 232 690 238 683 q 226 705 225 699 q 226 716 226 711 q 222 725 226 721 q 203 735 218 729 q 206 758 203 746 q 206 776 208 769 q 193 791 200 788 q 177 796 186 794 q 158 797 168 797 q 138 801 147 797 q 129 818 133 810 q 122 833 125 826 l 117 833 q 113 829 114 831 q 111 826 113 828 q 114 806 115 814 q 109 790 113 797 q 101 776 106 783 q 93 756 96 768 q 79 696 86 724 q 64 636 72 668 q 64 613 64 625 q 63 590 64 601 q 58 570 60 579 q 54 551 57 561 q 57 531 54 544 q 57 512 57 521 q 56 493 57 503 q 89 407 71 444 q 89 389 89 397 q 88 372 89 381 q 103 334 94 353 q 119 296 113 315 q 130 265 126 281 q 140 236 133 250 q 156 220 147 224 q 176 210 165 217 q 187 197 182 203 q 196 185 192 192 q 222 183 206 181 q 244 188 239 185 q 251 211 246 200 q 258 236 256 222 q 251 262 260 253 q 246 285 243 271 q 250 306 249 299 q 251 317 251 313 q 247 326 250 321 q 240 342 244 331 q 240 354 238 349 q 244 365 242 360 q 249 376 247 369 q 249 390 250 382 q 238 418 246 403 q 225 444 229 433 q 215 464 222 450 q 199 493 207 478 q 188 523 192 508 q 188 543 183 538 q 200 507 190 524 q 222 475 210 490 q 245 444 233 460 q 264 411 257 428 q 274 362 274 388 q 276 314 274 336 q 286 264 281 289 q 294 211 292 239 q 295 180 296 199 q 297 147 294 161 q 290 130 293 144 q 284 97 286 115 q 280 61 282 79 q 274 35 278 43 q 263 -2 267 17 q 253 -40 260 -21 q 244 -60 250 -50 q 235 -76 238 -71 l 235 -92 q 225 -126 231 -108 q 213 -162 219 -143 q 200 -185 206 -174 q 189 -210 194 -197 q 181 -236 185 -218 q 172 -273 176 -254 q 164 -308 168 -292 q 156 -329 160 -324 q 160 -262 154 -293 q 173 -203 165 -232 q 190 -147 181 -175 q 204 -90 199 -119 q 211 -69 206 -82 q 221 -41 217 -56 q 227 -13 225 -26 q 225 7 229 0 q 231 26 226 11 q 238 59 235 42 q 244 92 242 76 q 243 114 246 108 q 235 126 239 124 q 226 131 231 129 q 217 133 222 132 q 207 138 213 133 q 183 160 194 149 q 158 183 171 172 q 147 190 153 186 q 135 196 142 193 q 117 217 125 207 q 99 239 108 228 q 94 263 93 251 q 89 286 96 275 q 74 322 82 304 q 57 356 65 339 q 48 391 50 375 q 38 422 46 407 q 32 426 35 425 q 26 431 29 428 q 26 444 26 438 q 24 458 25 451 q 14 478 19 468 q 6 500 8 488 q 1 546 0 521 q 5 597 1 571 q 14 647 8 622 q 24 693 19 672 q 31 753 31 724 q 43 806 31 783 q 68 849 54 828 q 94 892 82 871 q 108 922 101 907 q 122 953 115 938 q 191 1049 153 1001 q 257 1150 229 1096 z "},"H":{"ha":317,"x_min":-21,"x_max":350,"o":"m 99 1118 q 101 1103 101 1110 q 100 1090 101 1097 q 103 1053 103 1071 q 107 1015 104 1035 q 106 981 106 999 q 104 946 106 964 q 108 887 107 917 q 111 828 108 857 q 99 734 103 781 q 101 649 96 688 q 150 472 114 558 q 156 472 154 472 q 160 469 157 471 q 176 478 164 472 q 203 490 189 483 q 226 501 217 496 q 236 510 236 507 l 240 564 q 244 601 246 581 q 246 640 243 621 q 249 714 250 676 q 247 790 249 751 q 243 867 244 828 q 244 946 242 906 q 246 943 246 944 q 253 874 257 910 q 257 799 250 839 q 263 756 261 775 q 267 710 264 736 q 265 692 265 700 q 263 674 264 683 q 272 597 269 631 q 274 517 275 563 q 288 520 278 517 q 311 526 299 524 q 335 529 324 529 q 350 524 346 529 q 328 515 338 521 q 311 502 319 508 q 293 490 303 496 q 271 485 283 485 q 266 440 268 463 q 265 399 264 418 q 269 381 268 390 q 271 364 269 372 q 267 296 268 332 q 267 224 267 260 q 270 156 268 189 q 275 96 272 122 q 273 56 274 76 q 269 17 272 36 q 271 -51 276 -15 q 271 -128 265 -86 q 277 -285 281 -203 q 278 -456 274 -368 q 275 -454 276 -456 q 269 -412 272 -433 q 265 -368 267 -392 q 267 -346 267 -357 q 269 -324 268 -335 q 265 -298 267 -310 q 261 -271 264 -286 q 260 -231 257 -251 q 258 -194 264 -211 q 247 -97 247 -146 q 239 0 246 -47 q 240 44 236 19 q 242 88 244 69 q 236 173 238 131 q 228 251 235 215 q 230 267 229 260 q 232 282 231 275 q 235 322 235 299 q 234 367 236 344 q 227 411 232 390 q 214 446 222 432 q 183 431 199 439 q 156 413 167 424 q 156 397 157 410 q 155 367 156 383 q 152 338 154 351 q 149 319 150 324 q 142 310 146 314 q 135 300 138 306 q 133 267 133 283 q 129 235 132 250 q 124 222 128 228 q 121 207 119 215 q 126 106 128 154 q 122 10 124 57 q 126 -51 122 -19 q 133 -108 129 -83 q 133 -130 135 -117 q 130 -156 132 -143 q 126 -181 128 -169 q 122 -199 124 -193 q 120 -248 119 -217 q 119 -299 121 -279 l 118 -299 q 112 -187 113 -239 q 103 -74 111 -136 q 101 -14 100 -46 q 96 46 101 18 q 92 121 89 83 q 88 196 94 158 q 88 218 85 207 q 92 236 90 229 q 92 267 92 251 q 90 297 92 282 q 97 351 97 319 q 92 406 97 382 q 56 399 69 403 q 28 393 43 396 q 19 397 21 392 q 11 399 18 401 q 3 393 7 389 q -8 393 0 397 q -19 381 -11 389 q -21 382 -21 382 l -21 386 q -19 390 -19 389 q -17 394 -19 392 q 0 398 -6 397 q 13 410 6 399 q 24 405 19 407 q 35 407 28 403 q 43 416 36 411 q 58 425 50 421 q 76 433 67 429 q 89 439 85 438 q 85 517 90 483 q 69 590 79 551 q 68 622 68 606 q 67 653 68 638 q 64 668 65 660 q 61 685 63 676 q 63 713 64 696 q 63 744 61 729 q 75 796 65 768 q 89 849 85 824 q 88 878 89 864 q 88 908 88 893 q 93 1015 90 961 q 99 1118 96 1069 z "},"I":{"ha":82,"x_min":4,"x_max":69,"o":"m 38 878 q 49 853 47 869 q 51 817 51 836 q 50 778 51 797 q 51 744 49 758 l 56 719 q 49 681 53 704 q 51 639 44 658 q 57 627 53 635 q 64 614 61 619 q 63 588 63 601 q 63 563 63 575 q 68 546 65 551 q 60 513 65 531 q 53 482 54 496 q 54 465 51 472 q 60 449 57 457 q 67 435 64 442 q 68 419 69 428 q 63 403 67 410 q 56 388 60 396 q 51 372 53 381 q 51 351 49 364 q 60 319 54 336 q 64 286 67 301 q 58 275 63 281 q 51 264 54 269 q 50 231 50 247 q 49 199 50 214 q 58 78 57 142 q 54 -49 58 14 q 58 -59 57 -54 q 61 -71 58 -64 q 59 -99 60 -85 q 57 -126 58 -112 q 55 -169 54 -146 q 51 -217 56 -193 q 51 -254 51 -236 q 50 -290 50 -272 q 49 -289 49 -290 q 44 -251 44 -265 q 43 -214 43 -237 q 44 -197 43 -206 q 44 -179 44 -189 l 24 13 l 24 90 q 11 290 13 186 q 6 493 10 393 q 11 561 4 526 q 17 633 18 596 q 23 654 19 644 q 31 675 26 664 q 36 750 36 708 q 36 821 36 792 q 35 849 38 836 q 38 878 33 863 z "},"J":{"ha":204,"x_min":-194,"x_max":185,"o":"m 39 1000 q 43 978 46 993 q 43 954 40 964 q 51 919 49 939 q 54 875 53 899 q 57 828 56 851 q 63 783 58 804 q 63 759 63 771 q 65 735 64 747 q 67 672 72 706 q 68 608 61 639 q 75 581 71 594 q 82 553 79 567 q 89 542 85 547 q 96 531 93 536 q 97 512 99 524 q 93 494 94 500 q 89 453 89 475 q 92 411 89 431 q 106 355 94 386 q 124 296 117 324 q 126 269 128 281 q 126 242 124 257 q 145 204 131 219 q 167 169 160 189 q 172 147 169 158 q 176 124 174 135 q 182 107 179 115 q 182 92 185 99 q 167 83 172 90 q 159 65 163 75 q 153 45 156 56 q 144 28 150 35 q 138 22 142 24 q 132 13 135 19 q 125 -19 126 -6 q 117 -47 124 -32 q 94 -83 108 -65 q 74 -121 81 -101 q 55 -167 63 -144 q 36 -210 47 -190 q 24 -218 29 -214 q 14 -226 19 -222 q -3 -261 4 -243 q -24 -293 -11 -279 q -36 -301 -29 -299 q -49 -310 -43 -304 q -69 -331 -60 -319 q -89 -353 -78 -343 q -109 -371 -96 -360 q -138 -391 -122 -382 q -169 -406 -154 -400 q -194 -408 -185 -412 l -194 -404 q -158 -384 -178 -393 q -122 -362 -137 -375 q -88 -325 -101 -347 q -60 -282 -75 -303 q -51 -277 -56 -279 q -43 -272 -47 -275 q -27 -243 -33 -260 q -11 -212 -21 -226 q 8 -197 -1 -207 l 13 -176 q 25 -165 17 -174 q 33 -138 28 -158 q 40 -110 38 -118 q 43 -97 43 -103 q 46 -85 43 -92 q 65 -56 54 -71 q 83 -26 76 -42 q 97 28 94 -4 q 106 88 100 60 q 110 110 107 99 q 111 135 114 122 q 106 147 108 142 q 101 157 104 151 l 101 172 q 81 242 92 208 q 60 313 71 276 q 55 356 53 333 q 54 396 57 378 q 48 436 51 418 q 42 472 44 454 q 45 499 44 486 q 47 525 46 513 q 34 581 40 554 q 22 638 28 608 q 25 664 24 651 q 28 690 26 676 q 31 733 33 715 q 32 772 28 750 q 30 784 31 779 q 28 796 29 789 q 30 826 28 806 q 33 858 32 846 q 32 889 32 874 q 32 919 32 904 q 35 960 35 939 q 39 1000 36 981 z "},"K":{"ha":379,"x_min":13,"x_max":454,"o":"m 451 1146 l 454 1146 q 431 1097 447 1119 q 404 1050 415 1074 q 373 977 389 1014 q 336 908 357 940 q 324 882 328 897 q 311 856 321 867 q 293 838 304 849 q 276 817 282 826 l 272 796 q 267 793 269 793 q 261 789 264 793 q 258 771 258 779 q 256 751 258 763 q 251 743 254 746 q 244 736 247 740 q 242 726 243 731 q 240 714 242 721 q 226 697 236 703 q 213 679 215 690 q 214 671 211 674 q 218 665 217 668 q 217 646 219 663 q 214 626 214 629 q 206 626 207 626 q 201 631 204 626 q 191 618 194 624 q 176 610 188 613 q 175 578 175 594 q 173 548 175 563 q 166 521 171 533 q 151 503 161 508 q 159 488 151 493 q 171 476 167 483 q 207 431 186 451 q 247 389 228 410 q 263 377 254 382 q 279 364 272 372 l 271 318 q 267 256 267 292 q 261 190 268 221 q 263 169 258 179 q 268 153 267 160 q 269 93 271 131 q 261 28 267 56 l 261 10 q 258 -10 258 0 q 254 -32 257 -21 q 247 -47 251 -39 q 239 -61 242 -54 q 235 -81 236 -71 q 233 -100 235 -90 l 239 -100 q 228 -133 231 -114 q 219 -171 225 -153 q 202 -239 208 -204 q 185 -306 196 -274 q 183 -330 182 -315 q 179 -351 185 -344 l 179 -349 q 178 -335 179 -342 q 178 -322 178 -329 q 176 -302 176 -311 q 174 -282 175 -293 q 178 -275 176 -279 q 182 -268 179 -271 q 186 -244 188 -254 q 189 -221 185 -233 q 196 -203 192 -214 q 201 -185 200 -192 q 201 -171 203 -179 q 200 -158 199 -162 q 208 -142 204 -150 q 215 -125 213 -133 q 213 -115 217 -121 q 213 -103 210 -110 q 233 -28 225 -69 q 237 21 236 -4 q 240 69 238 46 q 242 94 243 85 q 238 114 240 104 q 237 150 233 133 q 235 188 240 167 q 217 242 225 217 l 221 267 q 211 278 214 274 q 208 299 207 289 q 213 317 210 308 q 203 322 207 319 q 197 331 199 324 q 203 339 201 333 q 201 350 203 346 l 181 371 q 146 386 163 381 q 114 403 129 392 q 105 419 106 410 q 92 429 104 429 q 83 422 86 426 q 74 413 81 417 q 71 393 72 403 q 67 374 69 383 q 70 350 69 363 q 72 326 71 338 q 64 282 68 301 q 53 239 60 263 q 53 223 53 235 q 56 198 54 211 q 59 172 57 185 q 61 156 61 160 l 61 76 q 69 -26 71 28 q 60 -131 67 -81 q 61 -185 57 -154 q 60 -235 65 -215 q 49 -106 53 -171 q 42 22 44 -42 q 34 147 39 86 q 21 265 29 208 q 24 301 18 285 q 25 340 29 318 q 21 388 21 365 q 22 442 21 410 q 24 458 24 450 q 24 475 24 467 q 20 497 22 481 q 21 524 18 513 q 28 572 24 544 q 29 622 32 600 q 23 651 26 638 q 15 681 19 665 q 15 733 13 700 q 22 789 18 765 q 19 824 21 807 q 15 861 18 842 q 18 915 19 890 q 14 971 17 940 q 17 998 14 983 q 19 1028 19 1013 l 24 1028 q 31 988 29 1008 q 38 946 33 968 q 38 913 40 933 q 39 875 36 893 q 48 786 46 831 q 50 694 50 742 q 55 670 50 683 q 63 646 60 657 q 62 637 63 642 q 61 628 61 632 q 64 589 64 610 q 64 550 64 568 q 68 533 67 542 q 72 515 69 524 q 77 513 76 514 q 79 514 78 511 q 111 551 97 526 q 136 604 125 575 q 158 663 147 633 q 181 713 168 692 q 188 721 183 717 q 196 732 193 725 q 202 747 199 739 q 208 764 206 756 q 224 783 215 772 q 240 803 233 793 q 245 815 243 810 q 250 828 247 821 l 275 849 q 295 881 288 864 q 313 914 303 897 q 319 922 315 918 q 326 928 324 925 q 340 956 335 939 q 353 988 346 974 q 378 1035 364 1011 q 404 1083 392 1060 q 428 1115 414 1101 q 451 1146 442 1128 z "},"L":{"ha":363,"x_min":-4,"x_max":353,"o":"m 32 1121 l 36 1121 q 28 1033 28 1082 q 33 933 28 985 q 33 877 36 906 q 36 814 29 849 q 46 767 40 790 q 50 715 51 743 q 49 665 47 688 q 50 622 50 643 q 49 576 51 600 q 44 529 47 551 q 45 466 40 501 q 53 403 50 431 q 52 394 54 397 q 50 386 50 390 q 51 371 50 379 q 53 354 51 363 q 50 348 51 351 q 47 342 49 344 q 48 323 47 332 q 50 304 49 314 q 46 260 46 281 q 47 239 43 250 q 51 218 51 228 q 50 195 53 208 q 49 171 47 182 l 53 171 l 53 178 l 57 178 q 58 169 57 171 q 63 165 60 168 q 67 166 65 165 q 71 167 68 167 q 72 159 71 163 q 72 151 72 156 q 79 149 76 150 q 86 149 82 149 q 92 155 86 150 q 106 165 99 160 q 118 176 113 171 q 125 181 124 181 q 144 178 133 176 q 167 182 156 179 q 188 188 178 185 q 206 194 199 192 q 220 190 213 192 q 235 185 228 188 q 249 183 242 182 q 268 182 257 185 q 293 165 281 178 q 317 138 306 153 q 337 106 328 122 q 353 79 346 90 l 351 78 q 349 80 350 79 q 346 83 347 81 l 308 125 q 297 128 303 128 q 285 131 292 128 q 281 135 282 133 q 278 139 281 136 q 252 142 268 142 q 226 139 236 142 q 197 140 211 138 q 171 139 183 142 q 126 122 147 133 q 86 99 106 110 q 65 90 75 94 q 46 83 56 86 q 31 68 38 79 q 19 45 24 57 q 8 24 14 33 q -4 14 3 15 q 7 108 4 58 q 19 206 10 158 q 16 237 17 221 q 14 269 15 253 q 16 379 18 328 q 7 490 14 431 q 8 517 6 503 q 12 548 10 532 q 15 578 14 564 q 15 604 17 593 q 11 635 13 622 q 10 667 10 647 q 13 692 8 678 q 14 721 17 707 q 6 796 8 756 q 10 867 3 836 q 8 916 8 892 q 7 965 8 940 q 21 1046 14 1007 q 32 1121 28 1085 z "},"M":{"ha":339,"x_min":10,"x_max":328,"o":"m 324 1122 q 328 1106 328 1118 q 326 1081 328 1094 q 323 1055 325 1067 q 321 1040 321 1043 q 317 1014 321 1026 q 311 988 314 1001 q 308 948 308 967 q 301 907 308 929 q 285 856 294 883 q 283 796 276 828 q 285 731 290 764 q 278 664 281 699 q 283 637 281 650 q 289 610 286 624 q 285 594 286 601 q 282 578 285 586 q 281 533 278 556 q 281 490 283 511 q 278 440 278 467 q 274 393 278 414 q 276 380 275 386 q 278 367 276 374 q 267 310 274 339 q 257 251 261 281 q 263 215 254 233 q 272 183 272 197 q 263 108 267 146 q 253 35 258 71 q 253 17 250 24 q 254 1 256 10 q 250 -58 250 -25 q 244 -115 250 -92 q 246 -132 246 -124 q 247 -149 246 -140 q 243 -256 243 -200 q 235 -362 243 -311 q 232 -385 233 -371 q 229 -415 231 -400 q 226 -440 228 -429 q 219 -453 224 -451 q 222 -395 221 -424 q 225 -337 224 -367 q 222 -223 221 -287 q 229 -100 222 -158 q 229 -78 229 -89 q 228 -56 229 -67 q 229 -3 231 -31 q 226 51 228 24 q 233 99 226 69 q 243 149 240 129 q 241 197 247 175 q 229 242 235 219 q 228 260 228 249 q 231 284 229 272 q 236 306 233 296 q 242 321 239 317 q 235 328 239 325 q 233 336 232 331 q 238 355 233 346 q 246 374 243 364 q 245 393 246 383 q 244 413 244 403 q 247 416 244 414 q 249 421 249 418 q 244 451 251 439 q 242 482 236 464 q 244 498 243 488 q 246 517 246 508 q 244 534 246 526 q 240 543 243 542 q 224 503 233 521 q 206 467 215 486 q 205 454 206 460 q 204 443 204 449 q 185 379 192 414 q 171 313 178 344 q 172 292 171 301 q 172 271 172 282 q 170 214 168 244 q 175 152 172 183 q 178 90 178 121 q 174 29 179 58 l 169 33 q 172 69 172 46 q 169 119 171 93 q 163 168 167 144 q 157 207 160 192 q 156 240 156 224 q 154 272 156 257 q 147 345 149 308 q 139 422 146 382 q 122 467 135 446 q 103 513 110 489 q 106 529 100 524 q 113 546 113 535 q 103 560 110 553 q 93 574 96 567 q 92 584 93 579 q 92 594 92 589 q 88 592 89 592 q 83 547 85 569 q 75 508 81 525 q 75 495 75 501 q 74 482 75 489 q 60 459 69 468 q 46 436 51 450 q 48 419 47 428 q 49 403 49 411 q 44 351 47 376 q 35 300 40 325 q 34 271 32 289 q 39 242 36 253 q 38 215 39 228 q 36 188 38 201 q 42 160 40 178 q 43 124 43 143 q 42 88 43 106 q 40 60 42 69 q 40 19 38 39 q 47 -19 43 0 q 44 -32 44 -28 q 45 -64 44 -47 q 46 -96 46 -81 q 51 -149 50 -119 q 44 -190 51 -178 q 37 -87 44 -140 q 24 13 29 -33 l 24 65 q 18 127 19 100 q 10 190 17 154 q 10 214 10 201 q 11 238 11 226 q 12 306 11 275 q 18 376 13 338 q 17 409 21 392 q 15 443 13 426 q 29 501 19 474 q 29 524 29 513 q 28 547 29 536 q 31 574 31 561 q 35 600 32 586 q 33 627 33 614 q 32 654 32 640 q 28 711 33 685 q 18 765 22 738 q 19 786 19 776 q 19 807 19 796 q 17 863 17 828 q 24 921 17 899 q 22 934 22 928 q 21 947 22 940 q 20 970 18 958 q 25 992 22 982 q 26 1010 28 1000 q 24 1030 25 1019 q 22 1049 22 1040 q 28 1064 22 1057 l 29 1064 q 31 1039 29 1049 q 35 1017 32 1029 l 35 946 q 47 928 42 936 q 58 910 51 919 q 64 893 61 901 q 69 876 67 885 q 78 848 72 869 q 90 803 85 826 q 99 759 96 779 q 100 735 103 739 q 121 683 113 713 q 139 628 129 653 q 154 572 149 600 q 163 518 160 543 q 163 483 165 503 q 168 453 161 464 l 169 454 q 171 468 168 461 q 176 481 174 475 q 179 521 174 497 q 192 569 185 544 q 208 618 200 594 q 221 657 217 642 q 231 701 228 678 q 235 749 233 725 q 241 795 238 772 q 251 839 244 818 q 272 888 260 863 q 292 938 283 913 q 297 966 294 953 q 301 993 299 979 q 315 1055 308 1021 q 324 1122 322 1089 z "},"N":{"ha":257,"x_min":8,"x_max":243,"o":"m 229 1132 q 236 1131 233 1132 q 235 1095 236 1111 q 236 1067 235 1079 q 239 1048 236 1056 q 239 1026 242 1040 q 236 998 238 1015 q 233 961 235 981 q 232 924 232 942 q 235 896 232 906 q 241 847 239 874 q 240 797 243 821 q 233 715 236 760 q 228 638 231 671 q 228 558 225 599 q 229 476 232 517 q 234 420 232 449 q 239 364 236 392 q 234 319 236 340 q 236 274 232 297 l 240 240 q 237 213 238 226 q 233 185 236 199 q 231 128 231 157 q 229 75 232 99 q 230 49 228 64 q 226 22 232 33 q 229 -14 229 7 q 227 -57 229 -35 q 222 -100 225 -79 q 215 -137 218 -121 q 217 -206 217 -172 q 218 -276 217 -240 q 217 -310 219 -292 q 213 -339 215 -328 q 214 -361 214 -350 q 215 -383 214 -372 q 212 -452 213 -418 q 208 -521 211 -486 q 206 -522 207 -521 q 204 -444 206 -485 q 196 -371 203 -403 q 195 -319 196 -344 q 194 -268 194 -294 q 188 -230 192 -253 q 186 -187 183 -207 q 190 -136 190 -165 q 192 -81 189 -107 q 197 -46 193 -62 q 203 -12 200 -29 q 199 13 200 0 q 196 38 199 25 q 197 60 194 47 q 196 86 199 74 q 201 148 193 114 q 200 215 208 182 q 194 245 197 228 q 185 278 190 263 q 178 291 182 285 q 172 304 175 297 q 172 321 171 313 q 168 336 172 329 q 151 348 161 346 q 133 365 140 350 q 131 382 131 374 q 134 398 132 390 q 138 413 136 406 q 135 426 139 419 q 119 449 128 438 q 104 472 111 461 q 101 492 101 479 q 99 513 101 504 l 89 522 q 76 568 81 546 q 53 604 72 590 l 51 604 q 48 596 50 599 q 46 589 46 593 q 49 570 47 579 q 51 551 50 561 q 52 538 51 547 q 53 519 53 529 q 53 501 53 510 q 53 489 53 493 q 46 437 49 465 q 47 382 43 408 q 52 355 50 368 q 57 326 54 342 q 54 288 56 306 q 51 254 53 271 q 52 232 51 243 q 53 210 53 221 q 44 161 50 188 q 38 114 39 135 q 42 97 40 106 q 46 82 43 89 q 47 19 49 53 q 39 -37 44 -15 q 41 -53 40 -44 q 42 -69 42 -61 q 38 -124 38 -93 q 40 -174 38 -154 q 40 -206 43 -185 q 32 -231 38 -228 q 30 -143 32 -182 q 21 -61 28 -104 q 24 -44 24 -53 q 28 -28 25 -36 q 24 14 25 -6 q 18 54 24 33 q 19 65 19 60 q 21 76 19 71 l 13 89 q 11 126 8 104 q 17 156 14 147 l 17 210 q 21 247 19 225 q 19 289 22 268 q 16 342 18 314 q 13 401 14 371 q 11 460 11 431 q 15 517 11 490 q 11 556 13 536 q 8 594 10 575 q 19 682 15 636 q 29 765 24 728 q 32 810 33 790 q 28 851 31 829 q 26 892 26 871 q 26 932 26 913 q 25 949 25 938 q 26 971 25 960 q 28 990 26 982 q 32 1000 29 999 l 32 999 q 35 983 36 990 q 36 965 33 976 q 42 906 39 935 q 47 846 44 876 q 63 778 56 813 q 81 711 71 743 q 108 643 94 676 q 136 575 122 610 q 162 505 151 539 q 194 443 172 471 q 197 444 196 443 q 196 617 194 526 q 210 797 197 708 l 210 865 q 225 997 221 931 q 229 1132 229 1064 z "},"O":{"ha":367,"x_min":-7,"x_max":358,"o":"m 350 432 q 356 401 358 417 q 334 350 351 374 q 303 304 317 326 q 297 288 300 296 q 290 274 293 281 q 282 267 288 267 q 271 263 276 267 q 267 256 267 260 q 265 249 267 251 q 249 235 260 243 q 234 214 240 222 q 221 199 228 206 q 203 187 214 192 q 175 178 193 182 q 158 173 167 176 q 139 172 150 169 q 119 185 128 175 q 103 208 110 196 q 89 233 96 221 q 75 254 82 246 q 61 268 69 261 q 49 282 53 275 q 30 340 35 306 q 15 406 25 374 q 7 424 11 415 q -3 443 3 433 q -1 476 -7 463 q 3 508 4 490 q 8 558 1 532 q 19 607 14 583 q 21 631 21 618 q 22 654 21 643 q 48 721 32 690 q 83 778 64 751 q 102 792 90 786 q 128 804 114 799 q 156 814 142 810 q 181 822 169 818 q 197 824 189 824 q 211 826 204 825 l 240 822 q 263 796 247 807 q 285 769 279 785 q 298 713 296 744 q 308 657 300 682 q 322 631 313 642 q 335 608 331 621 q 342 559 342 586 q 346 510 343 532 q 353 471 349 494 q 350 432 358 447 m 282 344 q 290 385 288 361 q 292 433 293 408 q 288 479 292 457 q 278 514 285 501 q 259 539 272 524 q 243 561 246 554 q 242 608 238 579 q 250 651 246 636 q 242 669 247 661 q 232 683 236 676 q 229 706 231 694 q 226 729 228 718 q 204 744 217 739 q 181 740 193 739 q 158 738 169 742 q 125 722 143 735 q 100 697 107 708 q 84 666 90 685 q 74 626 78 647 q 67 584 69 606 q 60 544 64 563 q 60 511 56 528 q 61 479 65 494 q 53 465 58 474 q 51 446 47 456 q 56 440 53 443 q 61 432 60 436 q 59 413 64 421 q 57 396 54 404 q 71 340 64 369 q 89 282 78 310 q 95 271 92 276 q 101 258 99 265 q 103 250 104 254 q 104 242 101 246 q 122 218 111 229 q 143 197 133 207 l 175 197 q 192 213 182 208 q 210 225 203 217 q 222 249 218 236 q 236 274 226 263 q 262 306 250 289 q 282 344 274 322 z "},"P":{"ha":354,"x_min":-46,"x_max":354,"o":"m 349 742 q 354 684 354 711 q 347 631 354 657 q 349 613 349 621 q 349 596 349 604 q 347 594 349 594 q 338 585 344 588 q 328 576 332 583 q 322 563 325 569 q 315 550 318 557 q 301 544 308 547 q 288 539 294 542 q 272 520 281 529 q 256 501 264 511 l 222 501 q 158 478 190 493 q 103 439 125 463 q 106 378 101 408 q 108 311 111 347 q 104 98 106 197 q 85 -108 103 -1 q 85 -162 82 -131 q 92 -210 89 -194 q 88 -242 94 -225 q 82 -274 81 -258 q 88 -319 85 -296 q 86 -362 92 -342 q 83 -360 85 -361 q 81 -358 82 -360 q 75 -315 78 -336 q 69 -274 72 -294 q 69 -221 65 -247 q 69 -171 74 -194 q 67 -147 68 -158 q 63 -122 65 -135 q 71 -57 65 -92 q 81 12 76 -22 q 85 78 85 46 q 76 136 85 110 q 78 161 78 149 q 79 186 79 174 q 76 228 76 207 q 77 272 76 250 q 77 317 78 294 q 72 364 76 340 q 69 389 69 376 q 68 415 69 401 l 64 411 q 8 346 26 388 q -25 257 -10 304 q -31 214 -31 239 q -43 178 -32 189 q -40 216 -46 197 q -32 251 -35 235 q -25 295 -28 275 q -19 333 -22 315 q -9 367 -15 350 q 8 400 -3 383 q 42 433 25 417 q 74 467 58 450 l 74 489 q 76 598 83 540 q 72 710 69 656 q 72 734 72 719 q 73 763 72 749 q 74 792 74 778 q 76 814 75 806 q 92 894 83 851 q 93 981 100 938 q 60 993 81 985 q 20 1013 40 1001 q -14 1036 0 1024 q -28 1060 -28 1049 q -5 1042 -15 1053 q 18 1024 6 1032 q 41 1019 29 1017 q 68 1017 53 1021 q 85 1010 79 1013 q 103 1014 92 1007 q 119 1003 111 1006 q 140 993 128 1000 q 167 976 151 988 q 192 958 182 965 q 211 951 201 956 q 231 944 221 947 q 283 910 254 929 q 328 869 313 892 q 331 848 333 863 q 333 822 329 833 q 344 803 336 813 q 351 782 351 794 l 349 742 l 349 742 m 144 517 q 183 530 160 522 q 230 548 207 538 q 271 571 253 558 q 293 599 289 583 q 292 612 292 606 q 290 625 292 618 q 289 668 288 647 q 282 710 290 689 q 265 753 275 732 q 246 797 254 775 q 256 812 251 806 q 260 832 260 818 q 247 849 253 840 q 236 867 242 857 q 227 872 232 869 q 218 878 222 875 q 213 900 215 892 q 193 913 207 907 q 171 921 179 918 q 152 915 164 915 q 133 911 140 914 q 124 872 128 900 q 119 813 121 844 q 117 751 117 781 q 121 706 118 721 q 119 692 119 699 q 117 679 118 686 q 116 644 114 661 q 119 614 118 626 q 124 558 122 588 q 144 517 126 529 z "},"Q":{"ha":411,"x_min":-3,"x_max":394,"o":"m 386 422 q 379 408 383 415 q 372 392 375 400 q 371 356 368 374 q 367 324 374 339 q 362 315 364 319 q 357 308 360 311 q 356 289 356 301 q 347 270 353 282 q 339 250 342 258 q 349 240 344 244 q 358 232 353 236 q 363 197 356 208 q 375 167 369 186 l 375 164 q 369 143 372 150 q 372 123 371 132 q 372 104 372 114 q 368 92 371 100 q 368 76 365 85 q 372 66 369 74 q 371 51 374 58 q 364 37 368 44 q 357 19 360 29 q 357 -15 353 3 q 357 -49 361 -33 q 340 -73 354 -57 q 319 -96 326 -89 q 310 -119 314 -107 q 300 -142 306 -131 q 273 -176 289 -161 q 247 -214 257 -190 q 226 -267 236 -239 q 208 -319 217 -294 q 203 -351 204 -333 q 192 -375 203 -368 q 201 -306 192 -342 q 223 -235 210 -269 q 251 -169 236 -200 q 279 -112 267 -137 q 295 -90 283 -104 q 310 -69 307 -76 q 310 -56 310 -62 q 311 -42 311 -49 q 321 -22 317 -28 l 321 17 q 328 103 326 57 q 319 190 331 150 q 308 210 317 201 q 297 229 300 218 q 219 227 260 219 q 150 257 178 235 q 127 285 139 272 q 104 314 115 299 q 88 325 96 319 q 72 336 81 331 q 67 351 69 343 q 63 365 65 358 q 47 391 54 378 q 31 417 39 404 q 28 440 29 428 q 24 464 26 451 q 16 481 21 472 q 8 497 11 490 q -1 543 1 517 q -1 597 -3 569 q 4 651 0 625 q 15 697 8 678 q 28 721 22 708 q 40 744 33 733 q 47 771 42 756 q 54 776 50 775 q 63 781 58 778 q 71 793 67 788 q 81 806 75 799 q 118 838 100 821 q 156 869 136 854 q 167 874 161 874 q 181 881 174 875 q 238 870 208 881 q 282 842 268 860 q 292 819 286 828 q 308 802 299 810 q 322 782 318 794 q 326 753 326 768 q 332 726 325 739 q 359 686 346 707 q 386 646 372 665 q 388 616 389 635 q 389 582 386 597 q 394 497 394 540 q 386 422 393 454 m 325 381 q 328 392 328 389 q 320 417 325 404 q 317 444 315 431 q 323 540 319 490 q 306 635 326 589 q 284 672 297 654 q 261 710 271 690 q 258 733 256 722 q 261 756 260 744 q 244 819 265 796 q 188 849 222 843 q 105 776 139 817 q 51 672 71 735 q 50 649 49 661 q 50 624 51 636 q 56 484 39 554 q 106 365 74 414 q 133 335 119 350 q 158 306 146 321 q 169 286 165 294 q 185 271 174 278 q 215 258 197 261 q 247 250 232 254 q 255 257 251 253 q 261 264 258 261 q 251 286 258 276 q 236 304 243 296 q 232 341 240 319 q 221 378 224 363 q 204 430 214 401 q 186 488 194 458 q 174 547 178 518 q 174 603 169 576 l 175 603 l 175 600 q 185 552 185 575 q 197 504 185 529 q 210 472 204 489 q 225 436 217 454 q 258 379 240 408 q 283 314 275 350 q 293 310 289 311 q 303 306 297 308 l 304 306 q 314 324 310 318 q 320 338 318 331 q 323 354 322 344 q 325 381 324 364 z "},"R":{"ha":289,"x_min":-121,"x_max":279,"o":"m 271 -14 q 272 -33 272 -21 q 272 -56 272 -44 q 274 -78 272 -68 q 279 -89 275 -87 q 259 -142 264 -108 q 247 -207 254 -175 l 247 -233 q 239 -247 243 -240 q 231 -261 235 -254 q 226 -285 226 -274 q 221 -308 226 -296 q 210 -327 218 -318 q 199 -349 201 -336 q 190 -419 190 -387 q 181 -487 189 -451 q 157 -585 168 -540 q 133 -679 146 -631 q 131 -678 132 -678 q 138 -611 133 -644 q 149 -544 143 -578 q 153 -485 154 -514 q 163 -437 151 -456 q 168 -397 165 -417 q 174 -356 171 -376 q 188 -306 183 -331 q 203 -254 193 -281 q 225 -178 215 -221 q 232 -99 235 -135 q 234 -65 231 -83 q 240 -36 238 -47 q 238 -25 239 -31 q 236 -14 238 -19 q 238 -3 238 -8 q 239 7 238 3 q 231 86 236 44 q 211 158 226 128 q 217 169 214 163 q 221 182 221 175 q 211 192 215 190 q 203 195 207 194 q 193 197 199 196 q 182 203 188 199 q 172 215 175 208 q 164 229 169 222 q 156 234 160 232 q 147 239 151 236 q 133 257 140 249 q 119 274 126 265 q 108 285 113 279 q 96 294 103 290 q 81 301 86 301 q 65 311 76 300 q 47 308 51 311 q 46 300 46 307 q 46 284 46 293 q 46 267 46 275 q 44 256 46 260 q 42 217 39 235 q 49 179 46 200 q 44 158 46 168 q 40 136 43 147 q 42 119 39 126 q 44 106 46 113 q 35 79 39 96 q 28 82 29 82 q 35 5 35 42 q 26 -79 35 -32 q 30 -121 24 -94 q 29 -167 36 -147 q 31 -170 32 -169 q 26 -174 29 -171 q 21 -171 26 -174 q 19 -160 19 -165 q 17 -149 18 -154 q 16 -110 17 -129 q 15 -71 15 -90 q 13 -51 13 -60 q 14 -31 14 -42 l 6 7 q 6 35 3 18 q 11 61 8 53 q 10 80 14 72 q 4 94 6 88 q 3 134 0 110 q 10 176 7 158 q 6 198 7 188 q 3 219 6 208 q 6 242 6 233 q 5 281 6 261 q 3 319 4 300 l 1 319 q -33 317 -15 314 q -68 326 -51 319 q -99 344 -85 333 q -121 363 -112 354 q -118 365 -118 365 q -114 365 -118 365 q -101 356 -107 361 q -89 346 -96 351 q -72 342 -85 344 q -44 340 -58 340 q -16 340 -29 339 q 1 344 -3 340 q 9 372 10 356 q 11 401 8 388 q 15 432 13 413 q 17 467 18 451 q 8 519 14 494 q 6 572 3 544 q 6 690 8 626 q -3 807 3 754 q 5 836 1 822 q 11 865 8 850 q 13 909 13 883 q 11 951 13 935 q 3 974 10 963 q -10 995 -3 985 q -24 1015 -18 1006 q -31 1033 -31 1025 q -4 1009 -19 1029 q 24 981 11 989 q 67 947 47 964 q 110 910 88 929 q 120 898 115 903 q 131 886 125 893 q 149 872 139 879 q 165 856 160 865 q 181 817 175 840 q 190 778 186 794 q 189 770 189 774 q 188 764 189 767 q 189 718 189 740 q 190 672 189 696 l 211 606 q 214 585 213 594 q 217 565 215 575 q 225 539 219 551 q 235 514 231 526 q 235 492 239 504 q 239 471 232 479 q 234 457 236 465 q 229 444 232 449 l 217 432 l 213 411 q 201 406 206 408 q 190 401 196 404 q 169 380 179 392 q 149 361 160 368 q 134 354 140 354 q 122 343 128 354 q 147 319 135 332 q 171 296 158 307 q 206 265 188 281 q 238 233 224 250 q 259 194 251 215 q 263 143 267 172 q 262 92 260 115 q 269 46 264 68 q 270 16 269 31 q 271 -14 271 1 m 160 639 l 160 638 l 160 639 m 158 646 l 158 644 l 158 646 m 46 364 q 82 364 68 358 q 106 380 96 369 q 124 403 115 390 q 146 426 133 417 q 170 443 158 436 q 193 461 182 450 q 190 519 192 489 q 178 581 189 550 q 162 608 172 596 q 147 638 151 621 q 145 657 146 647 q 144 676 144 667 q 138 684 142 681 q 131 692 133 688 q 126 717 126 703 q 126 745 125 731 q 126 772 126 760 q 121 792 125 785 q 106 807 115 801 q 90 821 97 813 q 76 840 79 832 q 57 854 72 847 q 39 828 43 843 q 36 797 35 814 q 41 763 38 781 q 47 728 44 744 q 47 710 47 722 q 46 685 47 699 q 43 659 44 672 q 40 638 42 646 q 41 617 40 626 q 42 596 42 607 q 40 581 42 590 q 39 565 38 572 q 43 510 42 539 q 49 458 44 482 q 48 435 50 447 q 44 410 46 422 q 41 385 42 397 q 46 364 40 374 z "},"S":{"ha":351,"x_min":-100,"x_max":339,"o":"m 99 928 q 165 913 126 922 q 226 888 203 903 q 241 859 238 879 q 251 825 244 839 q 263 812 258 818 q 275 799 268 806 q 301 753 289 775 q 328 708 314 731 q 337 666 335 692 q 335 614 339 640 q 322 566 331 588 q 296 538 313 544 q 304 553 300 544 q 314 569 308 561 q 315 601 321 586 q 307 629 310 615 q 307 649 304 642 q 307 663 310 656 q 298 685 306 671 q 280 715 290 700 q 260 744 269 731 q 246 764 250 758 q 222 776 238 774 q 197 790 206 779 q 188 809 190 797 q 179 828 186 821 q 164 831 171 826 q 151 839 157 835 q 138 845 144 843 q 122 842 132 847 q 115 819 119 826 q 106 808 111 813 q 97 801 101 804 q 89 789 92 797 l 89 754 q 76 705 82 726 q 69 663 71 683 q 72 622 68 643 q 88 576 76 601 q 99 549 94 564 q 110 521 103 533 q 125 504 114 514 q 150 485 136 494 q 177 467 164 475 q 199 456 190 460 q 210 454 203 454 q 226 454 218 454 q 240 453 233 454 q 249 447 246 451 q 264 417 261 439 q 271 378 267 396 q 278 364 274 371 q 285 350 282 357 q 301 273 299 317 q 294 193 303 229 q 292 176 293 185 q 289 158 290 168 q 281 151 285 156 q 271 144 276 147 q 258 119 263 136 q 249 93 253 103 q 246 78 247 86 q 243 64 244 71 q 226 28 238 44 q 208 -6 215 11 q 203 -22 204 -15 q 197 -35 203 -28 l 172 -51 q 164 -62 168 -57 q 154 -74 160 -68 q 138 -86 147 -81 q 122 -99 129 -92 q 102 -122 111 -110 q 82 -146 93 -133 q 75 -149 79 -149 q 68 -153 71 -150 q 62 -162 65 -158 q 56 -172 58 -167 q 33 -183 46 -179 q 13 -196 21 -186 q -49 -276 -24 -232 q -99 -367 -75 -321 l -100 -367 q -58 -262 -85 -307 q 1 -176 -31 -217 q 33 -149 15 -161 q 64 -122 50 -137 q 82 -99 74 -111 q 100 -76 90 -87 q 133 -49 117 -64 q 163 -18 150 -35 q 193 40 183 8 q 214 103 203 71 q 239 156 224 132 q 261 210 254 181 q 260 288 271 253 q 230 353 250 324 q 184 405 210 382 q 136 444 158 428 q 120 453 129 451 q 104 460 111 454 q 92 476 97 468 q 81 492 88 485 q 65 501 74 499 q 49 511 56 504 q 38 531 39 519 q 31 554 36 543 q 24 564 28 560 q 18 574 21 568 q 17 588 17 581 q 15 604 17 596 q 12 624 13 614 q 8 643 11 633 q 17 708 13 674 q 31 775 21 743 q 35 802 33 789 q 39 831 36 815 q 50 851 43 839 q 65 875 57 863 q 77 900 72 888 q 82 922 82 913 q 99 928 93 925 z "},"T":{"ha":322,"x_min":-107,"x_max":400,"o":"m 168 917 q 194 915 181 915 q 218 910 207 914 q 234 910 226 910 q 250 913 242 911 q 306 896 272 904 q 364 876 340 888 q 382 867 374 874 q 400 856 390 860 l 400 851 q 398 851 399 851 q 396 850 397 850 q 329 871 367 868 q 254 869 292 874 q 235 872 244 868 q 217 880 226 876 q 199 883 208 883 q 181 874 190 883 q 182 864 182 868 q 183 856 182 860 q 177 843 182 849 q 169 829 172 838 q 172 813 171 821 q 174 794 172 804 q 169 781 172 788 q 164 768 165 774 q 162 753 161 761 q 161 739 163 744 q 163 724 160 732 q 168 711 165 717 q 166 692 171 701 q 161 675 161 683 l 161 593 q 164 581 163 586 q 164 567 165 576 q 158 512 160 543 q 158 457 157 481 l 154 407 q 158 351 157 379 q 161 294 160 322 q 159 269 160 282 q 157 243 158 257 q 158 219 157 232 q 160 196 158 207 q 156 181 157 189 q 153 167 154 174 q 158 134 150 149 q 164 100 167 119 q 163 87 163 97 q 161 69 164 76 q 165 56 163 67 q 164 39 167 46 q 161 20 163 29 q 157 1 160 11 q 163 -97 164 -49 q 168 -194 161 -146 q 171 -213 169 -201 q 173 -237 172 -225 q 174 -258 174 -249 q 172 -269 174 -268 q 168 -240 172 -254 q 161 -215 164 -226 l 161 -193 q 152 -147 157 -171 q 143 -104 147 -124 q 138 -53 140 -78 q 133 -3 136 -28 q 135 24 135 11 q 136 49 135 36 l 128 86 q 128 178 124 132 q 139 267 132 224 q 136 302 138 285 q 133 338 135 319 q 132 389 131 361 q 131 440 133 417 q 132 476 132 458 q 133 513 132 494 q 132 575 132 544 q 132 638 132 606 q 130 658 131 649 q 128 678 129 667 l 119 703 q 119 725 118 714 q 117 746 119 736 q 110 761 114 753 q 103 776 106 769 q 103 788 100 783 q 108 797 107 793 q 108 831 113 817 q 94 858 104 846 q 72 867 88 868 q 40 863 56 865 q -11 858 18 858 q -60 861 -40 857 q -84 857 -69 863 q -107 860 -99 851 q -106 863 -107 861 q -89 865 -94 863 q -76 869 -83 867 l -46 869 q 17 883 -17 876 q 79 897 51 890 q 101 902 88 900 q 128 906 115 904 q 153 910 142 908 q 168 917 164 913 z "},"U":{"ha":293,"x_min":3,"x_max":289,"o":"m 269 1047 q 274 1035 274 1043 q 273 1018 274 1028 q 271 999 272 1008 q 271 983 269 989 q 267 926 274 957 q 267 863 261 894 q 270 807 271 833 q 265 753 269 781 q 266 728 265 740 q 268 703 267 715 q 261 627 261 661 q 254 554 261 593 q 252 509 250 535 q 258 457 254 483 q 267 406 263 431 q 275 364 272 382 q 266 327 271 344 q 256 292 261 310 q 251 257 250 274 q 256 225 253 240 q 253 206 254 215 q 251 189 253 197 q 267 156 258 171 q 289 131 275 140 q 288 110 289 119 q 286 89 288 100 q 278 47 279 65 q 274 15 278 29 q 260 -12 269 0 q 228 -37 250 -25 q 199 -36 218 -35 q 169 -31 181 -37 q 149 -15 160 -24 q 128 6 138 -6 q 115 29 119 17 q 115 56 111 42 q 110 62 114 60 q 104 67 107 64 q 94 101 99 83 q 83 135 89 118 q 69 165 76 149 q 57 196 61 182 q 51 221 54 208 q 46 246 49 233 q 27 292 38 267 q 10 343 17 317 q 7 376 6 360 q 4 408 8 393 q 6 427 6 418 q 6 446 6 436 q 8 506 3 478 q 21 563 13 535 q 23 586 24 574 q 20 611 22 599 q 17 638 18 624 q 18 665 15 651 q 22 734 24 697 q 15 803 21 771 q 16 831 13 818 q 15 857 19 843 q 21 854 18 854 q 40 758 32 806 q 60 667 49 710 q 62 621 61 643 q 65 575 63 599 q 61 550 68 563 q 51 526 54 538 q 49 510 50 522 q 47 492 47 499 q 50 479 49 485 q 53 468 51 474 q 47 439 50 457 q 49 404 44 421 q 56 377 51 390 q 63 350 60 364 q 75 328 67 339 q 89 308 83 318 q 93 276 96 293 q 97 242 90 260 q 106 228 101 235 q 117 214 111 221 q 122 197 119 206 q 126 182 124 189 q 137 166 131 174 q 147 151 143 158 q 149 140 149 144 q 150 129 150 135 q 163 95 156 114 q 181 63 169 76 q 209 73 199 61 q 217 103 219 85 q 212 124 214 114 q 207 144 210 135 q 206 217 199 181 q 219 286 213 254 q 226 366 229 324 q 228 444 224 408 q 222 466 229 454 q 218 490 215 478 q 218 518 221 504 q 218 546 215 532 q 228 635 225 589 q 233 728 231 682 q 239 816 235 774 q 253 893 243 858 q 250 911 253 900 q 260 949 257 931 q 267 988 264 968 q 265 1017 269 1000 q 269 1047 260 1033 z "},"V":{"ha":279,"x_min":-17,"x_max":281,"o":"m -17 1108 q -6 1078 -6 1100 q -4 1040 -7 1057 q 3 1011 -1 1029 q 11 978 8 993 q 16 917 18 946 q 22 861 14 888 q 38 783 33 825 q 46 700 42 740 q 45 672 47 685 q 46 644 43 660 q 53 594 50 622 q 64 544 57 565 q 76 508 71 525 q 88 471 81 490 q 88 451 90 464 q 82 432 85 439 l 82 357 q 95 307 89 332 q 108 258 101 282 q 117 243 111 250 q 125 226 122 236 q 126 181 131 207 q 124 138 121 154 q 126 139 125 138 q 127 150 128 143 q 129 164 126 157 q 139 176 132 172 q 149 186 146 179 q 156 228 154 206 q 163 272 157 251 q 164 286 164 275 q 164 310 164 297 q 164 335 164 322 q 165 356 164 349 q 203 541 189 450 q 236 724 217 632 q 238 744 238 735 q 239 765 238 754 q 258 840 250 800 q 274 913 265 881 q 275 937 275 919 q 279 963 275 954 q 280 960 279 961 q 281 958 281 960 q 271 872 271 914 q 264 786 271 831 q 252 692 257 739 q 239 601 247 646 q 238 560 235 579 q 235 518 240 542 q 207 372 219 447 q 194 228 194 296 q 190 210 194 218 q 182 193 185 201 q 180 167 181 181 q 176 139 179 154 q 170 123 174 132 q 165 107 167 114 q 165 78 165 92 q 164 50 164 65 q 140 -76 146 -10 q 128 -203 135 -142 q 126 -237 126 -221 q 125 -271 126 -254 q 134 -315 128 -290 q 138 -358 140 -339 q 131 -390 135 -375 q 122 -421 126 -406 q 124 -436 124 -426 q 119 -491 119 -465 q 121 -549 119 -517 q 117 -547 118 -549 q 115 -519 117 -531 q 110 -492 113 -507 q 108 -455 107 -478 q 111 -421 110 -432 q 113 -386 114 -406 q 110 -347 113 -367 q 103 -310 107 -328 q 94 -283 99 -293 q 93 -251 90 -272 q 96 -224 96 -231 l 96 -137 q 88 -93 92 -115 q 82 -49 85 -71 q 82 -1 82 -25 q 81 46 82 22 q 67 140 76 94 q 50 226 57 186 q 43 285 44 257 q 35 338 42 314 l 35 375 q 35 439 32 408 q 33 507 39 469 q 21 584 28 543 q 7 663 14 625 q 9 699 8 682 q 10 735 10 717 q 7 769 8 753 q 4 804 6 786 q 8 826 6 815 q 10 850 11 838 q -3 981 3 911 q -17 1108 -10 1051 z "},"W":{"ha":464,"x_min":-22,"x_max":479,"o":"m 472 1175 q 474 1131 479 1156 q 471 1086 469 1106 q 469 1034 472 1058 q 464 988 467 1010 q 465 962 464 975 q 465 936 465 949 q 464 908 467 929 q 460 878 461 888 q 456 864 457 871 q 453 850 456 857 q 452 820 453 835 q 451 790 451 806 q 446 769 449 782 q 444 744 443 757 q 447 699 447 724 q 442 651 446 675 q 435 604 439 626 q 425 565 431 582 q 423 544 424 554 q 419 522 422 533 q 415 509 417 515 q 410 496 413 503 q 398 436 403 465 q 388 378 393 407 q 385 353 386 365 q 385 329 385 342 q 378 308 382 319 q 375 285 375 296 l 375 229 q 356 125 360 178 q 346 14 353 72 q 345 -11 346 1 q 344 -37 344 -24 q 333 -133 335 -81 q 333 -231 331 -186 q 333 -256 335 -242 q 332 -282 331 -271 q 327 -336 335 -306 q 321 -392 319 -367 q 318 -390 318 -390 q 324 -316 324 -356 q 323 -236 325 -276 q 316 -158 321 -196 q 304 -87 311 -119 q 306 -74 306 -81 q 308 -60 307 -67 q 305 -28 306 -43 q 300 7 304 -12 q 295 32 297 19 q 289 56 293 44 q 284 65 286 60 q 279 74 282 69 q 280 98 278 85 q 283 122 282 111 q 284 155 286 133 q 279 188 282 176 q 269 219 276 206 q 257 249 263 233 q 243 307 247 279 q 228 364 239 335 q 218 345 221 360 q 218 318 215 331 q 219 291 219 308 q 216 253 218 274 q 211 215 214 233 q 206 188 208 197 q 192 119 196 154 q 181 42 189 83 q 172 15 176 28 q 165 -14 168 1 q 153 -78 156 -46 q 146 -142 150 -110 q 147 -175 143 -160 q 151 -206 151 -190 q 155 -315 151 -260 q 161 -412 158 -369 l 161 -411 q 153 -378 153 -400 q 150 -339 153 -357 q 144 -297 147 -319 q 138 -256 140 -275 q 138 -222 135 -237 q 138 -189 142 -207 q 132 -147 132 -169 q 128 -100 132 -125 q 108 66 113 -14 q 92 225 104 146 q 70 353 81 292 q 47 482 60 415 q 46 522 42 504 q 47 558 50 539 q 35 595 43 578 q 31 632 28 613 q 28 673 33 654 q 19 707 24 692 q 12 746 14 726 q 7 782 10 765 q 2 832 4 807 q -3 882 0 857 q -9 907 -6 890 q -16 942 -12 924 q -21 978 -19 961 q -19 1001 -22 994 q -18 1000 -19 1000 q -11 947 -17 972 q 1 897 -6 921 q 3 884 1 894 q 7 863 4 874 l 13 832 q 24 799 19 817 q 33 767 28 782 q 38 742 36 754 q 42 715 39 729 q 63 638 54 678 q 81 558 71 599 q 78 534 79 546 q 78 510 78 522 q 84 475 81 490 q 90 444 88 460 q 92 419 93 433 q 93 396 90 404 q 98 366 97 381 q 103 335 99 351 q 110 315 106 324 q 117 299 114 306 q 121 279 119 289 q 125 260 122 269 q 131 223 131 243 q 144 196 132 203 l 146 196 q 156 232 146 221 q 172 258 165 243 q 173 277 172 268 q 175 296 174 286 q 181 310 178 303 q 188 324 185 317 q 188 344 190 332 q 181 369 185 356 q 176 395 178 382 q 178 421 174 408 q 185 444 181 432 q 192 467 189 456 q 195 485 194 476 q 197 503 196 493 l 214 544 l 218 586 q 225 599 221 593 q 232 613 229 606 q 236 635 235 619 q 240 658 238 651 q 246 699 244 676 q 247 747 247 722 q 247 794 247 771 q 249 838 246 817 l 250 838 q 251 812 250 826 q 255 781 253 797 q 257 751 257 765 q 256 726 257 736 q 253 701 254 717 q 251 669 251 686 q 251 636 250 653 q 253 610 251 619 q 253 581 256 599 q 253 547 250 563 q 256 494 256 524 q 263 442 256 465 q 270 404 267 422 q 276 367 274 386 q 281 309 279 338 q 285 251 282 281 q 290 228 285 238 q 297 208 294 219 q 298 176 301 194 q 297 146 294 157 q 308 122 300 135 q 319 99 315 110 l 322 99 q 326 144 326 122 q 332 193 326 165 q 343 242 336 215 q 343 294 350 269 q 347 306 344 300 q 353 318 350 313 q 356 351 354 335 q 360 383 357 367 q 368 428 364 406 q 376 474 372 450 q 399 555 388 511 q 418 642 411 599 l 422 767 q 433 846 428 807 q 444 924 438 885 l 444 989 q 453 1031 449 1010 q 464 1072 458 1051 q 468 1123 467 1097 q 472 1175 469 1149 z "},"X":{"ha":301,"x_min":-147,"x_max":353,"o":"m 26 1231 q 38 1186 33 1208 q 49 1140 43 1164 q 76 1087 61 1113 q 99 1028 90 1061 q 116 944 110 986 q 135 867 122 903 q 136 849 136 857 q 138 832 136 840 q 167 766 147 801 q 193 700 186 731 q 194 701 193 701 q 194 703 194 701 q 209 741 206 718 q 221 783 213 764 q 244 835 232 807 q 263 886 256 863 q 267 920 268 906 q 271 951 265 935 q 283 993 278 975 q 292 1035 289 1011 q 283 965 292 1003 q 282 900 275 928 q 268 845 276 879 q 263 789 260 811 q 258 773 263 785 q 250 749 254 761 q 242 724 246 736 q 242 708 239 713 q 219 647 231 683 q 213 583 207 610 q 219 544 215 564 q 226 506 222 525 l 226 465 q 237 426 232 446 q 247 388 242 407 q 247 356 250 372 q 246 325 243 339 q 251 315 249 319 q 257 306 254 311 q 264 276 260 290 q 271 246 268 261 q 269 233 269 239 q 268 219 269 226 q 273 191 268 207 q 279 161 278 175 q 276 139 281 151 q 275 114 272 126 q 292 1 285 63 q 293 -104 300 -60 q 295 -127 292 -115 q 301 -149 299 -139 q 300 -158 301 -151 q 300 -168 299 -164 q 310 -234 306 -203 q 322 -300 315 -265 q 330 -322 325 -310 q 333 -343 335 -335 q 336 -362 332 -350 q 344 -389 340 -375 q 351 -416 349 -403 q 347 -436 353 -429 l 346 -436 q 317 -318 336 -376 q 283 -200 297 -260 q 281 -166 282 -183 q 276 -132 279 -149 q 278 -127 278 -129 q 281 -122 279 -125 q 278 -108 281 -118 q 274 -85 276 -97 q 270 -63 272 -74 q 267 -49 268 -53 q 264 -8 265 -28 q 260 32 263 13 q 258 49 260 38 q 253 75 257 61 q 247 101 250 89 q 243 119 244 113 q 241 141 242 131 q 240 163 240 151 q 231 206 236 183 q 221 250 226 228 q 206 330 214 290 q 192 410 199 369 q 187 453 188 428 q 175 490 186 479 q 162 432 174 461 q 142 379 150 403 q 122 316 129 347 q 104 251 114 285 l 83 197 q -6 -76 43 54 q -107 -344 -54 -206 q -119 -404 -117 -371 q -124 -465 -121 -437 q -134 -506 -129 -486 q -144 -546 -139 -526 l -147 -546 q -141 -510 -146 -526 q -133 -479 -136 -494 q -133 -461 -131 -471 q -135 -444 -135 -451 q -124 -359 -131 -406 q -104 -274 -118 -312 q -61 -167 -85 -221 q -22 -57 -37 -114 q 13 60 -7 1 q 47 178 32 119 q 64 249 57 215 q 83 319 71 283 q 113 406 99 361 q 139 494 128 450 q 139 522 139 508 q 140 547 139 535 q 145 561 143 554 q 150 575 147 568 q 148 610 156 594 q 138 638 140 626 q 127 688 129 661 q 117 738 125 714 q 103 774 110 757 q 101 811 100 793 q 99 850 101 829 q 89 892 94 868 q 78 940 83 915 q 70 988 74 964 q 68 1033 67 1013 q 61 1056 68 1044 q 51 1078 54 1068 q 47 1097 47 1089 q 47 1111 47 1104 q 43 1122 44 1117 q 39 1133 42 1128 q 34 1152 36 1139 q 30 1181 32 1165 q 27 1210 28 1196 q 26 1231 26 1224 z "},"Y":{"ha":321,"x_min":-8,"x_max":322,"o":"m -8 1035 q 7 1001 3 1021 q 18 961 11 981 q 33 928 25 944 q 47 894 40 911 q 56 858 51 876 q 65 821 60 840 q 87 756 76 786 q 113 693 97 725 q 130 658 121 674 q 146 622 139 642 q 150 597 151 608 q 156 572 149 586 q 167 560 160 564 q 179 549 175 557 q 184 532 183 539 q 187 519 185 525 q 193 509 189 514 q 208 500 197 504 q 210 501 210 500 q 211 501 210 501 q 226 559 218 528 q 243 618 233 590 q 244 630 244 625 q 244 642 244 635 q 249 658 247 650 q 253 674 250 665 q 253 694 253 685 q 254 713 254 703 q 263 742 258 728 q 272 771 268 756 q 273 784 272 778 q 274 797 274 790 q 291 853 282 825 q 307 904 300 881 q 313 934 310 919 q 321 964 317 949 q 322 961 321 963 q 318 942 318 950 q 318 925 318 933 l 301 833 q 299 800 299 821 q 294 767 300 779 q 284 733 289 751 q 276 699 279 715 q 272 656 272 679 q 268 613 272 632 q 240 477 253 542 q 213 342 226 413 q 213 326 213 333 q 214 311 214 318 q 213 301 213 306 q 211 290 213 296 q 215 268 214 279 q 217 243 215 257 q 219 226 219 235 q 213 185 215 210 q 211 134 211 161 q 213 82 211 107 q 219 39 215 57 q 217 6 222 24 q 210 -26 213 -11 q 207 -61 204 -47 q 204 -96 210 -75 q 203 -124 200 -111 q 204 -156 207 -137 q 206 -172 203 -162 q 206 -194 208 -182 q 201 -244 201 -218 q 206 -290 201 -269 q 216 -344 213 -315 q 214 -392 219 -372 q 215 -426 210 -407 q 213 -454 221 -446 q 212 -378 214 -415 q 206 -310 210 -340 q 199 -290 203 -300 q 193 -268 196 -279 q 192 -251 193 -260 q 192 -233 192 -242 q 186 -216 189 -225 q 186 -196 183 -207 q 188 -174 186 -193 q 189 -150 190 -156 q 183 -118 186 -139 q 183 -83 181 -97 q 192 35 190 -29 q 178 163 193 100 q 178 197 178 181 q 179 231 179 214 q 170 269 176 250 q 161 304 164 288 q 161 326 158 315 q 165 343 164 336 q 167 385 169 358 q 161 428 165 413 q 135 510 150 469 q 106 592 121 550 q 101 602 103 597 q 96 613 99 607 q 83 667 90 639 q 67 719 75 696 l 58 765 q 42 830 49 799 q 25 896 36 861 q 22 913 24 904 q 19 931 21 922 q 4 983 13 957 q -8 1035 -4 1008 z "},"Z":{"ha":421,"x_min":-75,"x_max":514,"o":"m 511 1175 q 510 1160 514 1169 q 501 1138 507 1150 q 488 1117 494 1126 q 479 1101 482 1107 q 445 1045 464 1072 q 411 990 426 1018 q 386 938 396 965 q 361 888 376 911 q 342 838 346 865 q 326 785 338 810 q 304 740 315 761 q 282 697 293 719 q 277 676 279 686 q 272 654 275 665 q 208 546 240 600 q 147 433 175 492 q 140 406 143 419 q 133 376 138 392 q 107 306 121 340 q 82 232 93 272 q 81 205 79 218 q 79 181 83 192 q 69 140 74 161 q 65 96 64 119 q 97 83 83 92 q 125 67 110 75 q 143 49 135 61 q 163 35 151 38 q 204 30 182 31 q 243 18 226 29 q 253 6 250 14 q 261 -8 256 -1 q 270 -14 265 -11 q 281 -19 275 -17 l 297 -40 q 350 -96 325 -68 q 403 -151 375 -124 q 416 -178 410 -165 q 429 -203 422 -190 q 447 -227 438 -215 q 460 -254 457 -239 q 458 -256 458 -256 q 454 -253 457 -256 q 447 -237 453 -247 q 432 -216 440 -226 q 416 -196 424 -206 q 404 -181 408 -186 q 393 -171 399 -175 q 382 -162 388 -167 q 358 -131 369 -147 q 333 -99 347 -114 q 322 -92 329 -93 q 308 -87 315 -90 q 294 -76 301 -85 q 281 -64 288 -68 q 272 -53 276 -58 q 264 -42 268 -47 q 217 -20 244 -26 q 167 -6 190 -14 q 78 30 122 13 q -7 61 35 47 q -2 83 -7 75 q 7 100 3 90 q 11 114 11 107 q 14 128 11 121 q 31 167 21 146 q 46 208 40 189 q 48 225 47 217 q 49 242 49 233 q 77 317 64 276 q 103 392 90 357 l 115 446 q 129 471 122 458 q 143 496 136 483 q 161 540 151 519 q 170 553 165 547 q 179 567 175 560 q 180 585 183 576 q 181 604 176 593 q 195 622 188 613 q 210 639 203 631 l 218 676 q 232 696 224 685 q 235 734 233 715 q 239 772 236 753 q 260 808 250 790 q 281 842 269 825 q 294 904 292 871 q 296 971 296 938 q 292 972 292 972 q 290 974 293 971 q 254 965 275 972 q 214 961 233 957 q 195 965 204 964 q 175 969 186 967 q 164 977 169 972 q 151 985 158 982 q 115 987 132 992 q 81 988 99 982 q 66 993 75 990 q 50 999 57 996 q 37 997 43 997 q 24 997 31 997 q 8 1005 15 1000 q -7 1013 0 1010 q -17 1011 -12 1011 q -26 1011 -22 1011 q -48 1017 -37 1014 q -71 1024 -58 1021 q -73 1026 -72 1025 q -75 1029 -74 1028 q -28 1026 -53 1031 q 22 1019 -3 1022 q 39 1025 33 1022 q 63 1023 50 1024 q 86 1022 75 1022 q 106 1025 97 1024 q 126 1028 115 1026 q 146 1023 136 1025 q 165 1018 156 1021 q 174 1022 169 1021 q 182 1025 178 1022 q 193 1023 190 1028 q 204 1019 196 1018 q 234 1029 219 1022 q 264 1039 249 1036 q 316 1046 292 1043 q 364 1053 340 1049 q 381 1060 375 1054 q 394 1068 388 1065 q 462 1113 435 1088 q 511 1175 489 1139 z "},"a":{"ha":300,"x_min":-53,"x_max":365,"o":"m 358 -540 q 364 -610 363 -571 q 363 -679 365 -649 l 361 -679 q 355 -603 360 -643 q 347 -528 350 -564 q 347 -492 346 -510 q 340 -454 347 -474 q 326 -410 333 -435 q 315 -365 319 -385 q 297 -280 306 -325 q 278 -199 289 -235 q 277 -182 278 -190 q 276 -165 276 -174 q 256 -67 261 -118 q 242 35 250 -17 q 228 76 235 56 q 215 118 222 97 q 216 141 215 129 q 218 165 217 153 q 206 197 214 183 q 194 232 197 210 q 198 249 197 240 q 200 265 199 257 q 199 284 199 275 q 197 304 199 293 q 199 313 199 308 q 201 322 200 318 q 197 345 199 333 q 192 368 194 357 q 196 415 188 393 q 201 453 204 436 q 188 475 194 465 q 187 494 188 485 q 185 513 186 503 q 183 514 183 513 q 179 513 182 513 q 137 488 160 494 q 90 475 114 482 q 83 474 88 475 q 72 471 78 472 q 63 468 67 469 q 60 465 58 467 q 58 438 58 451 q 54 411 57 425 q 51 367 50 388 q 50 322 53 346 q 44 303 47 313 q 39 282 42 293 q 38 244 38 263 q 38 206 38 225 q 35 105 31 161 q 39 -3 39 49 q 32 -86 39 -39 q 15 -178 25 -133 q 10 -224 13 -201 q 6 -271 8 -247 l 6 -347 q 1 -417 -1 -383 q 0 -479 3 -451 q -1 -507 0 -493 q -1 -535 -1 -521 q -5 -480 -4 -511 q -8 -419 -6 -449 q -6 -373 -7 -396 q -4 -326 -6 -350 q -10 -241 -11 -286 q -6 -160 -10 -196 q -3 -86 -1 -125 q 3 -21 -4 -47 q 6 31 8 -1 q 0 85 3 64 q -2 101 -1 93 q -4 117 -3 108 q 6 161 0 139 q 15 207 11 183 q 14 243 14 225 q 13 281 14 261 q 19 328 18 304 q 21 374 19 351 q 22 414 24 390 q 26 457 19 438 q 25 460 26 460 q 6 453 15 458 q -14 443 -4 449 q -33 435 -24 438 q -53 435 -43 432 l -53 436 q -49 446 -50 442 q -31 453 -43 447 q -7 465 -19 458 q 16 477 6 471 q 28 488 26 483 q 31 511 29 496 q 33 543 33 526 q 32 576 33 560 q 28 600 31 592 q 25 606 26 603 q 22 611 24 608 q 28 626 24 618 q 35 642 32 633 l 39 696 q 53 735 46 719 q 68 772 61 751 q 73 807 74 788 q 78 844 72 826 q 82 856 81 851 q 86 868 83 861 q 85 888 89 879 q 85 903 82 896 q 101 969 89 935 q 122 1036 113 1003 q 125 1073 126 1054 q 133 1108 124 1092 q 134 1102 133 1106 q 135 1096 135 1099 l 136 1096 q 140 1115 139 1106 q 143 1133 140 1124 q 148 1113 149 1128 q 144 1078 147 1097 q 138 1042 140 1060 q 138 1015 135 1024 q 147 1000 140 1008 q 151 972 150 985 q 154 943 153 958 q 160 938 157 940 q 165 932 163 935 q 172 908 168 919 q 178 883 175 896 q 185 863 181 875 q 193 840 190 851 q 192 809 193 825 q 190 776 192 793 q 200 719 196 747 q 213 667 204 690 q 220 624 219 647 q 232 588 221 601 q 276 609 251 597 q 325 624 300 621 l 325 622 q 322 621 324 621 q 281 588 299 604 q 242 553 263 571 q 244 508 243 531 q 246 463 244 486 q 242 453 244 458 q 240 440 240 449 q 242 413 240 422 q 243 393 244 404 q 244 374 244 383 q 246 353 244 364 q 237 309 239 338 q 236 260 235 281 q 252 144 239 199 q 275 29 265 89 q 274 18 274 24 q 272 7 274 13 q 276 -52 276 -21 q 285 -115 276 -83 q 302 -210 293 -164 q 321 -306 311 -257 q 340 -378 329 -339 q 358 -453 351 -417 l 358 -540 l 358 -540 m 64 503 q 91 510 74 506 q 126 522 108 515 q 156 539 143 529 q 169 561 169 549 q 167 588 168 575 q 165 614 167 600 q 158 633 163 622 q 150 656 153 644 l 150 686 l 129 719 l 133 732 q 131 765 139 751 q 111 786 122 779 q 105 761 111 771 q 94 739 99 751 q 81 697 86 717 q 69 656 75 676 l 69 599 q 66 553 65 579 q 64 503 67 528 z "},"b":{"ha":371,"x_min":-68,"x_max":363,"o":"m 353 313 q 358 290 356 301 q 363 267 360 278 q 351 253 360 258 q 340 238 343 247 q 333 217 338 229 q 324 192 329 204 q 315 169 319 179 q 304 154 310 158 q 292 146 300 151 q 274 134 283 140 q 254 123 264 128 q 239 115 244 118 q 211 110 222 113 q 199 101 204 107 q 183 93 193 94 q 160 100 171 90 q 138 113 149 110 q 122 114 129 114 q 106 114 114 114 q 78 128 94 117 q 51 147 61 139 q 35 169 40 158 q 26 190 29 179 q 19 214 22 201 q 10 242 15 226 q 1 272 7 250 q -9 317 -4 293 q -16 362 -14 340 q -15 392 -18 383 l -15 389 q -8 353 -12 371 q -1 315 -4 335 q 21 239 6 278 q 64 183 36 200 q 57 281 56 232 q 43 374 58 331 q 51 397 47 382 q 57 428 54 411 q 61 460 60 444 q 63 485 63 475 q 58 510 60 497 q 54 538 57 524 q 49 544 51 540 q 44 551 47 547 q 45 575 44 563 q 47 600 46 588 q 47 722 36 668 q 47 744 47 733 q 44 765 46 754 q 41 803 42 786 q 39 843 40 819 q 28 847 31 844 q 19 853 25 850 q -8 846 6 849 q -33 836 -21 843 q -51 822 -43 832 q -68 804 -58 811 q -65 810 -65 810 q -48 834 -61 825 q -24 854 -35 843 q -17 865 -19 858 q -7 875 -14 872 q 56 897 22 890 q 122 911 89 903 q 138 911 128 914 q 157 913 149 908 q 181 906 176 913 q 197 894 186 900 q 238 871 224 883 q 256 829 251 858 q 254 813 254 821 q 254 799 254 806 q 261 788 256 792 q 269 776 267 783 q 265 746 267 761 q 261 715 264 731 q 250 699 258 706 q 233 688 242 693 q 217 676 224 682 q 208 658 210 669 q 231 649 214 658 q 268 629 249 640 q 304 608 288 618 q 324 594 321 599 q 333 573 332 585 q 333 549 335 561 q 332 523 332 536 q 336 496 332 510 q 353 406 351 456 q 353 313 356 356 m 175 868 l 175 865 l 175 868 m 82 721 q 81 692 86 706 q 83 664 76 679 q 103 662 94 665 q 124 661 111 658 q 138 671 131 667 q 153 679 146 675 q 165 681 160 682 q 178 686 171 681 q 192 710 188 693 q 198 746 197 726 q 195 783 199 765 q 185 811 192 801 q 138 832 169 831 q 78 836 106 833 q 73 833 74 833 q 67 833 72 833 q 74 777 69 806 q 82 721 78 749 m 164 667 q 158 668 163 668 q 164 667 163 668 m 315 344 q 318 378 318 358 q 315 419 318 399 q 309 458 313 439 q 301 488 306 476 q 300 519 299 499 q 297 551 301 540 q 269 590 289 575 q 222 613 249 604 q 165 624 194 621 q 106 628 135 628 q 97 625 101 625 q 85 625 92 625 l 85 613 l 89 567 q 86 559 89 564 q 85 549 83 554 q 92 531 88 542 q 99 513 96 519 q 99 447 106 485 q 88 385 93 408 q 85 352 85 369 q 89 321 86 335 q 89 281 89 301 q 88 242 89 261 l 96 233 q 94 224 94 231 q 96 213 94 218 q 101 199 99 206 q 107 186 104 193 q 129 176 113 182 q 166 165 146 169 q 205 160 186 161 q 232 163 224 158 q 257 187 250 172 q 275 217 264 201 q 272 249 268 233 q 285 279 276 264 q 302 310 293 294 q 315 344 311 326 z "},"c":{"ha":290,"x_min":-3,"x_max":282,"o":"m 129 982 l 133 982 q 211 892 181 943 q 263 779 242 840 q 271 767 267 772 q 278 754 275 761 l 274 733 l 278 713 q 280 683 282 697 q 274 658 278 669 q 265 644 271 651 q 254 628 260 636 q 245 611 249 619 q 243 594 242 603 q 234 571 243 585 q 218 553 225 557 l 214 553 q 192 508 203 533 q 161 472 182 482 q 164 476 161 474 l 189 518 q 214 590 204 551 q 219 663 224 629 q 224 676 218 674 q 226 688 229 678 q 216 709 221 699 q 206 731 211 719 q 205 756 200 743 q 201 783 210 769 q 168 805 193 801 q 125 801 143 808 q 108 756 110 782 q 96 707 107 731 q 86 700 90 704 q 76 693 82 696 q 71 666 69 681 q 67 636 72 651 q 56 626 63 628 q 49 610 50 624 q 58 594 54 601 q 63 574 61 586 q 41 501 39 539 q 53 425 43 464 l 69 392 q 70 359 72 376 q 72 324 68 342 q 83 269 78 296 q 94 214 88 242 q 95 197 94 206 q 96 179 96 189 q 103 167 97 172 q 111 157 108 163 q 114 138 114 143 q 133 119 121 126 q 151 104 144 113 q 159 88 156 96 q 167 71 163 79 q 184 56 175 64 q 203 42 193 49 q 224 16 213 31 q 246 -15 235 1 q 267 -47 257 -31 q 281 -78 276 -64 q 263 -59 271 -69 q 249 -37 256 -49 q 233 -15 242 -25 q 214 1 225 -6 q 185 27 197 13 q 158 53 174 42 q 137 67 149 60 q 118 85 125 75 q 117 94 118 89 q 117 104 117 99 q 110 109 114 107 q 103 114 106 111 l 103 126 q 91 135 99 132 q 79 143 83 138 q 72 159 76 150 q 64 172 67 168 l 64 201 q 47 281 54 240 q 29 361 40 322 q 29 376 29 368 q 31 390 29 383 q 23 403 28 397 q 15 415 18 408 q 14 435 13 425 q 11 454 15 446 q 5 468 8 461 q -1 482 1 475 q -2 501 -3 489 q 1 528 -1 514 q 5 555 3 542 q 10 576 7 568 q 8 599 14 592 q 4 619 1 607 q 19 669 10 640 q 33 721 29 697 q 33 741 35 731 q 33 763 31 751 q 40 776 35 771 q 47 788 44 781 q 54 810 54 799 q 61 833 54 822 q 78 859 69 846 q 96 885 86 872 q 117 934 107 906 q 129 982 126 963 z "},"d":{"ha":388,"x_min":-89,"x_max":374,"o":"m 367 649 q 369 577 374 611 q 354 511 365 543 q 328 449 343 479 q 301 392 314 419 q 285 344 290 367 q 264 300 279 322 q 251 287 257 293 q 239 274 246 281 q 224 247 231 263 q 210 217 217 232 q 194 190 203 203 q 172 171 185 176 q 149 165 167 168 l 129 163 q 26 162 74 144 q -49 226 -21 179 q -59 244 -51 231 q -74 272 -67 257 q -85 301 -82 286 q -82 324 -89 315 q -71 283 -82 307 q -43 238 -60 260 q -8 201 -26 217 q 22 183 10 185 q 44 183 31 182 q 72 188 58 185 q 96 194 86 190 q 104 201 106 197 q 101 249 103 225 q 99 296 100 272 q 102 351 97 324 q 111 404 107 379 q 110 424 114 415 q 104 443 106 433 q 107 460 106 451 q 110 478 108 468 q 102 535 104 506 q 96 590 100 564 q 97 606 96 597 q 97 621 97 614 q 94 709 90 661 q 89 801 97 757 q 69 812 76 803 q 51 815 63 821 q 31 793 40 810 q 16 756 22 776 q 8 714 10 735 q 13 679 7 693 q 8 681 10 679 q 6 738 6 710 q 12 791 6 767 q 32 833 18 815 q 71 861 46 851 q 104 866 88 864 q 138 871 121 868 q 164 867 151 869 q 190 861 176 864 q 213 860 203 858 q 236 858 224 863 q 263 848 246 856 q 297 831 279 840 q 328 813 314 822 q 347 794 342 803 q 349 778 350 788 q 350 763 349 768 q 358 730 354 746 q 365 699 361 714 q 366 674 365 686 q 367 649 367 661 m 304 553 q 311 561 307 557 q 318 568 315 565 q 317 601 318 585 q 317 635 317 618 q 306 670 314 651 q 294 703 297 689 q 306 748 306 722 q 282 788 306 774 q 268 786 274 789 q 258 781 263 783 q 247 775 253 778 q 232 775 240 772 q 193 793 213 781 q 147 807 174 806 q 133 803 140 803 q 122 801 126 804 q 124 742 121 774 q 132 683 126 710 q 135 635 138 656 q 138 596 133 614 l 138 550 q 144 498 140 522 q 153 449 147 474 q 151 442 153 443 q 149 438 149 440 q 149 421 146 429 q 153 407 151 413 q 151 392 156 396 q 146 381 147 388 l 146 350 q 141 343 143 347 q 136 335 139 339 q 130 278 131 308 q 135 225 129 249 q 136 212 138 218 q 138 201 135 206 q 164 217 153 206 q 183 243 175 229 q 199 272 192 257 q 214 299 206 286 q 234 326 224 313 q 251 356 244 339 l 260 393 q 281 433 269 413 q 300 476 293 454 q 302 515 301 496 q 304 553 303 533 z "},"e":{"ha":393,"x_min":-43,"x_max":385,"o":"m -42 956 q -13 938 -32 949 q 15 922 6 926 q 54 920 35 921 q 93 918 74 919 q 167 905 125 911 q 244 901 210 899 q 301 899 271 904 q 356 907 332 894 q 357 904 357 906 q 356 891 358 897 q 356 878 353 885 q 360 868 358 872 q 365 858 363 864 q 360 838 358 847 q 356 824 361 829 q 363 813 360 818 q 369 803 367 808 q 378 755 379 781 q 379 708 376 729 q 376 710 376 710 q 367 760 372 732 q 350 806 361 789 q 331 820 340 813 q 314 835 322 828 q 308 849 308 843 q 299 858 307 854 q 288 857 293 860 q 278 853 283 854 q 265 855 271 854 q 251 857 258 856 q 219 856 236 860 q 190 849 201 851 q 174 851 182 850 q 156 853 165 851 q 140 843 143 849 q 135 831 136 838 q 135 815 135 824 q 129 796 135 806 q 122 788 126 792 q 119 776 118 785 q 126 763 121 769 q 135 751 131 757 q 185 746 154 746 q 238 747 217 746 q 271 753 254 749 q 307 750 288 757 q 347 720 331 742 q 375 679 363 699 q 374 678 374 678 q 349 704 360 688 q 319 726 338 721 q 259 724 292 732 q 200 714 226 715 q 181 714 193 714 q 155 714 168 714 q 131 713 142 714 q 115 710 119 713 q 115 688 111 697 q 121 669 118 678 l 117 653 q 120 644 119 649 q 122 635 121 639 q 122 624 122 633 q 122 605 122 615 q 119 584 121 594 q 118 571 118 574 q 115 533 117 553 q 110 496 114 513 q 113 480 113 488 q 115 464 114 472 q 99 348 104 411 q 113 222 93 285 q 166 219 139 219 q 218 213 193 219 q 249 215 233 210 q 283 214 264 219 q 324 191 307 207 q 353 153 342 175 q 373 106 365 131 q 385 57 381 81 q 381 60 383 57 q 374 86 376 72 q 367 113 372 100 q 303 170 347 154 q 213 179 258 186 q 194 180 204 178 q 175 183 185 182 q 156 185 165 185 q 139 182 146 186 q 119 184 128 185 q 101 186 111 183 q 87 192 94 189 q 72 197 79 194 q 64 190 68 193 q 54 183 60 186 q 53 185 54 185 q 63 213 56 206 q 76 235 69 221 q 69 302 65 271 q 71 369 72 333 q 67 385 69 375 q 68 401 65 396 q 72 408 69 404 q 75 415 74 411 q 71 433 74 422 q 71 478 69 453 q 75 522 72 504 q 74 535 75 529 q 74 547 74 540 q 81 588 79 564 q 82 635 83 611 q 77 683 81 660 q 69 724 74 706 l -1 732 l -1 739 q 8 743 4 740 q 15 747 13 746 q 30 749 24 750 q 42 747 36 749 q 53 746 47 746 q 65 750 58 746 l 68 750 q 65 799 68 774 q 63 844 61 824 q 69 867 64 860 q 71 889 74 875 q 42 899 61 892 q 3 917 22 907 q -29 937 -15 926 q -42 956 -43 947 z "},"f":{"ha":417,"x_min":-54,"x_max":431,"o":"m -53 940 q -42 933 -47 938 q -32 926 -37 929 q -29 933 -31 931 l -15 919 q 42 907 14 913 q 99 894 71 901 q 104 899 101 897 q 110 901 107 900 q 135 903 122 903 q 160 904 147 904 q 225 890 192 897 q 290 875 258 882 q 314 875 306 872 q 338 871 322 878 q 344 873 340 872 q 351 875 349 874 q 391 855 371 868 q 431 833 411 842 l 431 832 l 422 832 q 370 847 399 843 q 310 843 342 850 q 290 840 300 842 q 271 836 281 839 q 252 844 261 839 q 232 853 243 850 q 204 847 218 856 q 175 835 190 839 q 147 835 161 832 q 118 838 133 839 q 117 819 114 825 q 129 803 125 817 q 126 796 129 801 q 115 780 115 793 q 117 756 114 767 q 124 739 121 747 q 132 722 128 731 q 135 690 133 707 q 138 658 136 674 q 132 647 135 653 q 126 635 129 642 l 129 635 q 142 635 136 632 q 154 639 147 639 q 169 636 161 638 q 185 633 178 635 q 249 646 214 639 q 314 643 285 653 l 314 642 l 313 640 q 272 633 300 639 q 215 619 244 628 q 160 603 185 611 q 131 588 136 594 q 109 534 111 560 q 108 468 107 508 q 103 443 106 456 q 99 417 101 431 q 100 397 100 406 q 101 376 100 388 q 101 315 103 340 q 92 260 99 290 q 93 244 89 250 q 97 232 97 239 q 91 179 97 210 q 88 128 85 149 q 95 68 93 97 q 94 11 97 39 q 95 -19 92 -6 q 101 -47 99 -32 q 100 -87 104 -64 q 93 -119 96 -111 q 92 -156 90 -136 q 88 -186 94 -175 q 82 -71 86 -129 q 72 36 78 -12 q 74 51 74 43 q 75 67 74 58 q 74 112 72 89 q 79 151 75 135 q 78 160 79 153 q 74 176 76 167 q 71 192 72 185 q 69 201 69 200 q 72 210 71 206 q 75 219 74 215 q 76 303 72 260 q 71 389 79 347 q 71 418 67 407 q 72 449 75 429 q 68 492 69 468 q 71 535 67 515 q 74 568 74 546 q 69 596 75 590 q 41 611 56 606 q 10 621 26 617 q -4 622 3 622 q -17 624 -11 621 q 0 627 -8 628 q 15 624 8 626 q 28 621 22 622 q 40 622 35 619 q 48 626 44 624 q 58 629 51 628 q 58 658 56 639 q 63 690 60 678 q 63 738 65 710 q 56 785 60 765 q 56 797 54 790 q 60 807 58 804 q 60 828 63 814 q 56 849 57 843 q 41 872 53 860 q 18 888 29 883 q 11 888 15 888 q 3 889 7 889 q -1 897 0 893 q -4 904 -1 901 q -18 912 -10 908 q -35 919 -26 915 q -49 928 -43 924 q -53 940 -54 933 z "},"g":{"ha":322,"x_min":0,"x_max":306,"o":"m 257 1150 q 257 1139 260 1147 q 249 1121 254 1131 q 239 1103 244 1111 q 232 1092 233 1094 q 215 1060 225 1082 q 196 1013 206 1039 q 181 963 186 988 q 181 922 176 938 q 187 911 182 915 q 194 900 192 907 q 199 887 199 893 q 201 872 199 881 l 219 854 q 241 813 231 833 q 263 771 251 792 q 269 765 265 768 q 276 760 274 763 q 285 732 283 749 q 293 704 286 715 q 298 698 294 701 q 303 689 301 694 q 305 656 304 675 q 304 617 306 638 q 300 578 303 597 q 293 544 297 558 q 281 515 286 529 q 271 485 276 500 q 268 488 271 485 q 283 583 283 536 q 260 668 283 631 q 247 680 256 676 q 232 690 238 683 q 226 705 225 699 q 226 716 226 711 q 222 725 226 721 q 203 735 218 729 q 206 758 203 746 q 206 776 208 769 q 193 791 200 788 q 177 796 186 794 q 158 797 168 797 q 138 801 147 797 q 129 818 133 810 q 122 833 125 826 l 117 833 q 113 829 114 831 q 111 826 113 828 q 114 806 115 814 q 109 790 113 797 q 101 776 106 783 q 93 756 96 768 q 79 696 86 724 q 64 636 72 668 q 64 613 64 625 q 63 590 64 601 q 58 570 60 579 q 54 551 57 561 q 57 531 54 544 q 57 512 57 521 q 56 493 57 503 q 89 407 71 444 q 89 389 89 397 q 88 372 89 381 q 103 334 94 353 q 119 296 113 315 q 130 265 126 281 q 140 236 133 250 q 156 220 147 224 q 176 210 165 217 q 187 197 182 203 q 196 185 192 192 q 222 183 206 181 q 244 188 239 185 q 251 211 246 200 q 258 236 256 222 q 251 262 260 253 q 246 285 243 271 q 250 306 249 299 q 251 317 251 313 q 247 326 250 321 q 240 342 244 331 q 240 354 238 349 q 244 365 242 360 q 249 376 247 369 q 249 390 250 382 q 238 418 246 403 q 225 444 229 433 q 215 464 222 450 q 199 493 207 478 q 188 523 192 508 q 188 543 183 538 q 200 507 190 524 q 222 475 210 490 q 245 444 233 460 q 264 411 257 428 q 274 362 274 388 q 276 314 274 336 q 286 264 281 289 q 294 211 292 239 q 295 180 296 199 q 297 147 294 161 q 290 130 293 144 q 284 97 286 115 q 280 61 282 79 q 274 35 278 43 q 263 -2 267 17 q 253 -40 260 -21 q 244 -60 250 -50 q 235 -76 238 -71 l 235 -92 q 225 -126 231 -108 q 213 -162 219 -143 q 200 -185 206 -174 q 189 -210 194 -197 q 181 -236 185 -218 q 172 -273 176 -254 q 164 -308 168 -292 q 156 -329 160 -324 q 160 -262 154 -293 q 173 -203 165 -232 q 190 -147 181 -175 q 204 -90 199 -119 q 211 -69 206 -82 q 221 -41 217 -56 q 227 -13 225 -26 q 225 7 229 0 q 231 26 226 11 q 238 59 235 42 q 244 92 242 76 q 243 114 246 108 q 235 126 239 124 q 226 131 231 129 q 217 133 222 132 q 207 138 213 133 q 183 160 194 149 q 158 183 171 172 q 147 190 153 186 q 135 196 142 193 q 117 217 125 207 q 99 239 108 228 q 94 263 93 251 q 89 286 96 275 q 74 322 82 304 q 57 356 65 339 q 48 391 50 375 q 38 422 46 407 q 32 426 35 425 q 26 431 29 428 q 26 444 26 438 q 24 458 25 451 q 14 478 19 468 q 6 500 8 488 q 1 546 0 521 q 5 597 1 571 q 14 647 8 622 q 24 693 19 672 q 31 753 31 724 q 43 806 31 783 q 68 849 54 828 q 94 892 82 871 q 108 922 101 907 q 122 953 115 938 q 191 1049 153 1001 q 257 1150 229 1096 z "},"h":{"ha":317,"x_min":-21,"x_max":350,"o":"m 99 1118 q 101 1103 101 1110 q 100 1090 101 1097 q 103 1053 103 1071 q 107 1015 104 1035 q 106 981 106 999 q 104 946 106 964 q 108 887 107 917 q 111 828 108 857 q 99 734 103 781 q 101 649 96 688 q 150 472 114 558 q 156 472 154 472 q 160 469 157 471 q 176 478 164 472 q 203 490 189 483 q 226 501 217 496 q 236 510 236 507 l 240 564 q 244 601 246 581 q 246 640 243 621 q 249 714 250 676 q 247 790 249 751 q 243 867 244 828 q 244 946 242 906 q 246 943 246 944 q 253 874 257 910 q 257 799 250 839 q 263 756 261 775 q 267 710 264 736 q 265 692 265 700 q 263 674 264 683 q 272 597 269 631 q 274 517 275 563 q 288 520 278 517 q 311 526 299 524 q 335 529 324 529 q 350 524 346 529 q 328 515 338 521 q 311 502 319 508 q 293 490 303 496 q 271 485 283 485 q 266 440 268 463 q 265 399 264 418 q 269 381 268 390 q 271 364 269 372 q 267 296 268 332 q 267 224 267 260 q 270 156 268 189 q 275 96 272 122 q 273 56 274 76 q 269 17 272 36 q 271 -51 276 -15 q 271 -128 265 -86 q 277 -285 281 -203 q 278 -456 274 -368 q 275 -454 276 -456 q 269 -412 272 -433 q 265 -368 267 -392 q 267 -346 267 -357 q 269 -324 268 -335 q 265 -298 267 -310 q 261 -271 264 -286 q 260 -231 257 -251 q 258 -194 264 -211 q 247 -97 247 -146 q 239 0 246 -47 q 240 44 236 19 q 242 88 244 69 q 236 173 238 131 q 228 251 235 215 q 230 267 229 260 q 232 282 231 275 q 235 322 235 299 q 234 367 236 344 q 227 411 232 390 q 214 446 222 432 q 183 431 199 439 q 156 413 167 424 q 156 397 157 410 q 155 367 156 383 q 152 338 154 351 q 149 319 150 324 q 142 310 146 314 q 135 300 138 306 q 133 267 133 283 q 129 235 132 250 q 124 222 128 228 q 121 207 119 215 q 126 106 128 154 q 122 10 124 57 q 126 -51 122 -19 q 133 -108 129 -83 q 133 -130 135 -117 q 130 -156 132 -143 q 126 -181 128 -169 q 122 -199 124 -193 q 120 -248 119 -217 q 119 -299 121 -279 l 118 -299 q 112 -187 113 -239 q 103 -74 111 -136 q 101 -14 100 -46 q 96 46 101 18 q 92 121 89 83 q 88 196 94 158 q 88 218 85 207 q 92 236 90 229 q 92 267 92 251 q 90 297 92 282 q 97 351 97 319 q 92 406 97 382 q 56 399 69 403 q 28 393 43 396 q 19 397 21 392 q 11 399 18 401 q 3 393 7 389 q -8 393 0 397 q -19 381 -11 389 q -21 382 -21 382 l -21 386 q -19 390 -19 389 q -17 394 -19 392 q 0 398 -6 397 q 13 410 6 399 q 24 405 19 407 q 35 407 28 403 q 43 416 36 411 q 58 425 50 421 q 76 433 67 429 q 89 439 85 438 q 85 517 90 483 q 69 590 79 551 q 68 622 68 606 q 67 653 68 638 q 64 668 65 660 q 61 685 63 676 q 63 713 64 696 q 63 744 61 729 q 75 796 65 768 q 89 849 85 824 q 88 878 89 864 q 88 908 88 893 q 93 1015 90 961 q 99 1118 96 1069 z "},"i":{"ha":82,"x_min":4,"x_max":69,"o":"m 38 878 q 49 853 47 869 q 51 817 51 836 q 50 778 51 797 q 51 744 49 758 l 56 719 q 49 681 53 704 q 51 639 44 658 q 57 627 53 635 q 64 614 61 619 q 63 588 63 601 q 63 563 63 575 q 68 546 65 551 q 60 513 65 531 q 53 482 54 496 q 54 465 51 472 q 60 449 57 457 q 67 435 64 442 q 68 419 69 428 q 63 403 67 410 q 56 388 60 396 q 51 372 53 381 q 51 351 49 364 q 60 319 54 336 q 64 286 67 301 q 58 275 63 281 q 51 264 54 269 q 50 231 50 247 q 49 199 50 214 q 58 78 57 142 q 54 -49 58 14 q 58 -59 57 -54 q 61 -71 58 -64 q 59 -99 60 -85 q 57 -126 58 -112 q 55 -169 54 -146 q 51 -217 56 -193 q 51 -254 51 -236 q 50 -290 50 -272 q 49 -289 49 -290 q 44 -251 44 -265 q 43 -214 43 -237 q 44 -197 43 -206 q 44 -179 44 -189 l 24 13 l 24 90 q 11 290 13 186 q 6 493 10 393 q 11 561 4 526 q 17 633 18 596 q 23 654 19 644 q 31 675 26 664 q 36 750 36 708 q 36 821 36 792 q 35 849 38 836 q 38 878 33 863 z "},"j":{"ha":204,"x_min":-194,"x_max":185,"o":"m 39 1000 q 43 978 46 993 q 43 954 40 964 q 51 919 49 939 q 54 875 53 899 q 57 828 56 851 q 63 783 58 804 q 63 759 63 771 q 65 735 64 747 q 67 672 72 706 q 68 608 61 639 q 75 581 71 594 q 82 553 79 567 q 89 542 85 547 q 96 531 93 536 q 97 512 99 524 q 93 494 94 500 q 89 453 89 475 q 92 411 89 431 q 106 355 94 386 q 124 296 117 324 q 126 269 128 281 q 126 242 124 257 q 145 204 131 219 q 167 169 160 189 q 172 147 169 158 q 176 124 174 135 q 182 107 179 115 q 182 92 185 99 q 167 83 172 90 q 159 65 163 75 q 153 45 156 56 q 144 28 150 35 q 138 22 142 24 q 132 13 135 19 q 125 -19 126 -6 q 117 -47 124 -32 q 94 -83 108 -65 q 74 -121 81 -101 q 55 -167 63 -144 q 36 -210 47 -190 q 24 -218 29 -214 q 14 -226 19 -222 q -3 -261 4 -243 q -24 -293 -11 -279 q -36 -301 -29 -299 q -49 -310 -43 -304 q -69 -331 -60 -319 q -89 -353 -78 -343 q -109 -371 -96 -360 q -138 -391 -122 -382 q -169 -406 -154 -400 q -194 -408 -185 -412 l -194 -404 q -158 -384 -178 -393 q -122 -362 -137 -375 q -88 -325 -101 -347 q -60 -282 -75 -303 q -51 -277 -56 -279 q -43 -272 -47 -275 q -27 -243 -33 -260 q -11 -212 -21 -226 q 8 -197 -1 -207 l 13 -176 q 25 -165 17 -174 q 33 -138 28 -158 q 40 -110 38 -118 q 43 -97 43 -103 q 46 -85 43 -92 q 65 -56 54 -71 q 83 -26 76 -42 q 97 28 94 -4 q 106 88 100 60 q 110 110 107 99 q 111 135 114 122 q 106 147 108 142 q 101 157 104 151 l 101 172 q 81 242 92 208 q 60 313 71 276 q 55 356 53 333 q 54 396 57 378 q 48 436 51 418 q 42 472 44 454 q 45 499 44 486 q 47 525 46 513 q 34 581 40 554 q 22 638 28 608 q 25 664 24 651 q 28 690 26 676 q 31 733 33 715 q 32 772 28 750 q 30 784 31 779 q 28 796 29 789 q 30 826 28 806 q 33 858 32 846 q 32 889 32 874 q 32 919 32 904 q 35 960 35 939 q 39 1000 36 981 z "},"k":{"ha":379,"x_min":13,"x_max":454,"o":"m 451 1146 l 454 1146 q 431 1097 447 1119 q 404 1050 415 1074 q 373 977 389 1014 q 336 908 357 940 q 324 882 328 897 q 311 856 321 867 q 293 838 304 849 q 276 817 282 826 l 272 796 q 267 793 269 793 q 261 789 264 793 q 258 771 258 779 q 256 751 258 763 q 251 743 254 746 q 244 736 247 740 q 242 726 243 731 q 240 714 242 721 q 226 697 236 703 q 213 679 215 690 q 214 671 211 674 q 218 665 217 668 q 217 646 219 663 q 214 626 214 629 q 206 626 207 626 q 201 631 204 626 q 191 618 194 624 q 176 610 188 613 q 175 578 175 594 q 173 548 175 563 q 166 521 171 533 q 151 503 161 508 q 159 488 151 493 q 171 476 167 483 q 207 431 186 451 q 247 389 228 410 q 263 377 254 382 q 279 364 272 372 l 271 318 q 267 256 267 292 q 261 190 268 221 q 263 169 258 179 q 268 153 267 160 q 269 93 271 131 q 261 28 267 56 l 261 10 q 258 -10 258 0 q 254 -32 257 -21 q 247 -47 251 -39 q 239 -61 242 -54 q 235 -81 236 -71 q 233 -100 235 -90 l 239 -100 q 228 -133 231 -114 q 219 -171 225 -153 q 202 -239 208 -204 q 185 -306 196 -274 q 183 -330 182 -315 q 179 -351 185 -344 l 179 -349 q 178 -335 179 -342 q 178 -322 178 -329 q 176 -302 176 -311 q 174 -282 175 -293 q 178 -275 176 -279 q 182 -268 179 -271 q 186 -244 188 -254 q 189 -221 185 -233 q 196 -203 192 -214 q 201 -185 200 -192 q 201 -171 203 -179 q 200 -158 199 -162 q 208 -142 204 -150 q 215 -125 213 -133 q 213 -115 217 -121 q 213 -103 210 -110 q 233 -28 225 -69 q 237 21 236 -4 q 240 69 238 46 q 242 94 243 85 q 238 114 240 104 q 237 150 233 133 q 235 188 240 167 q 217 242 225 217 l 221 267 q 211 278 214 274 q 208 299 207 289 q 213 317 210 308 q 203 322 207 319 q 197 331 199 324 q 203 339 201 333 q 201 350 203 346 l 181 371 q 146 386 163 381 q 114 403 129 392 q 105 419 106 410 q 92 429 104 429 q 83 422 86 426 q 74 413 81 417 q 71 393 72 403 q 67 374 69 383 q 70 350 69 363 q 72 326 71 338 q 64 282 68 301 q 53 239 60 263 q 53 223 53 235 q 56 198 54 211 q 59 172 57 185 q 61 156 61 160 l 61 76 q 69 -26 71 28 q 60 -131 67 -81 q 61 -185 57 -154 q 60 -235 65 -215 q 49 -106 53 -171 q 42 22 44 -42 q 34 147 39 86 q 21 265 29 208 q 24 301 18 285 q 25 340 29 318 q 21 388 21 365 q 22 442 21 410 q 24 458 24 450 q 24 475 24 467 q 20 497 22 481 q 21 524 18 513 q 28 572 24 544 q 29 622 32 600 q 23 651 26 638 q 15 681 19 665 q 15 733 13 700 q 22 789 18 765 q 19 824 21 807 q 15 861 18 842 q 18 915 19 890 q 14 971 17 940 q 17 998 14 983 q 19 1028 19 1013 l 24 1028 q 31 988 29 1008 q 38 946 33 968 q 38 913 40 933 q 39 875 36 893 q 48 786 46 831 q 50 694 50 742 q 55 670 50 683 q 63 646 60 657 q 62 637 63 642 q 61 628 61 632 q 64 589 64 610 q 64 550 64 568 q 68 533 67 542 q 72 515 69 524 q 77 513 76 514 q 79 514 78 511 q 111 551 97 526 q 136 604 125 575 q 158 663 147 633 q 181 713 168 692 q 188 721 183 717 q 196 732 193 725 q 202 747 199 739 q 208 764 206 756 q 224 783 215 772 q 240 803 233 793 q 245 815 243 810 q 250 828 247 821 l 275 849 q 295 881 288 864 q 313 914 303 897 q 319 922 315 918 q 326 928 324 925 q 340 956 335 939 q 353 988 346 974 q 378 1035 364 1011 q 404 1083 392 1060 q 428 1115 414 1101 q 451 1146 442 1128 z "},"l":{"ha":363,"x_min":-4,"x_max":353,"o":"m 32 1121 l 36 1121 q 28 1033 28 1082 q 33 933 28 985 q 33 877 36 906 q 36 814 29 849 q 46 767 40 790 q 50 715 51 743 q 49 665 47 688 q 50 622 50 643 q 49 576 51 600 q 44 529 47 551 q 45 466 40 501 q 53 403 50 431 q 52 394 54 397 q 50 386 50 390 q 51 371 50 379 q 53 354 51 363 q 50 348 51 351 q 47 342 49 344 q 48 323 47 332 q 50 304 49 314 q 46 260 46 281 q 47 239 43 250 q 51 218 51 228 q 50 195 53 208 q 49 171 47 182 l 53 171 l 53 178 l 57 178 q 58 169 57 171 q 63 165 60 168 q 67 166 65 165 q 71 167 68 167 q 72 159 71 163 q 72 151 72 156 q 79 149 76 150 q 86 149 82 149 q 92 155 86 150 q 106 165 99 160 q 118 176 113 171 q 125 181 124 181 q 144 178 133 176 q 167 182 156 179 q 188 188 178 185 q 206 194 199 192 q 220 190 213 192 q 235 185 228 188 q 249 183 242 182 q 268 182 257 185 q 293 165 281 178 q 317 138 306 153 q 337 106 328 122 q 353 79 346 90 l 351 78 q 349 80 350 79 q 346 83 347 81 l 308 125 q 297 128 303 128 q 285 131 292 128 q 281 135 282 133 q 278 139 281 136 q 252 142 268 142 q 226 139 236 142 q 197 140 211 138 q 171 139 183 142 q 126 122 147 133 q 86 99 106 110 q 65 90 75 94 q 46 83 56 86 q 31 68 38 79 q 19 45 24 57 q 8 24 14 33 q -4 14 3 15 q 7 108 4 58 q 19 206 10 158 q 16 237 17 221 q 14 269 15 253 q 16 379 18 328 q 7 490 14 431 q 8 517 6 503 q 12 548 10 532 q 15 578 14 564 q 15 604 17 593 q 11 635 13 622 q 10 667 10 647 q 13 692 8 678 q 14 721 17 707 q 6 796 8 756 q 10 867 3 836 q 8 916 8 892 q 7 965 8 940 q 21 1046 14 1007 q 32 1121 28 1085 z "},"m":{"ha":339,"x_min":10,"x_max":328,"o":"m 324 1122 q 328 1106 328 1118 q 326 1081 328 1094 q 323 1055 325 1067 q 321 1040 321 1043 q 317 1014 321 1026 q 311 988 314 1001 q 308 948 308 967 q 301 907 308 929 q 285 856 294 883 q 283 796 276 828 q 285 731 290 764 q 278 664 281 699 q 283 637 281 650 q 289 610 286 624 q 285 594 286 601 q 282 578 285 586 q 281 533 278 556 q 281 490 283 511 q 278 440 278 467 q 274 393 278 414 q 276 380 275 386 q 278 367 276 374 q 267 310 274 339 q 257 251 261 281 q 263 215 254 233 q 272 183 272 197 q 263 108 267 146 q 253 35 258 71 q 253 17 250 24 q 254 1 256 10 q 250 -58 250 -25 q 244 -115 250 -92 q 246 -132 246 -124 q 247 -149 246 -140 q 243 -256 243 -200 q 235 -362 243 -311 q 232 -385 233 -371 q 229 -415 231 -400 q 226 -440 228 -429 q 219 -453 224 -451 q 222 -395 221 -424 q 225 -337 224 -367 q 222 -223 221 -287 q 229 -100 222 -158 q 229 -78 229 -89 q 228 -56 229 -67 q 229 -3 231 -31 q 226 51 228 24 q 233 99 226 69 q 243 149 240 129 q 241 197 247 175 q 229 242 235 219 q 228 260 228 249 q 231 284 229 272 q 236 306 233 296 q 242 321 239 317 q 235 328 239 325 q 233 336 232 331 q 238 355 233 346 q 246 374 243 364 q 245 393 246 383 q 244 413 244 403 q 247 416 244 414 q 249 421 249 418 q 244 451 251 439 q 242 482 236 464 q 244 498 243 488 q 246 517 246 508 q 244 534 246 526 q 240 543 243 542 q 224 503 233 521 q 206 467 215 486 q 205 454 206 460 q 204 443 204 449 q 185 379 192 414 q 171 313 178 344 q 172 292 171 301 q 172 271 172 282 q 170 214 168 244 q 175 152 172 183 q 178 90 178 121 q 174 29 179 58 l 169 33 q 172 69 172 46 q 169 119 171 93 q 163 168 167 144 q 157 207 160 192 q 156 240 156 224 q 154 272 156 257 q 147 345 149 308 q 139 422 146 382 q 122 467 135 446 q 103 513 110 489 q 106 529 100 524 q 113 546 113 535 q 103 560 110 553 q 93 574 96 567 q 92 584 93 579 q 92 594 92 589 q 88 592 89 592 q 83 547 85 569 q 75 508 81 525 q 75 495 75 501 q 74 482 75 489 q 60 459 69 468 q 46 436 51 450 q 48 419 47 428 q 49 403 49 411 q 44 351 47 376 q 35 300 40 325 q 34 271 32 289 q 39 242 36 253 q 38 215 39 228 q 36 188 38 201 q 42 160 40 178 q 43 124 43 143 q 42 88 43 106 q 40 60 42 69 q 40 19 38 39 q 47 -19 43 0 q 44 -32 44 -28 q 45 -64 44 -47 q 46 -96 46 -81 q 51 -149 50 -119 q 44 -190 51 -178 q 37 -87 44 -140 q 24 13 29 -33 l 24 65 q 18 127 19 100 q 10 190 17 154 q 10 214 10 201 q 11 238 11 226 q 12 306 11 275 q 18 376 13 338 q 17 409 21 392 q 15 443 13 426 q 29 501 19 474 q 29 524 29 513 q 28 547 29 536 q 31 574 31 561 q 35 600 32 586 q 33 627 33 614 q 32 654 32 640 q 28 711 33 685 q 18 765 22 738 q 19 786 19 776 q 19 807 19 796 q 17 863 17 828 q 24 921 17 899 q 22 934 22 928 q 21 947 22 940 q 20 970 18 958 q 25 992 22 982 q 26 1010 28 1000 q 24 1030 25 1019 q 22 1049 22 1040 q 28 1064 22 1057 l 29 1064 q 31 1039 29 1049 q 35 1017 32 1029 l 35 946 q 47 928 42 936 q 58 910 51 919 q 64 893 61 901 q 69 876 67 885 q 78 848 72 869 q 90 803 85 826 q 99 759 96 779 q 100 735 103 739 q 121 683 113 713 q 139 628 129 653 q 154 572 149 600 q 163 518 160 543 q 163 483 165 503 q 168 453 161 464 l 169 454 q 171 468 168 461 q 176 481 174 475 q 179 521 174 497 q 192 569 185 544 q 208 618 200 594 q 221 657 217 642 q 231 701 228 678 q 235 749 233 725 q 241 795 238 772 q 251 839 244 818 q 272 888 260 863 q 292 938 283 913 q 297 966 294 953 q 301 993 299 979 q 315 1055 308 1021 q 324 1122 322 1089 z "},"n":{"ha":257,"x_min":8,"x_max":243,"o":"m 229 1132 q 236 1131 233 1132 q 235 1095 236 1111 q 236 1067 235 1079 q 239 1048 236 1056 q 239 1026 242 1040 q 236 998 238 1015 q 233 961 235 981 q 232 924 232 942 q 235 896 232 906 q 241 847 239 874 q 240 797 243 821 q 233 715 236 760 q 228 638 231 671 q 228 558 225 599 q 229 476 232 517 q 234 420 232 449 q 239 364 236 392 q 234 319 236 340 q 236 274 232 297 l 240 240 q 237 213 238 226 q 233 185 236 199 q 231 128 231 157 q 229 75 232 99 q 230 49 228 64 q 226 22 232 33 q 229 -14 229 7 q 227 -57 229 -35 q 222 -100 225 -79 q 215 -137 218 -121 q 217 -206 217 -172 q 218 -276 217 -240 q 217 -310 219 -292 q 213 -339 215 -328 q 214 -361 214 -350 q 215 -383 214 -372 q 212 -452 213 -418 q 208 -521 211 -486 q 206 -522 207 -521 q 204 -444 206 -485 q 196 -371 203 -403 q 195 -319 196 -344 q 194 -268 194 -294 q 188 -230 192 -253 q 186 -187 183 -207 q 190 -136 190 -165 q 192 -81 189 -107 q 197 -46 193 -62 q 203 -12 200 -29 q 199 13 200 0 q 196 38 199 25 q 197 60 194 47 q 196 86 199 74 q 201 148 193 114 q 200 215 208 182 q 194 245 197 228 q 185 278 190 263 q 178 291 182 285 q 172 304 175 297 q 172 321 171 313 q 168 336 172 329 q 151 348 161 346 q 133 365 140 350 q 131 382 131 374 q 134 398 132 390 q 138 413 136 406 q 135 426 139 419 q 119 449 128 438 q 104 472 111 461 q 101 492 101 479 q 99 513 101 504 l 89 522 q 76 568 81 546 q 53 604 72 590 l 51 604 q 48 596 50 599 q 46 589 46 593 q 49 570 47 579 q 51 551 50 561 q 52 538 51 547 q 53 519 53 529 q 53 501 53 510 q 53 489 53 493 q 46 437 49 465 q 47 382 43 408 q 52 355 50 368 q 57 326 54 342 q 54 288 56 306 q 51 254 53 271 q 52 232 51 243 q 53 210 53 221 q 44 161 50 188 q 38 114 39 135 q 42 97 40 106 q 46 82 43 89 q 47 19 49 53 q 39 -37 44 -15 q 41 -53 40 -44 q 42 -69 42 -61 q 38 -124 38 -93 q 40 -174 38 -154 q 40 -206 43 -185 q 32 -231 38 -228 q 30 -143 32 -182 q 21 -61 28 -104 q 24 -44 24 -53 q 28 -28 25 -36 q 24 14 25 -6 q 18 54 24 33 q 19 65 19 60 q 21 76 19 71 l 13 89 q 11 126 8 104 q 17 156 14 147 l 17 210 q 21 247 19 225 q 19 289 22 268 q 16 342 18 314 q 13 401 14 371 q 11 460 11 431 q 15 517 11 490 q 11 556 13 536 q 8 594 10 575 q 19 682 15 636 q 29 765 24 728 q 32 810 33 790 q 28 851 31 829 q 26 892 26 871 q 26 932 26 913 q 25 949 25 938 q 26 971 25 960 q 28 990 26 982 q 32 1000 29 999 l 32 999 q 35 983 36 990 q 36 965 33 976 q 42 906 39 935 q 47 846 44 876 q 63 778 56 813 q 81 711 71 743 q 108 643 94 676 q 136 575 122 610 q 162 505 151 539 q 194 443 172 471 q 197 444 196 443 q 196 617 194 526 q 210 797 197 708 l 210 865 q 225 997 221 931 q 229 1132 229 1064 z "},"o":{"ha":367,"x_min":-7,"x_max":358,"o":"m 350 432 q 356 401 358 417 q 334 350 351 374 q 303 304 317 326 q 297 288 300 296 q 290 274 293 281 q 282 267 288 267 q 271 263 276 267 q 267 256 267 260 q 265 249 267 251 q 249 235 260 243 q 234 214 240 222 q 221 199 228 206 q 203 187 214 192 q 175 178 193 182 q 158 173 167 176 q 139 172 150 169 q 119 185 128 175 q 103 208 110 196 q 89 233 96 221 q 75 254 82 246 q 61 268 69 261 q 49 282 53 275 q 30 340 35 306 q 15 406 25 374 q 7 424 11 415 q -3 443 3 433 q -1 476 -7 463 q 3 508 4 490 q 8 558 1 532 q 19 607 14 583 q 21 631 21 618 q 22 654 21 643 q 48 721 32 690 q 83 778 64 751 q 102 792 90 786 q 128 804 114 799 q 156 814 142 810 q 181 822 169 818 q 197 824 189 824 q 211 826 204 825 l 240 822 q 263 796 247 807 q 285 769 279 785 q 298 713 296 744 q 308 657 300 682 q 322 631 313 642 q 335 608 331 621 q 342 559 342 586 q 346 510 343 532 q 353 471 349 494 q 350 432 358 447 m 282 344 q 290 385 288 361 q 292 433 293 408 q 288 479 292 457 q 278 514 285 501 q 259 539 272 524 q 243 561 246 554 q 242 608 238 579 q 250 651 246 636 q 242 669 247 661 q 232 683 236 676 q 229 706 231 694 q 226 729 228 718 q 204 744 217 739 q 181 740 193 739 q 158 738 169 742 q 125 722 143 735 q 100 697 107 708 q 84 666 90 685 q 74 626 78 647 q 67 584 69 606 q 60 544 64 563 q 60 511 56 528 q 61 479 65 494 q 53 465 58 474 q 51 446 47 456 q 56 440 53 443 q 61 432 60 436 q 59 413 64 421 q 57 396 54 404 q 71 340 64 369 q 89 282 78 310 q 95 271 92 276 q 101 258 99 265 q 103 250 104 254 q 104 242 101 246 q 122 218 111 229 q 143 197 133 207 l 175 197 q 192 213 182 208 q 210 225 203 217 q 222 249 218 236 q 236 274 226 263 q 262 306 250 289 q 282 344 274 322 z "},"p":{"ha":354,"x_min":-46,"x_max":354,"o":"m 349 742 q 354 684 354 711 q 347 631 354 657 q 349 613 349 621 q 349 596 349 604 q 347 594 349 594 q 338 585 344 588 q 328 576 332 583 q 322 563 325 569 q 315 550 318 557 q 301 544 308 547 q 288 539 294 542 q 272 520 281 529 q 256 501 264 511 l 222 501 q 158 478 190 493 q 103 439 125 463 q 106 378 101 408 q 108 311 111 347 q 104 98 106 197 q 85 -108 103 -1 q 85 -162 82 -131 q 92 -210 89 -194 q 88 -242 94 -225 q 82 -274 81 -258 q 88 -319 85 -296 q 86 -362 92 -342 q 83 -360 85 -361 q 81 -358 82 -360 q 75 -315 78 -336 q 69 -274 72 -294 q 69 -221 65 -247 q 69 -171 74 -194 q 67 -147 68 -158 q 63 -122 65 -135 q 71 -57 65 -92 q 81 12 76 -22 q 85 78 85 46 q 76 136 85 110 q 78 161 78 149 q 79 186 79 174 q 76 228 76 207 q 77 272 76 250 q 77 317 78 294 q 72 364 76 340 q 69 389 69 376 q 68 415 69 401 l 64 411 q 8 346 26 388 q -25 257 -10 304 q -31 214 -31 239 q -43 178 -32 189 q -40 216 -46 197 q -32 251 -35 235 q -25 295 -28 275 q -19 333 -22 315 q -9 367 -15 350 q 8 400 -3 383 q 42 433 25 417 q 74 467 58 450 l 74 489 q 76 598 83 540 q 72 710 69 656 q 72 734 72 719 q 73 763 72 749 q 74 792 74 778 q 76 814 75 806 q 92 894 83 851 q 93 981 100 938 q 60 993 81 985 q 20 1013 40 1001 q -14 1036 0 1024 q -28 1060 -28 1049 q -5 1042 -15 1053 q 18 1024 6 1032 q 41 1019 29 1017 q 68 1017 53 1021 q 85 1010 79 1013 q 103 1014 92 1007 q 119 1003 111 1006 q 140 993 128 1000 q 167 976 151 988 q 192 958 182 965 q 211 951 201 956 q 231 944 221 947 q 283 910 254 929 q 328 869 313 892 q 331 848 333 863 q 333 822 329 833 q 344 803 336 813 q 351 782 351 794 l 349 742 l 349 742 m 144 517 q 183 530 160 522 q 230 548 207 538 q 271 571 253 558 q 293 599 289 583 q 292 612 292 606 q 290 625 292 618 q 289 668 288 647 q 282 710 290 689 q 265 753 275 732 q 246 797 254 775 q 256 812 251 806 q 260 832 260 818 q 247 849 253 840 q 236 867 242 857 q 227 872 232 869 q 218 878 222 875 q 213 900 215 892 q 193 913 207 907 q 171 921 179 918 q 152 915 164 915 q 133 911 140 914 q 124 872 128 900 q 119 813 121 844 q 117 751 117 781 q 121 706 118 721 q 119 692 119 699 q 117 679 118 686 q 116 644 114 661 q 119 614 118 626 q 124 558 122 588 q 144 517 126 529 z "},"q":{"ha":411,"x_min":-3,"x_max":394,"o":"m 386 422 q 379 408 383 415 q 372 392 375 400 q 371 356 368 374 q 367 324 374 339 q 362 315 364 319 q 357 308 360 311 q 356 289 356 301 q 347 270 353 282 q 339 250 342 258 q 349 240 344 244 q 358 232 353 236 q 363 197 356 208 q 375 167 369 186 l 375 164 q 369 143 372 150 q 372 123 371 132 q 372 104 372 114 q 368 92 371 100 q 368 76 365 85 q 372 66 369 74 q 371 51 374 58 q 364 37 368 44 q 357 19 360 29 q 357 -15 353 3 q 357 -49 361 -33 q 340 -73 354 -57 q 319 -96 326 -89 q 310 -119 314 -107 q 300 -142 306 -131 q 273 -176 289 -161 q 247 -214 257 -190 q 226 -267 236 -239 q 208 -319 217 -294 q 203 -351 204 -333 q 192 -375 203 -368 q 201 -306 192 -342 q 223 -235 210 -269 q 251 -169 236 -200 q 279 -112 267 -137 q 295 -90 283 -104 q 310 -69 307 -76 q 310 -56 310 -62 q 311 -42 311 -49 q 321 -22 317 -28 l 321 17 q 328 103 326 57 q 319 190 331 150 q 308 210 317 201 q 297 229 300 218 q 219 227 260 219 q 150 257 178 235 q 127 285 139 272 q 104 314 115 299 q 88 325 96 319 q 72 336 81 331 q 67 351 69 343 q 63 365 65 358 q 47 391 54 378 q 31 417 39 404 q 28 440 29 428 q 24 464 26 451 q 16 481 21 472 q 8 497 11 490 q -1 543 1 517 q -1 597 -3 569 q 4 651 0 625 q 15 697 8 678 q 28 721 22 708 q 40 744 33 733 q 47 771 42 756 q 54 776 50 775 q 63 781 58 778 q 71 793 67 788 q 81 806 75 799 q 118 838 100 821 q 156 869 136 854 q 167 874 161 874 q 181 881 174 875 q 238 870 208 881 q 282 842 268 860 q 292 819 286 828 q 308 802 299 810 q 322 782 318 794 q 326 753 326 768 q 332 726 325 739 q 359 686 346 707 q 386 646 372 665 q 388 616 389 635 q 389 582 386 597 q 394 497 394 540 q 386 422 393 454 m 325 381 q 328 392 328 389 q 320 417 325 404 q 317 444 315 431 q 323 540 319 490 q 306 635 326 589 q 284 672 297 654 q 261 710 271 690 q 258 733 256 722 q 261 756 260 744 q 244 819 265 796 q 188 849 222 843 q 105 776 139 817 q 51 672 71 735 q 50 649 49 661 q 50 624 51 636 q 56 484 39 554 q 106 365 74 414 q 133 335 119 350 q 158 306 146 321 q 169 286 165 294 q 185 271 174 278 q 215 258 197 261 q 247 250 232 254 q 255 257 251 253 q 261 264 258 261 q 251 286 258 276 q 236 304 243 296 q 232 341 240 319 q 221 378 224 363 q 204 430 214 401 q 186 488 194 458 q 174 547 178 518 q 174 603 169 576 l 175 603 l 175 600 q 185 552 185 575 q 197 504 185 529 q 210 472 204 489 q 225 436 217 454 q 258 379 240 408 q 283 314 275 350 q 293 310 289 311 q 303 306 297 308 l 304 306 q 314 324 310 318 q 320 338 318 331 q 323 354 322 344 q 325 381 324 364 z "},"r":{"ha":289,"x_min":-121,"x_max":279,"o":"m 271 -14 q 272 -33 272 -21 q 272 -56 272 -44 q 274 -78 272 -68 q 279 -89 275 -87 q 259 -142 264 -108 q 247 -207 254 -175 l 247 -233 q 239 -247 243 -240 q 231 -261 235 -254 q 226 -285 226 -274 q 221 -308 226 -296 q 210 -327 218 -318 q 199 -349 201 -336 q 190 -419 190 -387 q 181 -487 189 -451 q 157 -585 168 -540 q 133 -679 146 -631 q 131 -678 132 -678 q 138 -611 133 -644 q 149 -544 143 -578 q 153 -485 154 -514 q 163 -437 151 -456 q 168 -397 165 -417 q 174 -356 171 -376 q 188 -306 183 -331 q 203 -254 193 -281 q 225 -178 215 -221 q 232 -99 235 -135 q 234 -65 231 -83 q 240 -36 238 -47 q 238 -25 239 -31 q 236 -14 238 -19 q 238 -3 238 -8 q 239 7 238 3 q 231 86 236 44 q 211 158 226 128 q 217 169 214 163 q 221 182 221 175 q 211 192 215 190 q 203 195 207 194 q 193 197 199 196 q 182 203 188 199 q 172 215 175 208 q 164 229 169 222 q 156 234 160 232 q 147 239 151 236 q 133 257 140 249 q 119 274 126 265 q 108 285 113 279 q 96 294 103 290 q 81 301 86 301 q 65 311 76 300 q 47 308 51 311 q 46 300 46 307 q 46 284 46 293 q 46 267 46 275 q 44 256 46 260 q 42 217 39 235 q 49 179 46 200 q 44 158 46 168 q 40 136 43 147 q 42 119 39 126 q 44 106 46 113 q 35 79 39 96 q 28 82 29 82 q 35 5 35 42 q 26 -79 35 -32 q 30 -121 24 -94 q 29 -167 36 -147 q 31 -170 32 -169 q 26 -174 29 -171 q 21 -171 26 -174 q 19 -160 19 -165 q 17 -149 18 -154 q 16 -110 17 -129 q 15 -71 15 -90 q 13 -51 13 -60 q 14 -31 14 -42 l 6 7 q 6 35 3 18 q 11 61 8 53 q 10 80 14 72 q 4 94 6 88 q 3 134 0 110 q 10 176 7 158 q 6 198 7 188 q 3 219 6 208 q 6 242 6 233 q 5 281 6 261 q 3 319 4 300 l 1 319 q -33 317 -15 314 q -68 326 -51 319 q -99 344 -85 333 q -121 363 -112 354 q -118 365 -118 365 q -114 365 -118 365 q -101 356 -107 361 q -89 346 -96 351 q -72 342 -85 344 q -44 340 -58 340 q -16 340 -29 339 q 1 344 -3 340 q 9 372 10 356 q 11 401 8 388 q 15 432 13 413 q 17 467 18 451 q 8 519 14 494 q 6 572 3 544 q 6 690 8 626 q -3 807 3 754 q 5 836 1 822 q 11 865 8 850 q 13 909 13 883 q 11 951 13 935 q 3 974 10 963 q -10 995 -3 985 q -24 1015 -18 1006 q -31 1033 -31 1025 q -4 1009 -19 1029 q 24 981 11 989 q 67 947 47 964 q 110 910 88 929 q 120 898 115 903 q 131 886 125 893 q 149 872 139 879 q 165 856 160 865 q 181 817 175 840 q 190 778 186 794 q 189 770 189 774 q 188 764 189 767 q 189 718 189 740 q 190 672 189 696 l 211 606 q 214 585 213 594 q 217 565 215 575 q 225 539 219 551 q 235 514 231 526 q 235 492 239 504 q 239 471 232 479 q 234 457 236 465 q 229 444 232 449 l 217 432 l 213 411 q 201 406 206 408 q 190 401 196 404 q 169 380 179 392 q 149 361 160 368 q 134 354 140 354 q 122 343 128 354 q 147 319 135 332 q 171 296 158 307 q 206 265 188 281 q 238 233 224 250 q 259 194 251 215 q 263 143 267 172 q 262 92 260 115 q 269 46 264 68 q 270 16 269 31 q 271 -14 271 1 m 160 639 l 160 638 l 160 639 m 158 646 l 158 644 l 158 646 m 46 364 q 82 364 68 358 q 106 380 96 369 q 124 403 115 390 q 146 426 133 417 q 170 443 158 436 q 193 461 182 450 q 190 519 192 489 q 178 581 189 550 q 162 608 172 596 q 147 638 151 621 q 145 657 146 647 q 144 676 144 667 q 138 684 142 681 q 131 692 133 688 q 126 717 126 703 q 126 745 125 731 q 126 772 126 760 q 121 792 125 785 q 106 807 115 801 q 90 821 97 813 q 76 840 79 832 q 57 854 72 847 q 39 828 43 843 q 36 797 35 814 q 41 763 38 781 q 47 728 44 744 q 47 710 47 722 q 46 685 47 699 q 43 659 44 672 q 40 638 42 646 q 41 617 40 626 q 42 596 42 607 q 40 581 42 590 q 39 565 38 572 q 43 510 42 539 q 49 458 44 482 q 48 435 50 447 q 44 410 46 422 q 41 385 42 397 q 46 364 40 374 z "},"s":{"ha":351,"x_min":-100,"x_max":339,"o":"m 99 928 q 165 913 126 922 q 226 888 203 903 q 241 859 238 879 q 251 825 244 839 q 263 812 258 818 q 275 799 268 806 q 301 753 289 775 q 328 708 314 731 q 337 666 335 692 q 335 614 339 640 q 322 566 331 588 q 296 538 313 544 q 304 553 300 544 q 314 569 308 561 q 315 601 321 586 q 307 629 310 615 q 307 649 304 642 q 307 663 310 656 q 298 685 306 671 q 280 715 290 700 q 260 744 269 731 q 246 764 250 758 q 222 776 238 774 q 197 790 206 779 q 188 809 190 797 q 179 828 186 821 q 164 831 171 826 q 151 839 157 835 q 138 845 144 843 q 122 842 132 847 q 115 819 119 826 q 106 808 111 813 q 97 801 101 804 q 89 789 92 797 l 89 754 q 76 705 82 726 q 69 663 71 683 q 72 622 68 643 q 88 576 76 601 q 99 549 94 564 q 110 521 103 533 q 125 504 114 514 q 150 485 136 494 q 177 467 164 475 q 199 456 190 460 q 210 454 203 454 q 226 454 218 454 q 240 453 233 454 q 249 447 246 451 q 264 417 261 439 q 271 378 267 396 q 278 364 274 371 q 285 350 282 357 q 301 273 299 317 q 294 193 303 229 q 292 176 293 185 q 289 158 290 168 q 281 151 285 156 q 271 144 276 147 q 258 119 263 136 q 249 93 253 103 q 246 78 247 86 q 243 64 244 71 q 226 28 238 44 q 208 -6 215 11 q 203 -22 204 -15 q 197 -35 203 -28 l 172 -51 q 164 -62 168 -57 q 154 -74 160 -68 q 138 -86 147 -81 q 122 -99 129 -92 q 102 -122 111 -110 q 82 -146 93 -133 q 75 -149 79 -149 q 68 -153 71 -150 q 62 -162 65 -158 q 56 -172 58 -167 q 33 -183 46 -179 q 13 -196 21 -186 q -49 -276 -24 -232 q -99 -367 -75 -321 l -100 -367 q -58 -262 -85 -307 q 1 -176 -31 -217 q 33 -149 15 -161 q 64 -122 50 -137 q 82 -99 74 -111 q 100 -76 90 -87 q 133 -49 117 -64 q 163 -18 150 -35 q 193 40 183 8 q 214 103 203 71 q 239 156 224 132 q 261 210 254 181 q 260 288 271 253 q 230 353 250 324 q 184 405 210 382 q 136 444 158 428 q 120 453 129 451 q 104 460 111 454 q 92 476 97 468 q 81 492 88 485 q 65 501 74 499 q 49 511 56 504 q 38 531 39 519 q 31 554 36 543 q 24 564 28 560 q 18 574 21 568 q 17 588 17 581 q 15 604 17 596 q 12 624 13 614 q 8 643 11 633 q 17 708 13 674 q 31 775 21 743 q 35 802 33 789 q 39 831 36 815 q 50 851 43 839 q 65 875 57 863 q 77 900 72 888 q 82 922 82 913 q 99 928 93 925 z "},"t":{"ha":322,"x_min":-107,"x_max":400,"o":"m 168 917 q 194 915 181 915 q 218 910 207 914 q 234 910 226 910 q 250 913 242 911 q 306 896 272 904 q 364 876 340 888 q 382 867 374 874 q 400 856 390 860 l 400 851 q 398 851 399 851 q 396 850 397 850 q 329 871 367 868 q 254 869 292 874 q 235 872 244 868 q 217 880 226 876 q 199 883 208 883 q 181 874 190 883 q 182 864 182 868 q 183 856 182 860 q 177 843 182 849 q 169 829 172 838 q 172 813 171 821 q 174 794 172 804 q 169 781 172 788 q 164 768 165 774 q 162 753 161 761 q 161 739 163 744 q 163 724 160 732 q 168 711 165 717 q 166 692 171 701 q 161 675 161 683 l 161 593 q 164 581 163 586 q 164 567 165 576 q 158 512 160 543 q 158 457 157 481 l 154 407 q 158 351 157 379 q 161 294 160 322 q 159 269 160 282 q 157 243 158 257 q 158 219 157 232 q 160 196 158 207 q 156 181 157 189 q 153 167 154 174 q 158 134 150 149 q 164 100 167 119 q 163 87 163 97 q 161 69 164 76 q 165 56 163 67 q 164 39 167 46 q 161 20 163 29 q 157 1 160 11 q 163 -97 164 -49 q 168 -194 161 -146 q 171 -213 169 -201 q 173 -237 172 -225 q 174 -258 174 -249 q 172 -269 174 -268 q 168 -240 172 -254 q 161 -215 164 -226 l 161 -193 q 152 -147 157 -171 q 143 -104 147 -124 q 138 -53 140 -78 q 133 -3 136 -28 q 135 24 135 11 q 136 49 135 36 l 128 86 q 128 178 124 132 q 139 267 132 224 q 136 302 138 285 q 133 338 135 319 q 132 389 131 361 q 131 440 133 417 q 132 476 132 458 q 133 513 132 494 q 132 575 132 544 q 132 638 132 606 q 130 658 131 649 q 128 678 129 667 l 119 703 q 119 725 118 714 q 117 746 119 736 q 110 761 114 753 q 103 776 106 769 q 103 788 100 783 q 108 797 107 793 q 108 831 113 817 q 94 858 104 846 q 72 867 88 868 q 40 863 56 865 q -11 858 18 858 q -60 861 -40 857 q -84 857 -69 863 q -107 860 -99 851 q -106 863 -107 861 q -89 865 -94 863 q -76 869 -83 867 l -46 869 q 17 883 -17 876 q 79 897 51 890 q 101 902 88 900 q 128 906 115 904 q 153 910 142 908 q 168 917 164 913 z "},"u":{"ha":293,"x_min":3,"x_max":289,"o":"m 269 1047 q 274 1035 274 1043 q 273 1018 274 1028 q 271 999 272 1008 q 271 983 269 989 q 267 926 274 957 q 267 863 261 894 q 270 807 271 833 q 265 753 269 781 q 266 728 265 740 q 268 703 267 715 q 261 627 261 661 q 254 554 261 593 q 252 509 250 535 q 258 457 254 483 q 267 406 263 431 q 275 364 272 382 q 266 327 271 344 q 256 292 261 310 q 251 257 250 274 q 256 225 253 240 q 253 206 254 215 q 251 189 253 197 q 267 156 258 171 q 289 131 275 140 q 288 110 289 119 q 286 89 288 100 q 278 47 279 65 q 274 15 278 29 q 260 -12 269 0 q 228 -37 250 -25 q 199 -36 218 -35 q 169 -31 181 -37 q 149 -15 160 -24 q 128 6 138 -6 q 115 29 119 17 q 115 56 111 42 q 110 62 114 60 q 104 67 107 64 q 94 101 99 83 q 83 135 89 118 q 69 165 76 149 q 57 196 61 182 q 51 221 54 208 q 46 246 49 233 q 27 292 38 267 q 10 343 17 317 q 7 376 6 360 q 4 408 8 393 q 6 427 6 418 q 6 446 6 436 q 8 506 3 478 q 21 563 13 535 q 23 586 24 574 q 20 611 22 599 q 17 638 18 624 q 18 665 15 651 q 22 734 24 697 q 15 803 21 771 q 16 831 13 818 q 15 857 19 843 q 21 854 18 854 q 40 758 32 806 q 60 667 49 710 q 62 621 61 643 q 65 575 63 599 q 61 550 68 563 q 51 526 54 538 q 49 510 50 522 q 47 492 47 499 q 50 479 49 485 q 53 468 51 474 q 47 439 50 457 q 49 404 44 421 q 56 377 51 390 q 63 350 60 364 q 75 328 67 339 q 89 308 83 318 q 93 276 96 293 q 97 242 90 260 q 106 228 101 235 q 117 214 111 221 q 122 197 119 206 q 126 182 124 189 q 137 166 131 174 q 147 151 143 158 q 149 140 149 144 q 150 129 150 135 q 163 95 156 114 q 181 63 169 76 q 209 73 199 61 q 217 103 219 85 q 212 124 214 114 q 207 144 210 135 q 206 217 199 181 q 219 286 213 254 q 226 366 229 324 q 228 444 224 408 q 222 466 229 454 q 218 490 215 478 q 218 518 221 504 q 218 546 215 532 q 228 635 225 589 q 233 728 231 682 q 239 816 235 774 q 253 893 243 858 q 250 911 253 900 q 260 949 257 931 q 267 988 264 968 q 265 1017 269 1000 q 269 1047 260 1033 z "},"v":{"ha":279,"x_min":-17,"x_max":281,"o":"m -17 1108 q -6 1078 -6 1100 q -4 1040 -7 1057 q 3 1011 -1 1029 q 11 978 8 993 q 16 917 18 946 q 22 861 14 888 q 38 783 33 825 q 46 700 42 740 q 45 672 47 685 q 46 644 43 660 q 53 594 50 622 q 64 544 57 565 q 76 508 71 525 q 88 471 81 490 q 88 451 90 464 q 82 432 85 439 l 82 357 q 95 307 89 332 q 108 258 101 282 q 117 243 111 250 q 125 226 122 236 q 126 181 131 207 q 124 138 121 154 q 126 139 125 138 q 127 150 128 143 q 129 164 126 157 q 139 176 132 172 q 149 186 146 179 q 156 228 154 206 q 163 272 157 251 q 164 286 164 275 q 164 310 164 297 q 164 335 164 322 q 165 356 164 349 q 203 541 189 450 q 236 724 217 632 q 238 744 238 735 q 239 765 238 754 q 258 840 250 800 q 274 913 265 881 q 275 937 275 919 q 279 963 275 954 q 280 960 279 961 q 281 958 281 960 q 271 872 271 914 q 264 786 271 831 q 252 692 257 739 q 239 601 247 646 q 238 560 235 579 q 235 518 240 542 q 207 372 219 447 q 194 228 194 296 q 190 210 194 218 q 182 193 185 201 q 180 167 181 181 q 176 139 179 154 q 170 123 174 132 q 165 107 167 114 q 165 78 165 92 q 164 50 164 65 q 140 -76 146 -10 q 128 -203 135 -142 q 126 -237 126 -221 q 125 -271 126 -254 q 134 -315 128 -290 q 138 -358 140 -339 q 131 -390 135 -375 q 122 -421 126 -406 q 124 -436 124 -426 q 119 -491 119 -465 q 121 -549 119 -517 q 117 -547 118 -549 q 115 -519 117 -531 q 110 -492 113 -507 q 108 -455 107 -478 q 111 -421 110 -432 q 113 -386 114 -406 q 110 -347 113 -367 q 103 -310 107 -328 q 94 -283 99 -293 q 93 -251 90 -272 q 96 -224 96 -231 l 96 -137 q 88 -93 92 -115 q 82 -49 85 -71 q 82 -1 82 -25 q 81 46 82 22 q 67 140 76 94 q 50 226 57 186 q 43 285 44 257 q 35 338 42 314 l 35 375 q 35 439 32 408 q 33 507 39 469 q 21 584 28 543 q 7 663 14 625 q 9 699 8 682 q 10 735 10 717 q 7 769 8 753 q 4 804 6 786 q 8 826 6 815 q 10 850 11 838 q -3 981 3 911 q -17 1108 -10 1051 z "},"w":{"ha":464,"x_min":-22,"x_max":479,"o":"m 472 1175 q 474 1131 479 1156 q 471 1086 469 1106 q 469 1034 472 1058 q 464 988 467 1010 q 465 962 464 975 q 465 936 465 949 q 464 908 467 929 q 460 878 461 888 q 456 864 457 871 q 453 850 456 857 q 452 820 453 835 q 451 790 451 806 q 446 769 449 782 q 444 744 443 757 q 447 699 447 724 q 442 651 446 675 q 435 604 439 626 q 425 565 431 582 q 423 544 424 554 q 419 522 422 533 q 415 509 417 515 q 410 496 413 503 q 398 436 403 465 q 388 378 393 407 q 385 353 386 365 q 385 329 385 342 q 378 308 382 319 q 375 285 375 296 l 375 229 q 356 125 360 178 q 346 14 353 72 q 345 -11 346 1 q 344 -37 344 -24 q 333 -133 335 -81 q 333 -231 331 -186 q 333 -256 335 -242 q 332 -282 331 -271 q 327 -336 335 -306 q 321 -392 319 -367 q 318 -390 318 -390 q 324 -316 324 -356 q 323 -236 325 -276 q 316 -158 321 -196 q 304 -87 311 -119 q 306 -74 306 -81 q 308 -60 307 -67 q 305 -28 306 -43 q 300 7 304 -12 q 295 32 297 19 q 289 56 293 44 q 284 65 286 60 q 279 74 282 69 q 280 98 278 85 q 283 122 282 111 q 284 155 286 133 q 279 188 282 176 q 269 219 276 206 q 257 249 263 233 q 243 307 247 279 q 228 364 239 335 q 218 345 221 360 q 218 318 215 331 q 219 291 219 308 q 216 253 218 274 q 211 215 214 233 q 206 188 208 197 q 192 119 196 154 q 181 42 189 83 q 172 15 176 28 q 165 -14 168 1 q 153 -78 156 -46 q 146 -142 150 -110 q 147 -175 143 -160 q 151 -206 151 -190 q 155 -315 151 -260 q 161 -412 158 -369 l 161 -411 q 153 -378 153 -400 q 150 -339 153 -357 q 144 -297 147 -319 q 138 -256 140 -275 q 138 -222 135 -237 q 138 -189 142 -207 q 132 -147 132 -169 q 128 -100 132 -125 q 108 66 113 -14 q 92 225 104 146 q 70 353 81 292 q 47 482 60 415 q 46 522 42 504 q 47 558 50 539 q 35 595 43 578 q 31 632 28 613 q 28 673 33 654 q 19 707 24 692 q 12 746 14 726 q 7 782 10 765 q 2 832 4 807 q -3 882 0 857 q -9 907 -6 890 q -16 942 -12 924 q -21 978 -19 961 q -19 1001 -22 994 q -18 1000 -19 1000 q -11 947 -17 972 q 1 897 -6 921 q 3 884 1 894 q 7 863 4 874 l 13 832 q 24 799 19 817 q 33 767 28 782 q 38 742 36 754 q 42 715 39 729 q 63 638 54 678 q 81 558 71 599 q 78 534 79 546 q 78 510 78 522 q 84 475 81 490 q 90 444 88 460 q 92 419 93 433 q 93 396 90 404 q 98 366 97 381 q 103 335 99 351 q 110 315 106 324 q 117 299 114 306 q 121 279 119 289 q 125 260 122 269 q 131 223 131 243 q 144 196 132 203 l 146 196 q 156 232 146 221 q 172 258 165 243 q 173 277 172 268 q 175 296 174 286 q 181 310 178 303 q 188 324 185 317 q 188 344 190 332 q 181 369 185 356 q 176 395 178 382 q 178 421 174 408 q 185 444 181 432 q 192 467 189 456 q 195 485 194 476 q 197 503 196 493 l 214 544 l 218 586 q 225 599 221 593 q 232 613 229 606 q 236 635 235 619 q 240 658 238 651 q 246 699 244 676 q 247 747 247 722 q 247 794 247 771 q 249 838 246 817 l 250 838 q 251 812 250 826 q 255 781 253 797 q 257 751 257 765 q 256 726 257 736 q 253 701 254 717 q 251 669 251 686 q 251 636 250 653 q 253 610 251 619 q 253 581 256 599 q 253 547 250 563 q 256 494 256 524 q 263 442 256 465 q 270 404 267 422 q 276 367 274 386 q 281 309 279 338 q 285 251 282 281 q 290 228 285 238 q 297 208 294 219 q 298 176 301 194 q 297 146 294 157 q 308 122 300 135 q 319 99 315 110 l 322 99 q 326 144 326 122 q 332 193 326 165 q 343 242 336 215 q 343 294 350 269 q 347 306 344 300 q 353 318 350 313 q 356 351 354 335 q 360 383 357 367 q 368 428 364 406 q 376 474 372 450 q 399 555 388 511 q 418 642 411 599 l 422 767 q 433 846 428 807 q 444 924 438 885 l 444 989 q 453 1031 449 1010 q 464 1072 458 1051 q 468 1123 467 1097 q 472 1175 469 1149 z "},"x":{"ha":301,"x_min":-147,"x_max":353,"o":"m 26 1231 q 38 1186 33 1208 q 49 1140 43 1164 q 76 1087 61 1113 q 99 1028 90 1061 q 116 944 110 986 q 135 867 122 903 q 136 849 136 857 q 138 832 136 840 q 167 766 147 801 q 193 700 186 731 q 194 701 193 701 q 194 703 194 701 q 209 741 206 718 q 221 783 213 764 q 244 835 232 807 q 263 886 256 863 q 267 920 268 906 q 271 951 265 935 q 283 993 278 975 q 292 1035 289 1011 q 283 965 292 1003 q 282 900 275 928 q 268 845 276 879 q 263 789 260 811 q 258 773 263 785 q 250 749 254 761 q 242 724 246 736 q 242 708 239 713 q 219 647 231 683 q 213 583 207 610 q 219 544 215 564 q 226 506 222 525 l 226 465 q 237 426 232 446 q 247 388 242 407 q 247 356 250 372 q 246 325 243 339 q 251 315 249 319 q 257 306 254 311 q 264 276 260 290 q 271 246 268 261 q 269 233 269 239 q 268 219 269 226 q 273 191 268 207 q 279 161 278 175 q 276 139 281 151 q 275 114 272 126 q 292 1 285 63 q 293 -104 300 -60 q 295 -127 292 -115 q 301 -149 299 -139 q 300 -158 301 -151 q 300 -168 299 -164 q 310 -234 306 -203 q 322 -300 315 -265 q 330 -322 325 -310 q 333 -343 335 -335 q 336 -362 332 -350 q 344 -389 340 -375 q 351 -416 349 -403 q 347 -436 353 -429 l 346 -436 q 317 -318 336 -376 q 283 -200 297 -260 q 281 -166 282 -183 q 276 -132 279 -149 q 278 -127 278 -129 q 281 -122 279 -125 q 278 -108 281 -118 q 274 -85 276 -97 q 270 -63 272 -74 q 267 -49 268 -53 q 264 -8 265 -28 q 260 32 263 13 q 258 49 260 38 q 253 75 257 61 q 247 101 250 89 q 243 119 244 113 q 241 141 242 131 q 240 163 240 151 q 231 206 236 183 q 221 250 226 228 q 206 330 214 290 q 192 410 199 369 q 187 453 188 428 q 175 490 186 479 q 162 432 174 461 q 142 379 150 403 q 122 316 129 347 q 104 251 114 285 l 83 197 q -6 -76 43 54 q -107 -344 -54 -206 q -119 -404 -117 -371 q -124 -465 -121 -437 q -134 -506 -129 -486 q -144 -546 -139 -526 l -147 -546 q -141 -510 -146 -526 q -133 -479 -136 -494 q -133 -461 -131 -471 q -135 -444 -135 -451 q -124 -359 -131 -406 q -104 -274 -118 -312 q -61 -167 -85 -221 q -22 -57 -37 -114 q 13 60 -7 1 q 47 178 32 119 q 64 249 57 215 q 83 319 71 283 q 113 406 99 361 q 139 494 128 450 q 139 522 139 508 q 140 547 139 535 q 145 561 143 554 q 150 575 147 568 q 148 610 156 594 q 138 638 140 626 q 127 688 129 661 q 117 738 125 714 q 103 774 110 757 q 101 811 100 793 q 99 850 101 829 q 89 892 94 868 q 78 940 83 915 q 70 988 74 964 q 68 1033 67 1013 q 61 1056 68 1044 q 51 1078 54 1068 q 47 1097 47 1089 q 47 1111 47 1104 q 43 1122 44 1117 q 39 1133 42 1128 q 34 1152 36 1139 q 30 1181 32 1165 q 27 1210 28 1196 q 26 1231 26 1224 z "},"y":{"ha":321,"x_min":-8,"x_max":322,"o":"m -8 1035 q 7 1001 3 1021 q 18 961 11 981 q 33 928 25 944 q 47 894 40 911 q 56 858 51 876 q 65 821 60 840 q 87 756 76 786 q 113 693 97 725 q 130 658 121 674 q 146 622 139 642 q 150 597 151 608 q 156 572 149 586 q 167 560 160 564 q 179 549 175 557 q 184 532 183 539 q 187 519 185 525 q 193 509 189 514 q 208 500 197 504 q 210 501 210 500 q 211 501 210 501 q 226 559 218 528 q 243 618 233 590 q 244 630 244 625 q 244 642 244 635 q 249 658 247 650 q 253 674 250 665 q 253 694 253 685 q 254 713 254 703 q 263 742 258 728 q 272 771 268 756 q 273 784 272 778 q 274 797 274 790 q 291 853 282 825 q 307 904 300 881 q 313 934 310 919 q 321 964 317 949 q 322 961 321 963 q 318 942 318 950 q 318 925 318 933 l 301 833 q 299 800 299 821 q 294 767 300 779 q 284 733 289 751 q 276 699 279 715 q 272 656 272 679 q 268 613 272 632 q 240 477 253 542 q 213 342 226 413 q 213 326 213 333 q 214 311 214 318 q 213 301 213 306 q 211 290 213 296 q 215 268 214 279 q 217 243 215 257 q 219 226 219 235 q 213 185 215 210 q 211 134 211 161 q 213 82 211 107 q 219 39 215 57 q 217 6 222 24 q 210 -26 213 -11 q 207 -61 204 -47 q 204 -96 210 -75 q 203 -124 200 -111 q 204 -156 207 -137 q 206 -172 203 -162 q 206 -194 208 -182 q 201 -244 201 -218 q 206 -290 201 -269 q 216 -344 213 -315 q 214 -392 219 -372 q 215 -426 210 -407 q 213 -454 221 -446 q 212 -378 214 -415 q 206 -310 210 -340 q 199 -290 203 -300 q 193 -268 196 -279 q 192 -251 193 -260 q 192 -233 192 -242 q 186 -216 189 -225 q 186 -196 183 -207 q 188 -174 186 -193 q 189 -150 190 -156 q 183 -118 186 -139 q 183 -83 181 -97 q 192 35 190 -29 q 178 163 193 100 q 178 197 178 181 q 179 231 179 214 q 170 269 176 250 q 161 304 164 288 q 161 326 158 315 q 165 343 164 336 q 167 385 169 358 q 161 428 165 413 q 135 510 150 469 q 106 592 121 550 q 101 602 103 597 q 96 613 99 607 q 83 667 90 639 q 67 719 75 696 l 58 765 q 42 830 49 799 q 25 896 36 861 q 22 913 24 904 q 19 931 21 922 q 4 983 13 957 q -8 1035 -4 1008 z "},"z":{"ha":421,"x_min":-75,"x_max":514,"o":"m 511 1175 q 510 1160 514 1169 q 501 1138 507 1150 q 488 1117 494 1126 q 479 1101 482 1107 q 445 1045 464 1072 q 411 990 426 1018 q 386 938 396 965 q 361 888 376 911 q 342 838 346 865 q 326 785 338 810 q 304 740 315 761 q 282 697 293 719 q 277 676 279 686 q 272 654 275 665 q 208 546 240 600 q 147 433 175 492 q 140 406 143 419 q 133 376 138 392 q 107 306 121 340 q 82 232 93 272 q 81 205 79 218 q 79 181 83 192 q 69 140 74 161 q 65 96 64 119 q 97 83 83 92 q 125 67 110 75 q 143 49 135 61 q 163 35 151 38 q 204 30 182 31 q 243 18 226 29 q 253 6 250 14 q 261 -8 256 -1 q 270 -14 265 -11 q 281 -19 275 -17 l 297 -40 q 350 -96 325 -68 q 403 -151 375 -124 q 416 -178 410 -165 q 429 -203 422 -190 q 447 -227 438 -215 q 460 -254 457 -239 q 458 -256 458 -256 q 454 -253 457 -256 q 447 -237 453 -247 q 432 -216 440 -226 q 416 -196 424 -206 q 404 -181 408 -186 q 393 -171 399 -175 q 382 -162 388 -167 q 358 -131 369 -147 q 333 -99 347 -114 q 322 -92 329 -93 q 308 -87 315 -90 q 294 -76 301 -85 q 281 -64 288 -68 q 272 -53 276 -58 q 264 -42 268 -47 q 217 -20 244 -26 q 167 -6 190 -14 q 78 30 122 13 q -7 61 35 47 q -2 83 -7 75 q 7 100 3 90 q 11 114 11 107 q 14 128 11 121 q 31 167 21 146 q 46 208 40 189 q 48 225 47 217 q 49 242 49 233 q 77 317 64 276 q 103 392 90 357 l 115 446 q 129 471 122 458 q 143 496 136 483 q 161 540 151 519 q 170 553 165 547 q 179 567 175 560 q 180 585 183 576 q 181 604 176 593 q 195 622 188 613 q 210 639 203 631 l 218 676 q 232 696 224 685 q 235 734 233 715 q 239 772 236 753 q 260 808 250 790 q 281 842 269 825 q 294 904 292 871 q 296 971 296 938 q 292 972 292 972 q 290 974 293 971 q 254 965 275 972 q 214 961 233 957 q 195 965 204 964 q 175 969 186 967 q 164 977 169 972 q 151 985 158 982 q 115 987 132 992 q 81 988 99 982 q 66 993 75 990 q 50 999 57 996 q 37 997 43 997 q 24 997 31 997 q 8 1005 15 1000 q -7 1013 0 1010 q -17 1011 -12 1011 q -26 1011 -22 1011 q -48 1017 -37 1014 q -71 1024 -58 1021 q -73 1026 -72 1025 q -75 1029 -74 1028 q -28 1026 -53 1031 q 22 1019 -3 1022 q 39 1025 33 1022 q 63 1023 50 1024 q 86 1022 75 1022 q 106 1025 97 1024 q 126 1028 115 1026 q 146 1023 136 1025 q 165 1018 156 1021 q 174 1022 169 1021 q 182 1025 178 1022 q 193 1023 190 1028 q 204 1019 196 1018 q 234 1029 219 1022 q 264 1039 249 1036 q 316 1046 292 1043 q 364 1053 340 1049 q 381 1060 375 1054 q 394 1068 388 1065 q 462 1113 435 1088 q 511 1175 489 1139 z "},"$":{"ha":274,"x_min":-53,"x_max":254,"o":"m 225 539 q 231 551 228 546 q 238 563 235 556 q 238 583 242 574 q 233 604 235 593 q 233 617 231 613 q 233 628 235 622 q 226 643 232 633 q 214 664 221 653 q 200 684 207 675 q 189 697 193 693 q 172 707 183 704 q 156 717 161 710 q 149 730 151 722 q 143 743 147 738 l 142 743 q 142 731 142 736 q 144 718 143 725 q 149 708 146 715 q 153 694 151 700 l 153 646 q 156 629 153 640 q 151 599 154 615 q 146 568 147 582 q 151 538 144 551 q 157 510 158 525 q 150 485 156 497 q 153 483 153 483 q 157 482 154 483 q 176 481 164 479 q 192 476 189 483 q 203 455 201 469 q 207 428 204 440 q 217 408 211 422 q 228 354 226 385 q 224 299 231 324 q 222 286 222 292 q 219 275 221 281 q 213 269 217 272 q 207 264 210 267 q 198 247 201 257 q 192 229 194 236 q 190 219 190 224 q 188 207 189 214 q 176 183 185 194 q 163 160 167 171 q 160 149 160 153 q 156 139 160 144 q 152 137 153 138 q 149 135 151 136 q 148 98 149 115 q 147 63 147 81 q 149 53 149 57 q 151 43 150 49 q 149 16 150 29 q 149 -11 149 3 q 147 -53 146 -31 q 144 -97 147 -75 q 144 -133 144 -115 q 143 -168 144 -150 l 143 -167 q 140 -131 140 -144 q 139 -94 139 -117 q 140 -78 139 -86 q 140 -62 140 -71 q 133 25 136 -18 q 126 111 129 68 q 114 103 119 107 q 103 94 108 100 q 89 78 96 86 q 75 61 82 69 q 70 60 72 60 q 65 57 68 60 q 57 43 63 51 q 42 35 50 38 q 26 26 33 33 q -17 -30 1 1 q -51 -93 -35 -61 l -53 -93 q -23 -20 -42 -53 q 19 40 -4 13 q 40 59 28 51 q 63 78 53 67 q 75 94 69 86 q 88 110 81 101 q 107 125 97 117 q 125 143 117 133 l 125 196 q 118 333 119 263 q 115 474 117 403 q 113 475 114 474 q 102 480 108 478 q 90 485 96 482 q 82 497 86 492 q 74 508 78 501 q 63 515 69 514 q 51 521 56 515 q 44 535 44 528 q 39 551 43 543 q 31 565 33 560 q 29 576 29 571 q 28 586 29 581 q 26 600 26 593 q 24 614 25 607 q 29 659 26 635 q 39 706 32 683 q 42 725 40 715 q 44 744 43 735 q 63 776 51 757 q 75 810 75 794 q 86 813 81 810 q 109 808 97 810 q 133 801 121 806 q 135 850 135 826 q 135 892 135 874 q 133 919 135 907 q 135 946 132 932 q 143 922 142 938 q 144 888 144 906 q 144 851 144 869 q 144 819 143 833 q 146 808 146 813 q 147 797 146 803 q 163 791 156 794 q 176 785 169 788 q 187 764 185 778 q 193 742 189 750 q 201 732 197 736 q 210 722 206 728 q 228 691 219 707 q 247 658 238 675 q 253 629 251 647 q 252 592 254 611 q 243 558 250 574 q 225 539 236 543 m 200 310 q 190 391 210 357 q 144 449 171 425 l 144 444 q 151 413 147 429 q 153 382 156 396 q 149 372 153 376 q 144 361 146 367 q 144 330 144 346 q 143 299 143 314 q 147 242 146 271 q 149 181 149 213 q 158 208 154 194 q 168 236 163 221 q 185 272 175 256 q 200 310 196 289 m 94 528 q 102 519 97 525 q 114 508 107 514 q 114 544 114 526 q 113 579 114 563 q 116 644 111 611 q 121 714 121 678 q 124 731 124 722 q 128 747 125 739 q 117 753 122 750 q 103 753 111 757 q 98 737 101 742 q 92 729 94 732 q 85 724 89 726 q 81 715 82 721 l 81 692 q 66 627 69 653 q 79 567 63 601 q 86 547 83 558 q 94 528 89 536 z "},"&":{"ha":368,"x_min":22,"x_max":379,"o":"m 254 289 q 251 278 251 283 q 247 268 250 274 q 256 231 244 250 q 274 197 267 213 q 291 142 285 168 q 304 83 297 115 q 303 71 304 76 q 303 60 303 65 q 307 20 306 40 q 310 -19 308 0 q 322 -83 317 -49 q 325 -146 328 -117 q 326 -156 324 -151 q 325 -167 328 -161 q 329 -203 328 -179 q 328 -246 331 -226 q 328 -285 325 -261 q 335 -324 332 -308 l 335 -349 q 339 -403 338 -374 q 338 -458 340 -432 q 336 -457 338 -457 q 326 -375 333 -418 q 313 -293 319 -332 q 310 -253 308 -271 q 311 -215 313 -236 q 306 -140 310 -181 q 296 -64 303 -100 q 295 -44 296 -54 q 294 -25 294 -35 q 278 69 285 22 q 257 156 272 115 q 251 178 254 167 q 246 200 249 189 q 244 199 246 199 q 241 190 243 192 q 238 186 239 189 q 239 183 238 185 q 235 156 239 172 q 235 128 231 140 q 204 61 225 92 q 189 49 199 53 q 172 38 179 44 q 160 23 168 33 q 149 10 153 13 q 117 6 139 3 q 86 14 94 8 q 81 22 83 18 q 75 29 78 25 q 69 32 72 31 q 64 35 67 33 q 56 44 58 39 q 51 57 54 50 q 47 60 49 58 q 42 63 44 61 q 40 76 40 69 q 39 90 39 83 q 32 114 36 101 q 25 138 28 126 q 26 162 22 150 q 28 183 29 174 q 26 201 26 193 q 22 219 25 210 q 26 231 25 225 q 31 243 28 236 l 31 264 q 33 285 33 275 q 36 308 33 296 q 41 326 39 317 q 44 343 43 335 l 44 363 q 53 387 47 374 q 63 413 60 400 q 68 438 65 426 q 78 463 71 450 q 90 478 82 467 q 97 495 94 486 q 104 513 99 504 q 117 529 110 521 q 128 549 125 538 q 117 585 131 565 q 101 618 104 606 q 94 655 99 632 q 96 690 90 678 l 104 703 q 109 731 108 718 q 115 756 110 744 q 124 784 122 769 q 140 806 126 799 q 156 808 149 808 q 171 811 164 807 q 185 807 181 808 q 192 803 190 806 q 197 797 194 801 q 203 786 199 793 q 219 760 214 771 q 218 725 225 750 q 213 699 215 714 q 204 669 211 683 q 197 659 201 664 q 190 649 193 654 q 185 629 186 638 q 179 611 183 621 q 167 587 172 599 q 156 563 163 575 q 157 549 154 558 q 163 528 160 539 q 169 507 165 517 q 174 493 172 497 q 202 403 189 446 q 231 315 215 360 l 232 317 q 235 328 232 324 q 242 339 239 333 q 251 365 249 351 q 256 392 253 379 q 260 415 258 403 q 265 438 263 426 q 281 476 271 457 q 300 510 292 496 q 314 539 308 522 q 326 569 319 556 q 342 591 332 581 q 358 610 353 601 q 367 626 363 617 q 379 640 372 635 q 374 629 376 633 q 368 618 371 625 q 344 569 357 592 q 321 521 332 546 q 318 510 319 515 q 315 497 317 504 q 286 431 303 469 q 271 357 269 392 q 267 345 268 350 q 263 335 265 340 l 254 289 l 254 289 m 164 765 q 134 718 138 749 q 129 656 131 688 q 135 643 132 649 q 140 632 138 638 q 144 611 143 624 q 146 588 146 599 q 148 588 147 588 q 150 589 149 589 q 158 608 153 599 q 167 626 164 618 q 172 645 169 636 q 176 664 174 654 q 182 674 179 669 q 188 683 185 679 q 197 716 194 699 q 201 749 199 733 q 192 756 194 751 q 185 764 189 760 q 174 765 179 764 q 164 765 169 765 m 217 204 q 222 224 219 215 q 225 244 225 232 q 212 265 214 253 q 203 289 210 278 q 189 309 196 300 q 176 329 182 318 q 171 344 174 333 q 166 365 168 354 q 163 387 164 376 q 164 400 163 397 q 157 419 161 410 q 150 435 153 428 q 146 453 149 440 q 140 478 143 465 q 135 502 138 492 q 131 514 132 513 q 119 488 128 500 q 104 463 111 475 q 85 416 93 442 q 69 368 78 390 q 58 326 61 347 q 53 285 56 304 q 51 272 50 278 q 50 260 53 267 l 50 217 q 51 183 47 204 q 62 140 56 163 q 76 99 68 118 q 88 75 83 81 q 94 67 89 72 q 106 56 100 61 q 116 47 111 50 q 122 46 121 43 q 136 53 129 46 q 150 64 143 60 q 199 122 188 88 q 217 204 210 157 z "},"@":{"ha":282,"x_min":0,"x_max":265,"o":"m 179 475 q 187 466 182 469 q 194 456 192 463 l 194 435 q 203 404 201 419 q 207 374 204 389 q 213 347 211 358 q 229 329 214 335 q 232 342 229 336 q 238 353 235 347 q 236 372 236 363 q 235 390 236 381 q 240 415 238 399 q 239 444 242 431 q 233 458 238 450 q 226 471 229 465 q 221 493 222 482 q 213 513 219 504 q 190 535 203 525 q 167 556 178 544 q 143 580 151 569 q 108 588 135 590 q 56 506 78 546 l 47 476 q 42 468 44 472 q 36 461 39 464 q 28 420 29 440 q 22 382 26 400 q 24 346 17 363 q 38 317 32 329 q 71 237 54 272 q 119 178 88 201 q 132 167 125 174 q 146 154 139 160 q 160 145 153 149 q 178 144 168 142 q 203 158 193 149 q 219 181 213 168 q 233 209 226 194 q 247 236 239 224 l 249 236 q 250 231 250 233 q 239 198 242 214 q 233 168 236 182 q 222 142 229 154 q 194 121 214 131 q 182 119 186 117 q 172 124 178 122 q 158 125 165 126 q 142 129 150 124 q 116 150 126 138 q 92 172 106 163 q 85 176 89 175 q 78 181 81 176 q 69 199 72 189 q 60 218 67 210 q 49 231 56 224 q 40 244 43 238 q 38 258 39 251 q 35 272 36 265 q 21 292 26 283 q 18 308 19 300 q 14 326 17 317 q 9 333 13 329 q 4 340 6 336 q 2 374 0 353 q 7 406 4 396 q 10 438 11 424 q 14 469 10 453 q 30 506 21 488 q 46 543 39 525 q 54 565 50 551 q 64 591 58 578 q 76 615 69 604 q 89 631 82 626 q 102 635 96 633 q 115 640 108 638 q 153 622 138 631 q 181 603 168 614 q 203 580 193 593 q 225 546 214 567 q 238 528 229 538 q 249 511 246 519 q 251 500 251 504 q 251 489 250 496 q 261 453 254 469 q 261 417 265 436 q 254 383 257 399 q 254 375 253 378 q 257 369 256 372 q 257 358 258 368 q 253 338 256 349 q 249 317 251 326 q 246 307 247 307 q 236 301 242 301 q 224 303 231 301 q 215 315 221 314 q 200 322 210 315 q 195 328 197 325 q 189 333 193 331 q 178 322 186 322 q 165 317 171 322 q 158 304 158 310 q 149 296 158 299 q 88 320 115 303 q 49 374 60 338 q 53 391 51 382 q 58 408 56 400 q 76 460 68 439 q 113 496 85 481 q 117 506 114 500 q 127 512 119 510 q 140 517 135 514 q 161 507 149 518 q 178 489 174 496 q 179 475 178 479 m 140 329 q 176 366 165 339 q 178 421 186 393 q 172 433 175 428 q 165 444 168 439 q 164 464 163 454 q 164 478 165 474 q 153 491 156 485 q 139 500 150 497 q 133 499 136 499 q 128 497 131 499 q 117 472 124 482 q 104 450 110 461 q 97 378 89 411 q 140 329 106 346 z "},"#":{"ha":313,"x_min":-22,"x_max":278,"o":"m 278 369 q 249 362 267 361 q 213 360 232 363 q 210 342 213 349 q 206 324 207 335 q 210 294 206 308 q 211 265 214 281 q 208 242 210 257 q 208 219 206 228 q 213 197 211 208 q 214 174 215 185 q 212 166 213 169 q 210 158 211 163 q 215 127 213 140 q 210 94 217 114 q 208 95 208 94 q 206 96 207 96 q 201 122 203 110 q 196 149 199 135 q 196 165 194 156 q 194 186 197 175 q 187 210 190 197 q 181 236 183 224 q 182 246 179 240 q 183 258 185 251 q 176 303 178 282 q 172 349 175 325 q 138 349 153 349 q 111 342 124 350 q 108 298 108 322 q 100 254 108 274 q 101 240 97 249 q 106 224 104 231 q 104 213 104 218 q 103 200 104 207 q 101 186 103 190 q 108 169 103 179 q 101 154 113 160 l 101 157 q 94 204 97 181 q 88 251 90 228 q 88 269 88 261 q 89 286 88 278 q 90 315 88 299 q 83 342 92 332 q 68 344 76 340 q 53 346 60 349 q 33 338 44 343 q 13 335 21 332 q -1 343 4 340 q -11 342 -7 346 q -19 346 -15 339 q -22 356 -22 349 q 1 365 -12 363 q 30 369 15 367 q 58 374 44 371 q 81 386 72 376 q 81 406 83 392 q 78 431 78 421 q 58 441 72 433 q 40 453 43 449 l 40 456 q 60 463 49 461 q 81 469 71 465 q 77 496 78 481 q 74 524 76 511 q 75 532 75 528 q 76 540 75 536 q 72 556 75 547 q 69 574 68 565 q 75 585 71 579 q 74 619 78 603 q 78 650 71 636 l 82 650 l 90 621 l 90 589 q 96 580 93 585 q 101 571 99 575 l 101 544 q 105 539 103 540 q 108 532 107 538 q 111 502 111 518 q 117 472 111 486 q 144 474 132 475 q 172 476 157 474 q 172 532 174 504 q 172 589 169 560 q 172 601 172 596 q 172 613 171 607 q 175 614 174 613 q 176 613 176 614 q 178 613 176 613 q 185 594 185 608 q 183 571 185 579 q 186 555 182 563 q 192 540 190 547 q 192 506 194 525 q 203 479 189 488 q 213 476 207 476 q 227 476 219 476 q 242 476 235 476 q 254 472 249 476 q 256 469 256 471 q 227 460 244 464 q 207 442 210 457 q 210 415 211 429 q 213 389 210 400 q 222 386 217 388 q 229 379 226 385 q 255 380 239 382 q 278 371 271 378 l 278 369 l 278 369 m 178 389 q 177 413 179 400 q 176 438 175 426 q 150 442 163 440 q 124 444 138 443 q 121 443 122 443 q 118 442 119 443 q 117 416 117 429 q 117 390 117 403 l 163 382 q 178 389 169 388 z "},"?":{"ha":251,"x_min":6,"x_max":246,"o":"m 121 771 q 136 765 125 771 q 158 751 147 758 q 177 738 169 744 q 185 731 185 732 q 203 668 190 699 q 229 610 215 638 q 231 592 231 601 q 232 575 231 583 q 240 545 233 565 q 244 518 246 525 q 241 513 242 515 q 238 508 240 511 l 229 463 q 208 433 219 447 q 185 404 197 419 q 169 390 178 397 q 157 372 161 382 q 142 323 146 351 q 133 274 138 294 q 135 253 133 260 q 125 204 131 233 q 126 147 119 175 q 136 105 131 131 q 135 65 142 79 l 135 64 l 131 64 q 122 77 126 71 q 115 92 118 83 q 115 102 115 97 q 114 113 114 107 q 97 213 99 165 q 108 311 96 261 l 108 336 q 115 356 115 346 q 121 378 115 367 q 124 383 121 378 q 132 395 128 389 q 140 407 136 401 q 143 413 143 413 q 151 418 147 415 q 158 424 154 421 q 166 436 164 429 q 174 450 168 443 q 181 458 178 454 q 189 465 185 463 q 186 480 193 475 q 183 496 179 485 q 192 512 188 504 q 200 526 196 519 q 197 544 203 535 q 189 561 192 554 q 187 582 186 575 q 185 601 188 589 q 176 619 182 613 q 167 636 171 626 q 163 649 164 643 q 160 661 163 654 l 146 675 q 142 691 140 682 q 136 706 143 700 q 125 706 133 708 q 113 701 117 704 q 87 665 104 683 q 47 642 69 646 q 38 606 42 626 q 38 572 35 589 q 43 536 42 554 q 38 525 43 529 q 33 514 33 521 q 44 467 33 490 q 56 418 54 443 l 54 418 q 53 419 53 418 q 33 473 46 446 q 13 531 19 500 q 10 566 8 549 q 8 603 11 583 q 6 622 7 611 q 8 642 6 633 q 22 666 15 654 q 36 689 29 678 q 38 696 38 692 q 40 703 39 700 q 51 715 43 710 q 63 725 58 719 q 67 735 65 731 q 72 746 69 740 q 96 760 82 757 q 121 771 110 764 m 117 43 q 131 40 124 42 q 142 32 139 39 q 143 23 144 28 q 142 15 142 18 q 146 -15 143 -3 q 142 -47 149 -28 q 131 -50 136 -50 q 109 -33 124 -47 q 97 -7 94 -18 q 101 2 97 -3 q 107 11 106 7 q 108 24 110 18 q 108 38 106 31 q 113 40 111 39 q 117 43 114 42 z "},"!":{"ha":76,"x_min":-7,"x_max":68,"o":"m 32 793 q 40 789 36 790 q 46 785 43 788 q 49 772 47 782 q 50 749 50 761 q 51 726 50 738 q 51 707 51 714 q 51 694 51 700 q 50 681 51 688 q 50 673 53 676 q 50 663 47 669 q 56 612 56 639 q 53 560 56 585 q 55 549 54 554 q 57 536 56 543 q 52 525 54 531 q 47 513 50 519 q 45 497 46 506 q 42 482 44 489 q 43 464 43 472 q 44 446 43 456 q 45 376 42 407 q 57 307 49 346 q 57 285 57 296 q 58 264 57 275 q 58 236 60 250 q 56 211 57 222 q 53 169 54 190 q 50 128 53 149 q 52 113 50 121 q 56 97 54 104 q 56 81 57 89 q 47 69 54 74 q 42 67 44 67 q 33 74 39 68 q 31 99 32 88 q 26 126 29 111 q 26 138 26 132 q 28 149 26 143 q 25 161 25 157 q 33 213 28 181 q 33 276 39 246 q 21 347 26 313 q 15 414 15 381 q 13 430 17 422 q 6 444 8 438 q 6 454 6 446 q 6 472 6 463 q 8 488 7 481 q 8 497 8 496 q 14 499 11 497 q 13 503 13 501 q 8 507 8 506 q 3 511 7 508 q 11 541 6 528 q 22 568 17 554 q 19 579 22 574 q 20 598 19 589 q 21 617 21 607 q 13 646 18 628 q 10 672 7 664 l 10 674 q 6 674 8 674 q 1 675 4 675 q 4 696 1 686 q 6 718 7 706 q -1 741 4 726 q -4 763 -7 756 q 10 781 0 774 q 32 793 19 788 m 38 44 q 51 42 44 43 q 61 33 58 40 q 63 25 64 29 q 61 17 61 21 q 65 -12 63 0 q 61 -44 68 -25 q 56 -47 58 -46 q 51 -49 54 -47 q 28 -31 43 -46 q 17 -6 14 -17 q 22 4 18 -1 q 26 13 25 10 q 27 26 29 19 q 28 39 25 32 q 38 44 31 42 z "},"(":{"ha":183,"x_min":-1,"x_max":214,"o":"m 154 800 q 143 769 149 785 q 132 738 138 753 q 126 730 129 733 q 121 722 124 726 q 113 694 117 708 q 104 667 108 681 q 90 638 99 653 q 72 611 81 624 q 51 565 60 589 q 36 513 43 540 q 38 495 35 510 q 39 471 42 481 q 35 440 36 456 q 36 408 33 424 q 34 364 39 389 q 35 319 29 339 q 44 292 39 307 q 53 264 50 276 q 54 245 56 253 q 51 231 53 238 q 52 198 47 211 q 68 171 57 185 q 64 140 64 151 q 79 117 64 128 q 88 110 83 113 q 96 101 93 108 q 102 85 99 93 q 110 67 106 76 q 108 53 108 63 q 118 37 114 44 q 128 22 122 29 q 142 -8 135 6 q 158 -35 149 -21 q 188 -60 167 -47 q 214 -86 210 -72 q 194 -72 203 -81 q 176 -57 185 -64 q 159 -44 168 -50 q 140 -31 150 -37 q 122 -8 129 -21 q 104 17 114 6 q 97 24 101 21 q 89 32 93 28 q 78 56 82 43 q 68 79 75 68 q 52 102 61 90 q 35 128 43 114 q 24 157 28 142 q 22 192 19 172 q 20 215 24 199 q 13 247 17 231 q 7 277 10 264 q 7 294 4 290 q 0 328 1 307 q -1 372 -1 350 q 1 415 -1 394 q 4 446 3 435 q 6 488 7 469 q 13 526 6 506 q 37 585 22 557 q 67 639 51 613 q 72 654 71 646 q 78 671 74 663 q 89 686 82 678 q 101 703 96 694 q 113 721 108 713 q 124 738 117 729 q 133 761 129 749 q 143 786 138 774 q 149 792 146 789 q 154 800 151 796 z "},"[":{"ha":154,"x_min":-22,"x_max":154,"o":"m -19 751 q 16 744 -3 746 q 55 744 35 743 q 94 748 75 746 q 132 751 114 750 l 132 750 l 131 750 q 119 740 126 743 q 106 733 111 738 q 101 726 103 729 q 99 719 100 722 q 71 706 89 710 q 40 699 53 703 q 36 680 42 688 q 26 663 31 672 q 28 653 26 661 q 31 636 29 646 q 33 617 32 626 q 35 607 35 608 q 26 590 32 600 q 18 569 21 579 q 15 539 17 554 q 11 508 14 524 q 9 469 8 492 q 13 431 10 447 q 13 396 15 411 q 17 363 11 381 l 33 313 q 38 267 40 292 q 36 228 35 243 q 38 179 39 206 q 35 127 36 153 q 36 78 33 101 q 50 39 39 56 q 81 31 68 38 q 105 17 93 25 q 128 0 117 8 q 154 -12 139 -8 q 153 -17 154 -15 q 143 -15 149 -14 q 133 -15 138 -17 q 128 -11 131 -14 q 124 -7 126 -8 q 110 -5 121 -6 q 89 -4 100 -4 q 67 -6 78 -4 q 50 -8 56 -7 q 25 -19 39 -11 q 1 -25 11 -26 q -1 -21 -1 -22 q 3 9 4 -8 q 0 40 3 26 q -1 63 -3 51 q 4 82 1 74 l 4 151 q 6 191 7 171 q 1 236 4 211 q 4 243 4 242 q 3 272 4 258 q 3 301 3 286 q -8 344 -1 325 q -19 386 -15 363 l -19 411 q -20 443 -21 425 q -18 476 -19 461 q -12 558 -14 517 q -8 639 -11 599 q -6 678 -7 656 q -10 721 -6 701 q -17 735 -12 729 q -19 751 -22 740 z "},"]":{"ha":174,"x_min":-11,"x_max":164,"o":"m 163 751 q 160 735 164 740 q 153 721 156 729 q 149 678 149 701 q 151 639 150 656 q 155 558 153 599 q 161 476 157 517 q 163 443 163 461 q 161 411 164 425 q 162 398 161 404 q 163 386 163 392 q 151 344 158 363 q 140 301 144 325 q 139 272 139 286 q 138 243 139 258 q 140 236 140 238 q 137 191 139 211 q 138 151 135 171 q 139 117 139 133 q 139 82 139 100 q 144 63 142 74 q 143 40 146 51 q 140 9 140 26 q 144 -21 139 -8 q 143 -23 143 -22 q 142 -25 143 -24 q 118 -19 132 -26 q 92 -8 104 -11 q 76 -6 88 -7 q 54 -4 65 -4 q 33 -5 43 -4 q 19 -7 22 -6 q 15 -11 17 -8 q 10 -15 13 -14 q 0 -15 6 -17 q -11 -17 -6 -14 l -11 -12 q 15 0 3 -8 q 38 17 26 8 q 62 31 49 25 q 93 39 75 38 q 107 78 104 56 q 108 127 110 101 q 106 179 107 153 q 107 228 104 206 q 106 267 108 243 q 110 313 103 292 l 126 363 q 129 396 132 381 q 129 431 126 411 q 133 469 132 447 q 132 508 135 492 q 128 539 129 524 q 124 569 126 554 q 116 590 121 579 q 108 607 111 600 q 110 617 108 608 q 113 636 111 626 q 115 653 114 646 q 115 663 115 661 q 107 680 113 672 q 103 699 101 688 q 72 706 90 703 q 44 719 54 710 q 41 726 42 722 q 38 733 40 729 q 24 740 32 738 q 13 750 15 743 l 10 750 l 10 751 q 88 744 46 749 q 163 751 129 740 z "},")":{"ha":139,"x_min":-86,"x_max":129,"o":"m -25 800 q -20 792 -22 796 q -15 786 -18 789 q -5 761 -10 774 q 6 738 0 749 q 17 721 13 729 q 28 703 21 713 q 40 686 33 694 q 51 671 47 678 q 57 654 56 663 q 61 639 58 646 q 92 585 76 613 q 115 526 107 557 q 122 488 122 506 q 125 446 121 469 q 128 415 126 435 q 129 372 129 394 q 128 328 129 350 q 122 294 126 307 q 122 277 124 290 q 116 247 119 264 q 109 215 113 231 q 107 192 106 199 q 106 157 110 172 q 94 128 101 142 q 77 102 86 114 q 61 79 68 90 q 50 56 54 68 q 39 32 46 43 q 32 24 36 28 q 25 17 28 21 q 7 -8 15 6 q -12 -31 -1 -21 q -30 -44 -21 -37 q -47 -57 -39 -50 q -65 -72 -57 -64 q -85 -86 -74 -81 l -86 -86 q -60 -60 -81 -72 q -31 -35 -39 -47 q -12 -8 -19 -21 q 1 22 -6 6 q 10 37 6 29 q 21 53 15 44 q 19 67 21 63 q 33 101 26 88 q 40 110 36 108 q 50 117 44 113 q 65 140 65 128 q 61 171 65 151 q 77 198 72 185 q 78 231 82 211 q 74 245 75 238 q 76 264 74 253 q 85 292 79 276 q 93 319 90 307 q 94 364 99 339 q 93 408 90 389 q 90 471 94 436 q 90 495 88 481 q 93 513 93 510 q 78 565 86 540 q 56 611 69 589 q 40 638 49 624 q 25 667 31 653 q 17 694 21 681 q 8 722 13 708 q 2 730 6 726 q -4 738 -1 733 l -25 800 l -25 800 z "},"-":{"ha":406,"x_min":35,"x_max":353,"o":"m 336 404 q 347 403 343 404 q 353 400 350 401 l 353 394 l 347 389 q 320 388 335 388 q 293 386 306 389 q 289 383 290 385 q 285 378 288 381 q 272 375 282 376 q 258 372 263 374 q 226 371 243 369 q 194 368 210 372 q 184 362 188 365 q 174 357 181 358 q 162 360 169 357 q 150 363 154 363 q 129 363 139 363 q 110 364 119 364 q 103 367 107 365 q 97 369 100 368 q 65 372 81 375 q 35 381 50 369 q 36 389 36 383 q 49 389 44 390 q 60 385 53 388 q 68 390 64 388 q 76 396 72 393 q 83 394 79 397 q 92 393 88 390 q 108 401 100 396 q 128 410 117 407 q 171 404 151 417 q 204 406 188 406 q 236 408 221 407 q 249 406 243 407 q 261 403 254 404 q 277 400 267 400 q 299 400 288 400 q 322 401 311 400 q 336 404 332 403 z "},"'":{"ha":114,"x_min":6,"x_max":96,"o":"m 35 728 q 68 710 53 728 q 89 678 83 693 q 81 643 82 663 q 86 604 81 624 q 91 592 89 597 q 96 581 93 586 q 76 525 93 547 q 44 481 58 503 q 30 460 39 472 q 10 446 21 447 q 7 449 7 449 q 15 461 10 457 q 25 472 21 465 q 47 512 38 492 q 64 560 57 532 q 58 593 68 581 q 35 617 47 606 q 14 644 22 629 q 13 686 6 660 q 17 698 14 693 q 24 708 21 703 q 28 719 26 715 q 35 728 29 724 z "},"":{"ha":194,"x_min":1,"x_max":178,"o":"m 31 732 q 64 716 49 733 q 85 683 79 699 q 77 649 78 668 q 82 610 76 629 q 87 597 85 603 q 92 585 89 592 q 72 530 89 551 q 40 486 54 508 q 26 465 35 478 q 6 451 17 453 l 3 454 q 11 466 6 463 q 21 476 17 469 q 43 517 33 496 q 60 564 53 538 q 53 597 64 585 q 31 622 43 610 q 10 650 18 635 q 8 692 1 665 q 13 703 10 699 q 19 713 17 708 q 24 724 22 719 q 31 732 25 728 m 124 701 q 153 688 139 703 q 172 658 168 672 q 165 627 165 644 q 171 593 165 610 q 174 583 174 588 q 178 571 175 578 q 160 522 176 542 q 133 483 144 503 q 121 465 129 476 q 101 453 113 454 q 100 456 101 456 q 108 466 103 463 q 115 475 113 469 q 135 511 126 493 q 150 553 144 529 q 145 582 154 571 q 125 604 136 593 q 106 628 114 615 q 104 665 99 642 q 109 676 107 672 q 114 685 111 681 q 119 694 118 690 q 124 701 119 699 z "},"":{"ha":190,"x_min":8,"x_max":185,"o":"m 156 467 q 122 484 138 467 q 101 517 106 501 q 109 551 108 532 q 103 590 110 571 q 99 602 100 597 q 94 614 97 607 q 113 669 96 647 q 144 714 131 692 q 160 734 150 721 q 181 747 169 747 l 182 746 q 174 733 179 738 q 164 722 168 729 q 142 682 153 703 q 126 635 132 661 q 132 601 122 614 q 154 577 142 589 q 176 550 167 565 q 178 508 185 535 q 172 497 175 501 q 167 486 169 492 q 162 475 163 479 q 156 467 161 471 m 61 497 q 32 513 46 497 q 14 542 18 528 q 15 606 26 571 q 11 617 13 613 q 8 628 10 622 q 25 676 10 657 q 53 715 40 696 q 65 733 57 722 q 83 746 72 744 q 85 743 85 746 q 78 733 83 736 q 69 724 74 729 q 50 688 58 707 q 36 646 42 669 q 41 617 32 628 q 60 594 50 606 q 78 569 71 583 q 81 533 86 556 q 76 524 79 528 q 71 514 74 519 q 67 505 68 508 q 61 497 67 501 z "},".":{"ha":121,"x_min":-11,"x_max":57,"o":"m 17 115 q 34 112 25 114 q 47 101 43 110 q 49 90 50 96 q 47 81 47 85 q 53 42 49 58 q 47 3 57 26 q 33 -1 39 0 q 21 6 29 0 q 6 19 13 11 q -6 37 -1 28 q -10 53 -11 46 q -3 65 -8 58 q 3 76 1 71 q 4 93 7 85 q 4 108 1 101 q 17 115 13 114 z "},",":{"ha":131,"x_min":-10,"x_max":78,"o":"m 19 118 q 51 101 36 118 q 72 71 67 85 q 65 37 65 56 q 69 -1 64 18 q 74 -13 72 -8 q 78 -25 75 -18 q 60 -78 76 -57 q 29 -121 43 -100 q 15 -140 25 -128 q -6 -154 6 -153 q -7 -151 -6 -153 q 1 -140 -4 -143 q 11 -129 7 -136 q 32 -91 22 -111 q 47 -44 42 -71 q 42 -12 51 -25 q 21 12 33 0 q -1 38 8 24 q -3 78 -10 53 q 3 90 0 85 q 8 99 6 94 q 13 110 13 106 q 19 118 14 114 z "},":":{"ha":100,"x_min":1,"x_max":79,"o":"m 40 300 q 58 295 49 297 q 71 286 67 293 q 72 274 74 279 q 71 264 69 269 q 76 226 72 243 q 71 186 79 210 q 57 182 65 185 q 44 190 51 183 q 28 204 36 196 q 17 221 21 213 q 14 236 13 229 q 19 248 15 242 q 26 260 24 254 q 27 276 29 268 q 28 293 25 285 q 40 300 32 294 m 29 514 q 47 510 39 513 q 60 500 56 507 q 61 489 63 494 q 60 479 60 483 q 65 441 61 457 q 60 401 69 425 q 53 399 57 400 q 47 396 50 397 q 33 403 42 397 q 18 418 25 410 q 6 435 11 426 q 3 450 1 443 q 10 463 6 456 q 17 474 14 469 q 17 491 19 483 q 18 507 15 499 q 24 510 21 510 q 29 514 26 511 z "},";":{"ha":122,"x_min":7,"x_max":96,"o":"m 35 519 q 52 515 43 517 q 65 506 61 513 q 66 494 68 499 q 65 483 64 489 q 70 446 67 463 q 65 406 74 429 q 51 401 60 404 q 38 409 46 403 q 23 424 31 415 q 11 440 15 432 q 8 456 7 449 q 14 467 10 461 q 21 479 18 474 q 22 496 24 488 q 22 513 19 504 q 35 519 26 514 m 36 292 q 69 275 54 292 q 89 244 85 258 q 82 210 82 229 q 88 172 82 192 q 92 160 90 165 q 96 149 93 156 q 76 95 93 117 q 47 53 60 74 q 33 33 42 46 q 13 19 24 21 q 11 22 11 21 q 18 34 13 31 q 28 44 24 38 q 49 83 39 63 q 65 129 58 103 q 60 161 69 149 q 38 185 50 174 q 17 212 25 197 q 15 251 8 226 q 20 263 17 258 q 26 272 24 268 q 31 283 29 279 q 36 292 32 288 z "},"+":{"ha":303,"x_min":-21,"x_max":297,"o":"m 281 465 q 297 461 289 465 l 297 456 q 290 450 294 454 q 265 449 279 449 q 238 447 250 450 q 233 444 235 446 q 229 440 232 442 q 216 436 226 438 q 203 433 206 435 q 181 433 192 432 q 160 432 171 433 q 163 423 161 428 q 165 411 164 418 q 162 391 165 404 q 158 371 158 378 q 156 336 157 353 q 156 301 156 319 q 152 292 153 296 q 149 282 151 288 q 145 226 143 251 q 136 175 147 200 q 132 176 133 176 q 128 178 131 176 q 128 197 126 190 q 132 215 129 204 q 127 230 129 222 q 122 244 125 238 q 124 257 121 251 q 125 269 128 263 q 118 300 122 285 q 111 332 114 315 q 110 369 108 350 q 118 404 111 389 q 117 412 118 408 q 117 418 117 415 q 106 421 114 418 q 93 425 99 424 l 53 425 q 47 428 50 426 q 42 431 44 429 q 10 433 25 436 q -21 442 -6 431 q -19 450 -19 444 q 3 446 -8 451 q 13 451 8 449 q 21 457 17 454 q 27 456 24 458 q 36 454 31 453 q 53 463 44 457 q 72 471 61 468 q 94 472 83 474 q 115 465 106 471 l 117 465 q 116 491 117 478 q 115 517 115 504 q 119 538 118 528 q 122 558 121 547 q 125 586 124 568 q 127 624 126 604 q 126 662 128 644 q 124 688 125 679 q 129 715 125 704 l 133 715 q 137 710 136 713 q 140 706 138 708 q 140 660 140 685 q 142 614 139 635 q 144 606 142 607 q 147 600 146 604 q 151 578 150 594 q 153 556 151 563 q 153 513 154 536 q 153 468 151 490 q 167 469 160 468 q 181 469 174 469 q 193 467 188 468 q 204 464 199 465 q 221 461 210 461 q 244 461 232 461 q 266 463 256 461 q 281 465 276 464 z "},"=":{"ha":397,"x_min":42,"x_max":364,"o":"m 347 557 q 364 553 357 557 l 364 549 q 358 542 360 544 q 331 541 346 540 q 304 539 317 542 q 300 535 301 538 q 296 532 299 533 q 283 528 293 529 q 269 526 272 526 q 238 524 254 524 q 206 521 221 525 q 195 515 199 518 q 185 510 192 511 q 173 513 181 510 q 161 517 165 515 l 121 517 q 108 524 117 518 q 76 525 92 528 q 46 533 61 522 q 47 542 47 536 q 60 542 56 543 q 69 539 64 542 q 79 544 75 542 q 88 549 83 546 q 94 547 90 550 q 103 546 99 544 q 119 554 111 549 q 139 563 128 560 q 182 557 163 569 q 215 559 199 558 q 247 561 231 560 q 260 558 254 560 q 272 556 265 557 q 288 553 278 554 q 310 553 299 553 q 333 554 322 553 q 347 557 343 556 m 342 435 q 358 431 351 435 l 358 425 l 353 419 q 326 419 340 418 q 299 417 311 419 q 294 413 296 415 q 290 410 293 411 q 278 406 288 407 q 264 403 268 404 q 233 401 250 400 q 200 399 217 403 q 190 392 193 396 q 179 388 186 389 q 168 390 176 388 q 156 393 160 393 q 135 394 144 393 q 115 394 126 394 q 109 397 113 396 q 103 400 106 399 q 71 403 86 406 q 42 411 56 400 q 43 419 42 417 q 65 415 54 421 q 74 421 69 418 q 82 426 78 424 q 90 424 86 428 q 97 424 93 421 q 115 432 107 426 q 133 440 124 438 q 176 435 157 447 l 243 439 q 254 436 249 438 q 267 433 260 435 q 283 431 272 431 q 305 431 293 431 q 327 432 317 431 q 342 435 338 433 z "},"_":{"ha":414,"x_min":-37,"x_max":422,"o":"m 399 21 q 412 19 407 21 q 422 15 417 18 l 422 11 q 418 8 419 10 q 414 6 417 7 q 375 5 396 4 q 336 3 354 6 q 329 0 331 1 q 324 -4 328 -1 q 306 -7 319 -6 q 286 -8 292 -8 q 242 -10 265 -11 q 194 -12 218 -8 q 179 -17 185 -14 q 164 -22 174 -21 q 147 -19 158 -22 q 129 -15 136 -17 q 100 -15 114 -15 q 71 -14 86 -14 q 53 -7 63 -12 q 6 -4 28 -1 q -37 4 -17 -7 q -36 13 -36 7 q -19 13 -25 14 q -3 10 -12 13 q 10 15 4 13 q 22 19 15 17 q 31 17 26 19 q 43 15 36 14 q 69 24 57 18 q 96 32 81 29 q 158 25 131 36 q 206 26 182 26 q 254 28 231 26 q 271 24 263 25 q 289 21 279 24 q 313 17 297 18 q 344 17 328 17 q 376 18 361 17 q 399 21 392 19 z "},"*":{"ha":307,"x_min":-10,"x_max":307,"o":"m 290 622 q 307 617 301 621 l 307 613 q 304 609 306 610 q 301 606 303 608 q 274 605 289 604 q 247 603 260 606 q 243 599 244 601 q 239 596 242 597 q 226 592 236 593 q 213 589 217 590 l 185 589 q 187 581 186 585 q 189 574 188 576 q 199 556 194 564 q 208 538 204 547 q 210 525 208 529 q 224 495 214 507 q 232 465 233 483 q 228 464 229 464 q 224 463 226 464 q 215 483 215 472 q 206 488 211 486 q 197 493 201 490 q 195 501 194 496 q 193 508 196 506 q 176 519 186 515 q 160 531 167 524 q 146 554 150 539 q 145 553 146 553 q 144 551 144 553 q 134 535 139 543 q 124 517 129 526 q 118 514 121 515 q 113 510 115 513 q 94 483 100 497 q 72 461 89 468 q 69 465 71 464 q 67 467 68 465 q 81 485 69 478 l 81 506 q 85 510 81 508 q 90 517 89 513 q 91 536 92 526 q 93 556 90 546 q 106 579 97 571 q 104 581 106 581 l 64 581 q 58 584 61 583 q 51 588 54 585 q 19 589 35 592 q -10 597 4 586 q -8 606 -10 603 q 14 603 4 607 q 22 608 18 606 q 31 613 26 610 q 38 611 35 614 q 46 610 42 608 q 64 618 56 613 q 82 626 72 624 q 106 628 93 631 q 103 638 104 633 q 100 649 101 643 q 94 665 99 654 q 83 685 89 675 q 70 703 76 694 q 60 714 64 711 q 56 731 56 724 q 58 732 57 732 q 60 733 58 732 q 64 732 63 732 q 68 731 65 732 q 82 708 75 721 q 99 686 89 696 q 103 684 101 683 q 108 682 106 685 q 117 672 111 679 q 126 663 124 665 q 135 651 131 657 q 143 638 139 644 q 146 644 144 640 q 149 650 147 647 q 157 658 153 654 q 165 668 161 663 q 176 681 169 672 q 188 701 182 690 q 197 720 193 711 q 201 735 201 729 q 214 746 206 740 q 216 745 215 746 q 218 744 217 744 q 219 740 219 742 q 221 736 219 739 q 208 713 215 725 q 197 688 200 700 q 197 682 196 685 q 199 676 199 679 q 196 664 199 674 q 190 651 193 654 q 176 625 186 640 l 190 625 q 203 623 197 624 q 215 619 208 622 q 231 617 221 618 q 253 617 242 617 q 276 619 265 618 q 290 622 286 619 z "},"/":{"ha":694,"x_min":-69,"x_max":278,"o":"m 275 751 q 274 727 278 742 q 265 697 271 713 q 252 665 258 681 q 243 636 246 649 q 241 625 242 631 q 239 614 240 619 q 222 584 232 603 q 211 547 213 565 q 212 535 211 543 q 213 522 213 528 l 196 481 q 195 472 196 476 q 194 464 194 468 q 179 439 188 453 q 165 414 171 425 q 161 385 158 399 q 157 358 164 372 q 140 334 150 342 q 125 304 131 326 q 121 274 122 290 q 114 247 119 258 q 106 238 111 242 q 99 231 101 235 l 78 176 q 47 73 67 128 q 7 -35 28 18 q 6 -44 6 -39 q 4 -54 6 -49 q -5 -77 0 -65 q -15 -100 -10 -89 q -28 -135 -22 -115 q -46 -175 -35 -156 q -57 -206 -51 -190 q -68 -237 -62 -222 l -69 -236 q -61 -203 -65 -215 q -50 -171 -57 -190 q -44 -156 -47 -164 q -39 -142 -42 -149 q -17 -58 -28 -100 q 6 25 -6 -17 q 17 58 11 42 q 28 90 22 74 q 80 262 50 174 q 138 435 110 350 q 162 490 147 463 q 188 550 176 518 q 198 567 193 558 q 208 582 203 575 q 235 645 222 610 q 257 704 247 681 q 265 729 263 718 q 275 751 268 740 z "},"\\":{"ha":694,"x_min":-62,"x_max":251,"o":"m 251 -242 q 237 -222 243 -236 q 226 -192 231 -208 q 217 -158 221 -175 q 207 -131 213 -142 q 202 -120 204 -125 q 197 -110 200 -115 q 193 -76 196 -96 q 179 -40 190 -56 q 172 -31 176 -37 q 165 -21 168 -25 q 159 1 163 -10 q 153 24 156 13 q 144 38 147 32 q 141 67 142 50 q 138 94 140 83 q 124 119 135 110 q 111 144 114 129 q 110 174 107 163 q 104 207 114 186 q 90 233 99 219 q 79 260 82 247 q 80 271 78 265 q 82 282 82 276 q 74 310 78 296 q 67 339 69 324 q 29 440 46 385 q -1 549 13 494 q -7 557 -4 553 q -12 567 -10 561 q -18 590 -15 578 q -24 615 -21 603 q -34 652 -26 632 q -44 693 -42 672 q -53 726 -49 710 q -62 757 -58 742 q -61 756 -61 757 q -49 724 -53 736 q -37 693 -44 713 q -35 678 -36 686 q -31 663 -33 671 q 2 583 -14 622 q 35 503 18 543 l 56 436 q 115 267 88 357 q 172 94 143 178 q 186 35 182 67 q 201 -28 190 4 q 202 -47 201 -37 q 203 -67 203 -57 q 219 -132 208 -96 q 238 -192 231 -168 q 245 -217 240 -207 q 251 -242 250 -228 z "},"%":{"ha":694,"x_min":-26,"x_max":331,"o":"m 326 808 q 326 784 329 799 q 316 753 322 769 q 303 720 310 736 q 294 692 297 704 q 292 681 293 686 q 289 669 292 676 q 274 640 283 658 q 263 603 264 621 q 263 592 263 600 q 264 579 264 585 q 256 558 260 568 q 247 536 251 547 q 246 521 246 531 q 231 494 239 508 q 217 469 222 481 q 213 441 210 454 q 208 414 215 428 q 192 391 201 399 q 176 361 182 383 q 172 331 174 347 q 165 303 171 314 q 158 294 163 299 q 150 286 153 290 l 129 232 q 99 129 118 183 q 58 22 79 75 q 57 12 57 17 q 56 3 57 7 q 47 -20 51 -8 q 36 -44 42 -32 q 22 -80 28 -60 q 6 -119 15 -100 q -6 -150 -1 -135 q -18 -181 -11 -165 l -18 -179 q -10 -147 -14 -160 q 1 -115 -6 -135 q 7 -101 4 -108 q 13 -86 10 -93 q 34 -3 24 -44 q 56 81 44 39 q 67 114 63 97 q 79 147 72 131 q 131 318 101 231 q 189 492 161 406 q 213 547 199 519 q 239 607 228 575 q 249 623 244 615 q 260 639 254 631 q 286 701 274 667 q 308 760 299 736 q 316 785 313 774 q 326 808 319 797 m 138 532 q 140 550 142 539 q 136 568 138 561 q 133 590 133 578 q 131 613 133 603 q 124 624 128 619 q 118 635 121 628 q 114 661 115 646 q 108 688 113 676 q 98 699 106 694 q 88 711 90 704 q 81 712 85 711 q 75 713 78 713 q 67 712 71 713 q 60 711 64 711 q 36 703 50 707 q 15 690 22 699 q -12 633 -4 667 q -13 623 -12 628 q -14 613 -14 618 q -19 590 -17 601 q -21 567 -22 578 q -24 552 -21 558 q -24 538 -26 546 q -15 519 -21 531 q -9 490 -11 506 q 0 464 -7 475 q 6 456 3 460 q 13 450 10 453 q 25 429 19 443 q 42 413 31 415 q 50 413 46 411 q 58 415 54 414 q 78 425 74 419 q 92 442 83 431 q 95 444 94 443 q 99 447 96 446 q 99 451 100 449 q 101 454 99 453 q 106 456 104 457 q 110 458 108 456 q 115 474 113 465 q 130 494 122 485 q 140 518 138 504 q 140 525 142 521 q 138 532 139 529 m 107 492 q 97 474 103 482 q 85 458 92 465 q 78 448 81 454 q 74 438 76 442 q 66 431 71 433 q 58 424 61 429 l 43 424 q 33 433 39 429 q 25 444 28 438 q 24 449 24 447 q 24 453 25 450 q 21 458 22 456 q 18 464 19 461 q 9 489 13 475 q 3 515 6 503 q 4 523 1 519 q 6 532 7 526 q 3 535 4 535 q 1 538 1 536 q 1 547 -1 543 q 6 553 4 550 q 6 568 8 560 q 4 583 3 576 q 10 621 7 600 q 22 654 14 642 q 35 665 26 660 q 50 672 43 669 q 60 673 56 674 q 71 675 65 672 q 81 668 75 674 q 83 647 83 654 q 88 640 86 644 q 92 632 90 636 q 88 612 89 625 q 89 592 86 599 q 96 581 90 589 q 104 569 101 574 q 109 553 107 564 q 111 532 111 543 q 110 510 111 521 q 107 492 110 499 m 326 93 q 328 110 331 100 q 325 128 326 121 q 322 151 322 139 q 319 174 322 164 q 313 185 317 181 q 307 196 310 189 q 303 222 304 207 q 297 249 301 236 q 287 260 294 256 q 276 272 279 265 q 270 273 274 272 q 264 274 267 274 q 256 273 260 274 q 249 272 253 272 q 225 263 239 267 q 204 251 211 260 q 176 194 185 228 q 176 184 176 189 q 175 174 175 179 q 169 151 172 163 q 168 128 167 139 q 165 113 168 119 q 165 97 163 107 l 174 81 q 180 50 178 65 q 189 24 182 35 q 195 17 192 21 q 201 11 199 14 q 214 -10 208 4 q 231 -26 219 -24 q 239 -26 235 -28 q 247 -24 243 -25 q 267 -14 263 -19 q 281 3 272 -8 q 284 6 283 4 q 288 8 285 7 q 288 12 289 10 q 290 15 288 14 q 295 17 293 18 q 299 19 297 17 q 304 35 301 26 q 319 55 311 44 q 329 79 326 65 q 329 86 331 82 q 326 93 328 90 m 296 53 q 286 35 292 43 q 274 19 281 26 q 267 9 269 15 q 263 -3 265 3 q 255 -8 260 -6 q 247 -15 250 -10 l 232 -15 q 222 -6 228 -10 q 214 6 217 -1 q 213 10 213 8 q 213 13 214 11 q 210 18 211 15 q 207 24 208 21 q 198 50 201 36 q 192 76 194 64 q 193 84 190 81 q 194 93 196 88 q 192 97 193 96 q 189 99 190 97 q 190 107 188 103 q 194 114 193 111 q 194 129 197 121 q 193 144 192 138 q 199 182 196 161 q 211 215 203 203 q 224 225 215 219 q 239 233 232 231 q 249 234 244 235 q 260 236 254 233 q 269 229 264 235 q 271 219 271 224 q 272 208 271 214 q 277 201 275 204 q 281 193 279 197 q 276 173 278 186 q 278 153 275 160 q 285 142 279 150 q 293 131 290 135 q 298 115 296 125 q 300 93 300 104 q 299 71 300 82 q 296 53 299 60 z "},"\"":{"ha":194,"x_min":1,"x_max":178,"o":"m 31 732 q 64 716 49 733 q 85 683 79 699 q 77 649 78 668 q 82 610 76 629 q 87 597 85 603 q 92 585 89 592 q 72 530 89 551 q 40 486 54 508 q 26 465 35 478 q 6 451 17 453 l 3 454 q 11 466 6 463 q 21 476 17 469 q 43 517 33 496 q 60 564 53 538 q 53 597 64 585 q 31 622 43 610 q 10 650 18 635 q 8 692 1 665 q 13 703 10 699 q 19 713 17 708 q 24 724 22 719 q 31 732 25 728 m 124 701 q 153 688 139 703 q 172 658 168 672 q 165 627 165 644 q 171 593 165 610 q 174 583 174 588 q 178 571 175 578 q 160 522 176 542 q 133 483 144 503 q 121 465 129 476 q 101 453 113 454 q 100 456 101 456 q 108 466 103 463 q 115 475 113 469 q 135 511 126 493 q 150 553 144 529 q 145 582 154 571 q 125 604 136 593 q 106 628 114 615 q 104 665 99 642 q 109 676 107 672 q 114 685 111 681 q 119 694 118 690 q 124 701 119 699 z "},"":{"ha":115,"x_min":0,"x_max":90,"o":"m 61 596 q 27 613 43 596 q 7 646 11 631 q 15 681 14 661 q 8 719 15 700 l 0 744 q 19 799 1 776 q 50 843 36 821 q 65 864 56 851 q 86 878 75 876 q 88 875 88 875 q 79 863 85 867 q 69 853 74 858 q 48 812 58 833 q 32 764 38 790 q 38 731 28 743 q 60 706 47 718 q 81 679 72 694 q 83 638 90 664 q 78 626 81 631 q 72 615 75 621 q 67 605 68 608 q 61 596 67 601 z "},"":{"ha":694,"x_min":-3,"x_max":88,"o":"m 26 843 q 60 826 44 843 q 81 794 76 810 q 73 760 74 779 q 79 721 72 740 l 88 696 q 69 641 86 663 q 38 597 51 619 q 22 576 32 589 q 1 563 13 564 q 0 565 0 564 q 8 577 3 574 q 18 588 14 581 q 40 628 29 607 q 56 675 50 649 q 50 708 60 696 q 28 733 40 721 q 6 761 15 746 q 4 803 -3 776 q 15 824 8 814 q 20 835 19 831 q 26 843 21 839 z "},"|":{"ha":113,"x_min":33,"x_max":79,"o":"m 58 1222 q 66 1187 64 1210 q 67 1137 68 1164 q 66 1083 67 1110 q 67 1036 65 1056 q 68 1019 68 1028 q 69 1001 68 1011 q 64 949 67 982 q 67 890 61 917 q 71 874 68 885 q 75 856 74 863 q 74 820 74 838 q 74 785 74 803 q 76 773 75 778 q 78 761 76 768 q 72 716 75 740 q 67 672 68 692 q 72 629 65 647 q 78 588 79 611 q 75 563 78 574 q 69 543 72 553 q 65 522 67 533 q 65 493 64 510 q 72 446 68 471 q 74 401 75 421 q 69 386 72 394 q 65 371 67 378 q 64 325 64 347 q 63 281 64 303 q 69 114 69 203 q 67 -62 69 25 l 71 -92 q 69 -131 69 -111 q 68 -169 68 -150 q 66 -230 65 -197 q 64 -296 67 -262 q 63 -346 63 -321 q 63 -397 63 -371 q 61 -396 61 -396 q 59 -367 60 -379 q 58 -343 58 -354 q 58 -319 58 -332 q 58 -292 58 -307 l 58 -243 q 52 -110 56 -176 q 44 22 49 -44 l 44 131 q 37 408 38 264 q 33 689 36 551 q 38 783 33 735 q 42 883 43 831 q 47 912 44 899 q 51 940 49 925 q 56 1044 56 988 q 57 1142 56 1101 q 56 1183 57 1165 q 58 1222 56 1201 z "},"":{"ha":694,"x_min":-69,"x_max":278,"o":"m 275 751 q 274 727 278 742 q 265 697 271 713 q 252 665 258 681 q 243 636 246 649 q 241 625 242 631 q 239 614 240 619 q 222 584 232 603 q 211 547 213 565 q 212 535 211 543 q 213 522 213 528 l 196 481 q 195 472 196 476 q 194 464 194 468 q 179 439 188 453 q 165 414 171 425 q 161 385 158 399 q 157 358 164 372 q 140 334 150 342 q 125 304 131 326 q 121 274 122 290 q 114 247 119 258 q 106 238 111 242 q 99 231 101 235 l 78 176 q 47 73 67 128 q 7 -35 28 18 q 6 -44 6 -39 q 4 -54 6 -49 q -5 -77 0 -65 q -15 -100 -10 -89 q -28 -135 -22 -115 q -46 -175 -35 -156 q -57 -206 -51 -190 q -68 -237 -62 -222 l -69 -236 q -61 -203 -65 -215 q -50 -171 -57 -190 q -44 -156 -47 -164 q -39 -142 -42 -149 q -17 -58 -28 -100 q 6 25 -6 -17 q 17 58 11 42 q 28 90 22 74 q 80 262 50 174 q 138 435 110 350 q 162 490 147 463 q 188 550 176 518 q 198 567 193 558 q 208 582 203 575 q 235 645 222 610 q 257 704 247 681 q 265 729 263 718 q 275 751 268 740 z "},"D":{"ha":388,"x_min":-89,"x_max":374,"o":"m 367 649 q 369 577 374 611 q 354 511 365 543 q 328 449 343 479 q 301 392 314 419 q 285 344 290 367 q 264 300 279 322 q 251 287 257 293 q 239 274 246 281 q 224 247 231 263 q 210 217 217 232 q 194 190 203 203 q 172 171 185 176 q 149 165 167 168 l 129 163 q 26 162 74 144 q -49 226 -21 179 q -59 244 -51 231 q -74 272 -67 257 q -85 301 -82 286 q -82 324 -89 315 q -71 283 -82 307 q -43 238 -60 260 q -8 201 -26 217 q 22 183 10 185 q 44 183 31 182 q 72 188 58 185 q 96 194 86 190 q 104 201 106 197 q 101 249 103 225 q 99 296 100 272 q 102 351 97 324 q 111 404 107 379 q 110 424 114 415 q 104 443 106 433 q 107 460 106 451 q 110 478 108 468 q 102 535 104 506 q 96 590 100 564 q 97 606 96 597 q 97 621 97 614 q 94 709 90 661 q 89 801 97 757 q 69 812 76 803 q 51 815 63 821 q 31 793 40 810 q 16 756 22 776 q 8 714 10 735 q 13 679 7 693 q 8 681 10 679 q 6 738 6 710 q 12 791 6 767 q 32 833 18 815 q 71 861 46 851 q 104 866 88 864 q 138 871 121 868 q 164 867 151 869 q 190 861 176 864 q 213 860 203 858 q 236 858 224 863 q 263 848 246 856 q 297 831 279 840 q 328 813 314 822 q 347 794 342 803 q 349 778 350 788 q 350 763 349 768 q 358 730 354 746 q 365 699 361 714 q 366 674 365 686 q 367 649 367 661 m 304 553 q 311 561 307 557 q 318 568 315 565 q 317 601 318 585 q 317 635 317 618 q 306 670 314 651 q 294 703 297 689 q 306 748 306 722 q 282 788 306 774 q 268 786 274 789 q 258 781 263 783 q 247 775 253 778 q 232 775 240 772 q 193 793 213 781 q 147 807 174 806 q 133 803 140 803 q 122 801 126 804 q 124 742 121 774 q 132 683 126 710 q 135 635 138 656 q 138 596 133 614 l 138 550 q 144 498 140 522 q 153 449 147 474 q 151 442 153 443 q 149 438 149 440 q 149 421 146 429 q 153 407 151 413 q 151 392 156 396 q 146 381 147 388 l 146 350 q 141 343 143 347 q 136 335 139 339 q 130 278 131 308 q 135 225 129 249 q 136 212 138 218 q 138 201 135 206 q 164 217 153 206 q 183 243 175 229 q 199 272 192 257 q 214 299 206 286 q 234 326 224 313 q 251 356 244 339 l 260 393 q 281 433 269 413 q 300 476 293 454 q 302 515 301 496 q 304 553 303 533 z "},"":{"ha":636,"x_min":-7,"x_max":632,"o":"m 407 414 q 444 386 428 403 q 464 347 461 369 q 453 332 461 340 q 439 317 446 324 q 419 300 431 308 q 378 281 404 289 q 318 271 353 272 q 315 251 315 260 q 313 235 314 242 q 311 221 311 226 q 310 235 311 226 q 307 251 308 242 q 304 271 306 260 q 247 274 274 271 q 201 279 221 276 q 158 288 178 283 q 200 296 176 292 q 245 301 219 299 q 300 304 271 303 q 298 328 299 315 q 296 356 297 342 l 283 356 q 294 400 292 356 l 294 406 q 290 406 292 406 q 286 407 289 407 q 233 411 257 408 q 189 417 208 414 q 149 424 167 421 q 167 426 157 425 q 188 429 175 428 q 215 433 200 431 q 178 461 194 444 q 160 500 163 478 q 169 515 163 507 q 183 531 176 524 q 203 547 192 539 q 244 567 218 558 q 304 578 269 575 q 307 597 306 588 q 310 613 308 606 q 311 626 311 619 q 313 613 311 619 q 315 597 314 606 q 318 578 315 588 q 374 574 347 576 q 421 568 401 571 q 464 560 444 564 q 422 551 444 556 q 377 546 403 549 q 322 543 351 543 q 325 519 324 532 q 326 492 326 506 l 339 492 q 328 447 331 492 l 328 442 q 336 440 333 442 q 389 435 364 438 q 433 431 414 433 q 474 424 456 426 q 456 421 465 422 q 435 418 447 419 q 407 414 422 417 m 206 500 q 244 456 215 468 q 294 442 272 444 l 294 447 q 283 492 292 492 l 296 492 q 298 518 297 506 q 300 543 299 531 q 238 525 258 539 q 206 500 217 511 m 322 306 q 385 322 364 308 q 417 347 406 336 q 378 391 407 379 q 328 406 350 403 l 328 400 q 339 356 331 356 l 326 356 q 322 306 324 328 m 313 650 q 399 632 358 650 q 471 583 440 614 q 519 512 501 553 q 538 424 538 471 q 519 335 538 376 q 471 264 501 294 q 399 215 440 233 q 313 197 358 197 q 224 215 265 197 q 153 264 183 233 q 104 335 122 294 q 86 424 86 376 q 104 512 86 471 q 153 583 122 553 q 224 632 183 614 q 313 650 265 650 m 313 219 q 392 235 354 219 q 457 279 429 251 q 501 344 485 307 q 517 424 517 382 q 501 503 517 465 q 457 568 485 540 q 392 612 429 596 q 313 628 354 628 q 232 612 269 628 q 167 568 194 596 q 123 503 139 540 q 107 424 107 465 q 123 344 107 382 q 167 279 139 307 q 232 235 194 251 q 313 219 269 219 m 608 397 l 615 325 q 596 346 606 339 q 578 355 588 353 q 563 346 569 357 q 557 332 560 338 l 582 297 l 564 226 q 553 253 558 242 q 540 267 547 263 q 521 265 532 272 q 516 260 518 263 q 511 254 514 257 l 522 213 l 481 153 q 479 181 482 168 q 472 199 476 192 q 454 204 467 207 l 442 196 l 438 154 l 378 111 q 386 138 383 125 q 386 157 389 149 q 371 168 383 165 q 363 167 367 167 q 356 165 360 167 l 338 128 l 267 107 q 285 129 279 118 q 290 148 290 139 q 279 164 290 157 q 272 165 276 165 q 265 167 268 165 l 235 136 l 161 142 q 185 157 175 149 q 197 172 193 164 q 193 190 201 181 q 179 199 188 193 l 140 181 l 74 210 q 101 215 89 210 q 118 226 111 219 q 119 246 125 233 q 110 257 117 250 l 68 254 l 15 304 q 43 300 31 300 q 63 305 54 300 q 71 322 71 310 q 68 328 69 325 q 65 336 67 332 l 24 347 l -7 413 q 18 399 7 403 q 37 397 28 396 q 50 411 46 399 l 50 424 l 50 425 l 15 450 l 8 524 q 28 501 18 508 q 45 492 36 494 q 61 501 54 490 q 67 515 64 507 l 43 550 l 60 621 q 71 594 65 606 q 84 580 76 585 q 103 582 92 575 q 108 588 106 585 q 113 593 110 590 l 101 635 l 143 694 q 144 667 142 679 q 152 648 147 656 q 169 643 157 640 l 182 651 l 188 694 l 246 736 q 238 710 239 722 q 238 690 235 699 q 254 679 242 681 q 261 681 257 681 q 268 682 265 681 l 288 721 l 357 740 q 339 718 344 729 q 333 699 333 708 q 344 683 333 689 q 358 681 350 683 l 390 711 l 463 706 q 439 690 449 697 q 426 675 431 683 q 432 657 422 667 q 444 650 440 651 l 483 667 l 550 638 q 522 632 533 638 q 505 620 511 628 q 504 601 499 613 q 509 596 507 599 q 514 590 511 593 l 556 593 l 608 543 q 581 547 593 547 q 560 542 569 547 q 553 525 551 538 q 558 511 556 519 l 600 500 l 631 435 q 606 447 617 443 q 586 449 596 450 q 574 436 576 449 l 574 424 l 574 422 l 608 397 m 313 183 q 406 202 363 183 q 483 253 450 221 q 534 330 515 286 q 553 424 553 374 q 534 517 553 474 q 483 594 515 561 q 406 645 450 626 q 313 664 363 664 q 219 645 263 664 q 142 594 175 626 q 90 517 108 561 q 71 424 71 474 q 90 330 71 374 q 142 253 108 286 q 219 202 175 221 q 313 183 263 183 m 26 89 l 28 89 q 32 90 29 90 l 35 90 q 36 89 36 90 q 38 88 38 89 l 39 86 q 42 83 42 83 l 42 81 l 42 78 l 42 74 q 38 72 40 72 l 38 74 q 36 76 36 76 q 35 78 36 78 l 32 81 q 31 82 32 82 l 28 82 q 26 83 26 82 q 24 82 25 83 l 22 82 l 21 83 q 15 81 18 83 q 13 71 13 78 l 13 67 l 13 64 l 13 61 q 15 58 13 61 l 17 57 l 19 54 q 22 56 22 56 q 25 54 25 54 l 25 56 l 29 56 q 32 57 31 57 l 35 57 q 35 56 35 56 q 36 54 36 56 q 40 44 35 54 q 42 32 42 38 l 42 26 l 42 22 q 39 15 42 24 q 33 10 35 10 l 32 11 l 29 11 q 26 10 28 11 l 24 10 l 22 11 q 21 13 21 11 q 17 11 18 13 l 14 11 q 8 14 11 11 q 4 22 4 18 l 4 25 q 5 26 4 26 q 6 28 6 26 l 7 29 q 13 26 10 29 q 14 24 14 26 l 14 21 l 14 19 q 17 18 15 19 l 24 18 q 32 25 29 18 l 32 38 q 31 44 32 43 q 28 45 29 44 q 25 46 28 46 q 21 44 22 46 l 18 44 l 13 44 l 10 47 q 8 50 10 49 l 8 53 l 6 56 q 5 57 6 57 q 4 58 4 57 l 4 60 q 3 63 3 63 l 3 65 q 4 69 3 68 l 4 71 l 4 78 q 6 79 6 78 q 7 83 6 82 l 7 86 q 8 89 7 89 l 10 89 q 13 90 11 89 l 14 90 l 15 90 l 17 90 q 22 89 21 90 l 26 89 m 65 76 q 63 75 64 75 q 60 69 60 72 l 60 64 l 60 61 l 60 56 q 60 53 60 54 q 61 50 61 53 q 60 46 61 47 q 60 43 60 44 l 60 42 l 61 40 q 60 38 60 39 l 60 36 l 60 33 l 60 31 l 60 29 q 63 28 61 28 l 64 26 l 64 24 l 64 22 l 63 22 l 60 22 l 58 24 l 57 22 l 57 21 q 56 22 56 22 q 54 23 54 22 q 53 24 54 24 q 51 23 51 24 q 50 22 51 22 q 49 21 49 21 q 47 24 47 22 q 46 26 46 25 q 49 28 47 28 q 51 29 51 28 q 53 31 53 29 q 51 33 51 32 l 51 38 l 51 39 l 51 40 l 51 43 l 51 46 l 51 47 l 51 50 l 51 54 l 51 58 q 53 65 51 63 q 54 68 53 68 q 53 69 54 69 q 53 71 53 69 q 51 72 51 72 l 53 74 q 50 75 51 75 l 49 75 q 47 76 47 75 q 46 79 46 76 q 47 81 46 81 l 47 82 q 50 81 49 82 l 51 81 l 53 81 l 56 81 l 60 81 l 64 81 q 65 76 65 79 m 104 71 q 103 64 104 67 l 103 53 l 103 50 l 103 46 l 103 40 l 103 35 l 103 33 q 104 29 103 31 l 104 24 l 104 22 q 101 18 104 21 q 100 17 100 17 q 94 25 96 17 q 92 32 92 32 q 90 35 90 32 q 89 40 90 39 q 88 42 89 42 q 86 46 86 43 q 85 50 86 49 q 82 55 83 53 q 79 60 81 57 q 78 57 78 58 l 78 53 l 78 49 q 78 47 78 47 q 79 46 79 47 q 78 42 78 44 q 76 36 76 40 q 78 32 76 33 q 79 28 78 29 q 78 22 78 25 q 76 18 76 19 q 75 17 76 17 q 71 18 72 17 q 69 22 69 19 l 69 25 q 70 26 69 26 q 71 28 71 26 l 71 29 q 69 35 71 33 l 69 38 q 71 40 69 40 q 72 42 71 42 q 72 43 72 42 q 72 47 72 46 q 71 50 71 47 q 69 52 69 51 q 68 54 69 53 q 69 57 68 57 q 72 63 69 57 l 72 67 q 71 69 72 68 q 69 72 69 72 q 71 74 69 74 l 71 76 l 71 78 q 69 81 69 79 l 72 86 l 72 90 q 74 92 72 92 q 76 88 74 92 q 78 81 78 83 q 81 78 78 78 q 85 71 82 76 l 85 69 q 86 65 85 67 q 87 63 86 64 q 88 61 88 63 q 89 58 89 58 q 90 54 90 57 q 92 51 92 54 q 92 49 92 49 q 93 47 93 49 l 94 46 q 96 43 96 43 l 96 57 l 96 58 q 95 60 96 60 q 94 61 94 60 l 94 63 q 96 68 94 65 q 97 72 96 71 q 97 75 97 74 q 96 78 96 76 q 94 81 94 79 l 94 82 l 94 85 q 96 88 96 86 q 97 89 96 89 q 100 90 100 90 q 101 88 101 89 q 103 86 101 88 l 103 79 l 103 78 l 103 76 q 104 74 103 75 l 104 71 m 126 75 q 124 72 126 75 q 119 68 119 72 l 119 63 l 119 58 q 120 56 119 57 q 121 54 121 56 l 121 49 q 119 42 121 43 l 119 40 l 121 40 l 121 38 l 121 36 q 119 33 119 35 l 119 32 l 119 29 l 119 26 q 122 25 122 26 q 125 24 125 25 l 125 21 q 124 19 124 21 q 121 21 122 19 l 118 21 q 117 19 117 19 l 115 21 l 113 21 q 111 19 111 21 l 108 19 l 107 21 l 107 24 q 110 25 107 25 q 113 26 113 26 l 113 28 l 113 32 l 113 35 l 113 36 l 113 39 l 113 40 l 113 43 l 113 46 l 113 49 l 113 53 l 113 56 l 113 63 q 115 67 113 64 q 114 67 114 67 q 113 68 114 68 l 113 69 l 113 72 q 111 74 113 74 l 110 74 l 107 74 l 107 76 l 107 79 l 108 79 l 110 79 q 111 78 111 78 l 113 78 l 114 78 q 117 79 115 79 l 121 79 q 125 78 124 79 q 126 75 126 76 m 144 63 l 146 63 q 149 64 147 64 l 151 64 l 153 63 l 154 63 l 154 60 q 157 58 157 58 l 157 57 l 157 54 l 157 51 q 154 50 157 50 q 153 51 153 50 l 153 53 q 151 54 153 54 l 149 57 l 147 57 l 144 57 q 143 58 144 58 l 142 58 l 142 57 q 140 58 142 58 l 139 58 q 137 58 138 58 q 135 57 136 57 q 132 49 132 54 l 132 47 l 132 44 l 132 43 q 133 40 133 40 q 135 39 135 40 q 138 38 138 38 l 140 38 l 143 38 q 146 39 144 38 l 149 39 l 151 39 q 153 38 151 38 q 154 35 154 36 q 156 29 154 32 q 157 21 157 25 l 157 17 l 157 14 q 154 8 157 14 q 150 4 151 4 l 149 6 l 147 6 q 143 4 144 6 l 142 4 l 140 6 l 139 6 l 135 6 l 133 6 q 128 7 131 6 q 124 14 124 11 q 125 15 125 15 q 128 18 128 18 q 132 17 131 18 q 133 14 133 17 l 133 13 l 133 11 l 136 11 l 142 11 q 149 15 146 11 l 149 25 q 147 29 149 29 q 143 31 146 31 l 139 31 q 138 30 138 31 q 136 29 138 29 q 134 30 135 29 q 132 31 133 31 q 129 32 131 31 l 129 33 q 128 36 128 36 l 126 38 q 125 40 125 39 l 124 42 l 124 43 l 124 46 l 124 49 l 125 49 l 125 54 l 125 56 l 128 58 l 128 61 l 128 63 l 129 63 q 132 64 132 63 l 133 64 l 135 64 l 136 64 q 140 63 139 64 l 144 63 m 181 68 q 179 67 181 67 l 174 67 q 169 65 172 65 l 169 64 l 169 63 l 169 61 l 169 57 l 171 56 q 169 54 169 54 l 168 53 q 169 50 169 50 l 169 47 l 169 36 l 171 35 l 171 33 l 171 32 q 169 25 169 31 l 169 24 l 169 21 l 171 19 q 169 13 169 17 q 167 7 168 7 q 165 8 165 7 q 164 8 165 8 l 161 11 l 161 13 q 163 14 163 14 l 163 15 q 161 18 161 17 l 161 26 l 161 32 q 162 34 161 33 q 163 38 163 35 l 163 50 q 161 58 163 56 l 161 64 q 156 65 161 65 q 151 71 151 67 q 154 74 151 72 q 157 75 157 75 q 158 74 158 75 q 161 74 158 74 q 164 72 164 72 l 168 72 q 172 74 171 74 q 175 75 172 74 q 179 72 174 75 q 180 70 179 71 q 181 68 181 69 m 204 7 q 203 4 204 4 q 201 3 201 4 q 199 3 200 3 l 197 3 l 194 3 l 192 3 l 186 3 q 179 4 181 3 q 178 7 178 4 l 178 10 l 178 13 q 176 18 178 17 l 176 19 l 176 22 q 178 25 178 22 q 176 31 178 29 l 176 32 l 176 35 l 178 36 l 178 40 q 179 42 178 42 l 178 43 q 176 49 176 44 l 176 53 l 176 58 l 176 61 l 178 63 l 182 63 l 183 63 l 189 63 l 193 63 q 200 61 199 63 q 203 58 203 61 l 203 56 q 199 54 201 54 q 196 56 197 54 q 194 54 194 56 l 193 54 l 192 56 q 186 53 189 56 q 185 50 186 51 q 185 46 185 49 l 185 43 q 188 39 185 39 q 192 38 189 38 l 194 38 l 197 38 q 200 36 199 38 q 201 32 201 35 q 200 29 201 29 q 198 28 199 29 q 194 28 197 28 l 192 28 q 189 29 190 29 l 188 29 q 186 28 186 29 q 185 25 185 26 l 185 21 l 185 17 q 186 15 185 15 l 186 14 q 188 13 188 14 q 186 13 188 13 l 186 11 q 188 10 188 11 l 192 10 l 194 10 q 196 11 196 11 l 199 11 q 201 10 200 10 q 204 7 204 10 m 249 14 q 247 11 249 13 q 246 10 246 10 q 240 13 243 10 q 233 25 235 18 q 228 35 232 26 q 225 44 225 40 l 224 44 l 222 44 l 221 44 q 219 45 219 44 q 218 46 219 46 l 217 44 l 217 43 q 215 39 215 42 l 215 35 l 215 31 q 217 28 217 29 q 218 24 218 26 q 217 14 218 17 q 210 10 214 10 q 208 11 208 10 q 207 14 207 13 l 207 17 q 208 18 207 18 q 208 19 208 18 l 208 21 q 208 24 208 24 q 207 28 207 25 l 204 31 q 207 38 204 29 l 207 42 q 208 43 207 43 q 207 44 208 44 q 206 47 206 47 l 206 49 l 206 53 q 207 58 207 54 q 206 62 207 61 q 206 64 206 63 q 204 67 204 67 q 206 69 204 68 q 207 78 207 71 l 207 82 q 206 85 206 83 l 206 88 l 207 89 l 208 88 q 210 86 210 88 l 211 88 q 215 90 214 90 q 219 90 218 90 q 222 89 221 89 l 224 89 l 231 90 q 233 89 232 90 l 236 86 l 239 86 l 242 83 q 243 81 242 82 l 243 78 l 243 75 q 242 72 243 74 l 242 71 l 243 69 q 244 65 244 68 q 243 64 244 64 q 242 61 242 61 l 243 61 l 243 58 l 243 54 q 240 50 243 50 q 238 47 240 50 q 235 47 235 47 q 233 46 235 46 q 235 42 233 43 l 236 40 q 238 38 236 38 l 242 33 l 242 32 q 243 29 242 31 q 244 22 243 25 q 246 19 246 21 q 249 14 249 18 m 233 65 l 233 69 l 233 72 q 233 76 233 75 q 232 78 232 76 l 229 78 q 226 79 226 78 q 224 81 225 81 q 221 79 222 79 l 218 79 q 217 75 218 76 q 217 72 217 74 q 215 69 215 69 l 215 65 l 215 60 l 215 56 q 217 55 217 56 q 219 54 218 54 q 222 56 221 54 l 225 56 q 231 57 229 56 q 233 65 233 60 m 465 19 q 464 17 465 18 l 464 14 q 461 11 464 11 q 454 10 460 10 q 453 11 453 10 q 451 14 451 11 l 451 17 l 451 18 l 450 19 q 451 24 450 22 l 454 24 l 456 24 l 457 24 l 458 24 q 460 25 460 24 q 463 22 463 25 q 465 19 465 19 m 508 67 q 508 65 508 65 q 507 64 507 65 q 504 63 504 63 l 503 63 q 501 64 501 63 q 499 68 499 67 l 497 69 q 492 71 494 69 q 489 72 489 72 l 488 71 q 486 69 488 69 l 485 71 l 483 71 l 483 69 q 483 68 483 68 q 482 67 482 68 q 481 61 481 64 q 482 57 481 58 l 482 56 l 482 50 q 481 44 481 47 l 481 42 l 482 40 l 482 39 l 482 35 q 481 29 481 32 q 481 27 481 28 q 482 24 482 26 q 489 19 483 19 q 492 21 490 19 l 493 21 l 497 21 l 500 21 l 500 22 q 499 25 499 24 q 500 28 500 26 q 503 29 503 29 q 507 28 506 29 q 508 25 508 28 q 507 21 508 22 q 506 20 506 21 q 504 19 506 19 l 504 18 l 504 17 q 501 15 503 15 l 500 15 q 499 14 500 14 l 499 13 q 497 14 497 14 q 495 15 496 14 q 492 15 494 15 q 489 14 490 14 l 488 13 q 486 14 486 14 l 485 14 q 482 15 483 15 l 479 15 q 476 14 476 15 q 475 19 475 17 l 475 21 q 474 25 474 24 q 471 31 471 31 q 472 35 471 33 q 473 37 472 36 q 474 39 474 38 q 472 42 474 40 q 472 44 472 44 q 471 46 471 44 q 472 49 472 47 q 474 54 474 50 q 472 57 472 57 q 471 58 471 58 q 472 60 471 60 q 472 61 472 60 l 472 63 l 472 64 q 474 68 472 65 l 474 69 l 475 71 q 476 72 476 72 l 476 74 q 475 75 475 75 q 476 76 476 76 l 481 76 l 483 76 l 489 76 l 499 76 l 503 76 l 504 76 q 505 75 504 75 q 506 74 506 75 l 506 72 l 508 69 l 508 67 m 553 25 q 551 22 553 24 q 547 15 549 17 q 546 13 546 13 l 546 11 q 542 8 543 8 l 538 8 q 535 7 535 7 q 529 8 532 8 q 526 9 526 8 q 524 10 525 10 l 519 18 q 517 21 518 19 q 515 24 517 22 l 515 25 q 516 28 515 28 q 517 31 517 29 l 517 35 l 517 38 q 515 40 515 40 q 517 44 515 43 q 517 46 517 46 q 518 47 518 46 l 517 49 l 517 54 q 517 58 517 57 q 518 60 518 58 q 521 65 521 65 q 525 69 522 65 q 528 72 528 72 l 543 71 q 547 64 544 71 q 549 61 549 63 q 550 58 549 60 q 551 56 551 57 q 553 54 551 56 l 553 51 l 553 50 q 552 47 553 49 q 551 44 551 46 l 553 43 l 553 40 l 553 39 q 551 33 551 36 q 553 28 551 29 l 553 25 m 544 44 l 543 46 l 543 47 l 543 50 l 543 54 q 542 57 543 57 q 540 58 540 57 l 539 60 q 538 63 539 63 l 535 63 l 533 63 q 531 64 531 64 q 528 59 529 61 q 526 54 528 57 q 525 51 525 53 q 526 49 525 50 l 526 47 l 526 42 l 526 36 q 528 33 528 35 q 527 31 528 32 q 526 29 526 31 l 526 26 l 526 24 q 532 15 529 22 q 535 17 535 17 l 538 17 q 539 21 539 18 q 542 22 540 21 l 542 24 q 543 26 542 25 l 543 28 q 542 31 543 31 l 542 33 q 543 40 542 38 q 544 42 543 42 q 544 44 544 43 m 606 76 q 604 75 604 75 l 603 74 q 604 72 604 72 q 605 70 604 71 q 606 68 606 69 q 604 64 604 67 q 603 60 604 60 l 603 33 q 606 29 606 31 q 604 28 604 29 l 604 25 l 604 17 q 603 13 604 14 q 603 11 603 13 q 600 7 603 7 q 596 13 599 10 q 593 22 593 21 l 593 24 q 594 31 594 25 l 594 38 l 594 42 l 594 50 q 594 52 594 51 q 593 54 593 53 q 589 46 590 51 q 583 40 588 40 q 581 42 582 40 l 581 46 q 578 49 579 47 q 576 51 578 50 q 574 56 574 56 q 571 47 571 53 l 571 46 q 572 40 571 43 l 572 38 l 572 35 q 571 29 571 33 l 571 28 q 572 25 571 26 q 574 21 574 24 q 571 11 574 19 q 565 7 568 7 l 563 10 q 562 12 563 11 q 561 14 561 13 q 563 17 561 15 q 564 19 564 19 q 561 25 561 25 l 561 29 l 561 33 q 563 39 563 35 q 561 42 563 40 q 560 43 561 43 q 560 44 560 43 l 560 46 q 563 49 563 49 q 564 54 564 51 q 563 58 564 56 q 562 60 563 60 q 561 63 561 61 q 562 64 561 64 q 563 67 563 64 q 564 71 564 69 q 563 74 564 72 l 563 78 q 564 81 563 81 q 576 68 568 81 q 585 58 581 61 q 585 60 585 60 q 586 63 586 61 l 586 65 q 590 67 589 65 q 592 67 592 67 q 593 68 592 68 q 596 76 594 75 q 600 81 597 81 l 601 79 q 603 78 603 78 q 606 76 604 78 m 618 76 l 617 76 l 615 76 l 615 75 l 615 74 l 615 72 l 615 71 l 615 68 l 615 65 l 615 64 l 615 63 q 614 61 615 61 l 613 63 l 613 64 l 613 65 l 613 68 l 613 69 l 613 72 l 613 74 l 613 76 l 611 76 q 610 78 610 76 l 611 78 l 613 78 l 614 78 l 615 78 l 617 78 l 618 78 l 618 76 m 632 78 l 632 76 l 632 75 l 632 74 l 632 68 l 632 67 l 632 65 l 632 64 l 632 63 l 631 61 l 631 63 q 629 65 629 64 l 629 67 l 629 68 l 629 69 l 629 71 l 629 72 q 628 69 629 71 l 626 69 l 626 71 q 625 72 625 71 l 624 71 q 625 69 624 69 l 625 68 l 624 67 l 625 65 l 625 64 l 624 63 l 624 61 q 622 63 622 61 l 622 64 l 622 65 l 622 67 l 622 68 l 622 69 l 622 71 l 622 72 l 622 74 l 622 75 l 622 76 l 622 78 q 625 75 624 78 q 628 74 626 74 l 628 75 l 629 75 l 629 78 l 631 78 l 632 78 m 336 15 q 335 14 335 15 q 331 10 332 11 q 329 7 331 8 q 328 3 329 4 q 328 1 328 3 q 324 0 326 0 l 319 0 q 317 -1 318 -1 q 311 0 313 -1 q 307 1 307 0 l 301 10 q 299 14 299 13 q 297 17 297 17 q 298 20 297 19 q 299 22 299 21 q 299 24 299 24 q 300 26 300 25 q 299 29 299 28 q 297 32 297 31 q 299 35 297 33 q 300 38 300 38 q 299 40 300 39 l 299 46 q 299 48 299 47 q 300 50 300 49 q 301 52 300 51 q 301 54 301 53 q 303 56 301 56 l 307 60 q 310 63 308 63 l 325 63 q 329 56 326 63 q 331 53 331 54 q 332 49 331 51 l 335 46 q 336 43 336 43 q 335 40 335 42 q 334 38 335 39 q 333 36 333 38 q 335 35 335 35 q 336 32 336 33 q 335 29 335 32 q 333 25 333 28 q 335 19 333 21 q 335 17 335 17 q 336 15 336 17 m 326 35 l 326 36 l 325 38 l 325 39 l 325 42 l 325 46 q 324 49 325 47 q 322 49 322 49 q 321 51 322 50 q 319 54 321 53 q 317 53 318 53 l 315 54 l 313 54 l 308 46 q 307 43 307 43 q 308 40 307 42 l 308 38 l 308 33 l 308 28 q 309 26 308 26 q 310 25 310 26 q 309 22 310 24 q 308 19 308 21 l 308 18 q 310 15 308 17 l 314 7 q 317 8 317 8 q 319 7 318 7 l 319 8 l 322 11 q 324 13 322 13 q 324 15 324 14 q 325 17 325 15 l 325 19 l 325 22 l 324 24 q 325 32 324 29 q 326 33 325 33 q 326 35 326 33 m 429 60 q 431 61 429 61 l 435 61 l 436 61 l 438 61 q 439 60 439 61 q 440 58 440 58 q 443 57 442 57 l 443 54 l 443 53 l 443 49 q 440 47 442 47 q 439 49 439 47 l 439 50 l 438 51 l 436 53 l 435 54 l 432 54 l 431 54 q 428 56 429 56 l 426 56 l 425 56 l 424 56 q 419 54 419 56 q 415 46 415 51 l 415 43 l 415 42 q 417 39 417 39 q 418 36 417 38 l 419 36 l 422 33 l 425 33 l 428 33 q 431 35 429 33 l 433 35 l 436 35 l 438 33 q 442 25 439 33 q 443 15 443 19 l 443 11 l 443 7 l 442 6 q 441 4 442 4 q 440 3 440 4 q 438 -1 439 0 l 436 -3 q 435 -1 435 -3 l 432 -1 q 429 -3 429 -1 l 426 -3 q 425 -1 425 -3 l 424 -1 q 419 -1 424 -1 q 417 -3 417 -3 q 411 1 415 -3 q 407 7 407 3 q 408 10 408 10 q 411 13 411 13 q 415 11 415 13 q 417 8 417 10 l 417 7 l 417 6 q 419 4 418 6 l 426 4 q 433 10 432 4 q 435 19 435 11 q 433 25 435 24 q 431 26 432 25 q 428 26 429 26 q 424 25 425 26 l 421 25 l 417 25 q 414 26 414 26 q 413 29 413 28 q 411 32 411 32 q 410 33 411 33 q 408 36 408 35 q 407 38 407 38 l 407 40 l 407 43 l 407 44 l 407 46 q 408 51 408 49 l 408 53 q 409 55 408 54 q 410 57 410 56 q 411 58 411 58 l 411 61 l 413 61 q 415 63 415 61 l 417 63 l 418 63 q 419 62 419 63 q 421 61 419 61 l 425 61 q 429 60 428 61 m 293 39 q 292 35 293 35 q 288 33 290 33 l 281 33 q 278 34 279 33 q 276 35 278 35 l 275 35 q 269 33 271 35 q 267 32 267 33 q 265 28 265 31 l 265 24 l 265 21 l 265 19 q 267 17 265 18 l 267 13 q 265 4 267 7 q 263 -3 265 3 q 258 1 260 1 l 256 -1 q 255 1 256 0 q 254 3 254 1 l 254 6 l 254 8 q 256 13 256 10 l 256 14 q 254 18 254 15 q 253 22 253 21 q 253 24 253 24 q 254 26 254 25 q 256 31 256 28 q 254 32 254 31 l 254 35 q 253 40 253 36 q 256 47 253 42 q 256 50 256 49 q 257 53 257 51 q 256 54 256 53 q 254 57 254 56 q 253 58 254 58 q 253 60 253 58 q 254 64 254 61 q 256 72 256 68 q 254 74 256 74 q 253 76 254 75 q 253 78 253 76 q 253 80 253 79 q 254 82 254 81 l 260 82 l 264 82 q 267 83 265 82 q 268 85 268 85 l 271 85 l 275 85 q 278 82 275 85 q 282 83 279 83 l 283 83 q 286 82 286 82 l 290 82 q 293 76 293 79 q 292 74 293 75 q 288 71 289 71 l 276 74 l 274 74 l 272 74 l 268 74 q 265 72 267 72 l 265 67 l 265 63 l 265 58 l 265 57 l 265 53 l 265 50 l 265 49 q 268 46 268 46 q 272 44 269 44 l 276 44 q 288 46 282 46 q 290 45 289 46 q 292 44 290 44 q 293 39 293 43 m 381 53 q 379 47 381 49 l 379 38 l 379 35 l 379 31 l 379 26 l 379 22 q 381 17 379 19 l 381 13 l 381 11 q 378 7 381 10 q 375 6 378 6 q 369 13 372 6 q 367 19 367 19 q 365 22 365 19 q 364 26 364 24 q 363 28 364 28 q 360 31 360 31 q 358 36 360 33 q 353 43 357 39 q 351 40 351 43 q 350 38 350 40 q 351 35 350 36 q 351 33 351 35 l 351 31 l 351 28 q 350 24 350 26 q 351 19 350 21 l 351 15 q 350 10 351 11 q 347 6 350 6 l 346 6 q 343 7 344 6 q 342 10 342 7 l 342 14 q 343 17 343 17 q 342 22 343 19 l 342 24 q 343 26 342 26 q 344 29 344 28 q 343 35 344 33 q 342 37 342 36 q 340 39 342 38 q 342 42 340 40 q 344 46 342 43 l 344 50 l 343 51 q 342 54 342 54 q 343 56 342 56 q 344 57 343 57 q 344 58 344 57 q 343 60 343 58 l 342 61 q 344 67 342 61 q 347 71 346 71 l 349 69 q 350 67 349 68 q 351 61 351 64 q 354 58 351 61 q 358 53 356 58 l 358 51 q 359 50 358 50 q 360 49 360 50 q 361 47 361 47 q 363 44 361 46 q 364 42 363 43 q 365 40 364 40 q 365 39 365 40 q 367 36 367 38 q 368 33 368 33 q 369 32 368 32 q 369 31 369 32 l 372 28 l 372 40 q 371 43 372 42 q 369 46 369 46 q 370 48 369 47 q 371 51 371 49 q 372 57 372 54 q 371 60 372 58 l 369 61 l 369 63 q 370 64 369 64 q 371 65 371 64 l 371 68 q 372 69 372 68 q 376 71 376 69 q 378 69 378 69 q 379 67 378 68 l 379 61 l 379 58 q 381 56 379 57 l 381 53 m 417 78 q 408 75 417 75 q 401 72 401 72 l 401 71 l 401 69 l 401 68 l 401 63 l 401 61 q 400 58 401 60 l 400 56 l 400 53 q 401 49 401 51 l 401 36 q 403 33 401 35 l 403 31 q 400 21 400 25 l 400 19 q 401 17 400 18 q 401 15 401 17 l 401 14 l 401 6 q 397 -3 399 -3 q 393 0 394 0 q 390 1 390 1 q 389 3 389 1 q 390 6 389 6 l 392 7 q 389 13 392 7 l 389 22 l 389 31 q 390 38 390 32 l 390 53 l 390 64 q 389 72 389 69 l 388 72 q 385 73 386 72 q 382 74 383 74 q 374 81 374 75 q 379 83 374 83 q 383 85 381 85 q 388 83 386 85 q 393 82 390 82 l 399 82 q 408 85 404 85 q 414 82 411 85 q 417 78 417 79 z "}}}
